G04 #@! TF.GenerationSoftware,KiCad,Pcbnew,(6.0.2)*
G04 #@! TF.CreationDate,2022-08-28T20:21:12+12:00*
G04 #@! TF.ProjectId,Wordclock,576f7264-636c-46f6-936b-2e6b69636164,1*
G04 #@! TF.SameCoordinates,Original*
G04 #@! TF.FileFunction,Profile,NP*
%FSLAX46Y46*%
G04 Gerber Fmt 4.6, Leading zero omitted, Abs format (unit mm)*
G04 Created by KiCad (PCBNEW (6.0.2)) date 2022-08-28 20:21:12*
%MOMM*%
%LPD*%
G01*
G04 APERTURE LIST*
G04 #@! TA.AperFunction,Profile*
%ADD10C,0.050000*%
G04 #@! TD*
G04 #@! TA.AperFunction,Profile*
%ADD11C,0.038100*%
G04 #@! TD*
G04 #@! TA.AperFunction,Profile*
%ADD12C,0.120000*%
G04 #@! TD*
G04 APERTURE END LIST*
D10*
X180450000Y-83400000D02*
X216450000Y-83400000D01*
X56450000Y-93600000D02*
X51925000Y-93600000D01*
D11*
X100450000Y-162400000D02*
X136450000Y-162400000D01*
X39275000Y-57500000D02*
X39275000Y-76350000D01*
D10*
X60450000Y-71200000D02*
X96450000Y-71200000D01*
X60450000Y-32400000D02*
X96450000Y-32400000D01*
X216450000Y-50800000D02*
X180450000Y-50800000D01*
D11*
X225400000Y-132400000D02*
X224975000Y-132400000D01*
X47278553Y-71703553D02*
X47275000Y-76350000D01*
D10*
X100450000Y-81400000D02*
X136450000Y-81400000D01*
D11*
X47278553Y-132903553D02*
X47275000Y-137550000D01*
D10*
X136450000Y-42600000D02*
X100450000Y-42600000D01*
X176450000Y-83400000D02*
X140450000Y-83400000D01*
D11*
X32280000Y-30400000D02*
X32275000Y-20250000D01*
D10*
X100450000Y-61000000D02*
X136450000Y-61000000D01*
X136450000Y-73200000D02*
X100450000Y-73200000D01*
X180450000Y-63000000D02*
X216450000Y-63000000D01*
X229621447Y-122703553D02*
G75*
G03*
X229121447Y-122203553I-500001J-1D01*
G01*
D11*
X136450000Y-30400000D02*
X100450000Y-30400000D01*
D10*
X180450000Y-40600000D02*
X216450000Y-40600000D01*
D11*
X229625000Y-107300000D02*
X237625000Y-107300000D01*
X220450000Y-162400000D02*
X240600000Y-162400000D01*
D10*
X176450000Y-52800000D02*
X140450000Y-52800000D01*
D11*
X176450000Y-30400000D02*
X140450000Y-30400000D01*
D10*
X180450000Y-61000000D02*
X216450000Y-61000000D01*
X56450000Y-73200000D02*
X51925000Y-73200000D01*
D11*
X96450000Y-30400000D02*
X60450000Y-30400000D01*
X39275000Y-76350000D02*
X47275000Y-76350000D01*
X229625000Y-66500000D02*
X237625000Y-66500000D01*
D10*
X60450000Y-91600000D02*
X96450000Y-91600000D01*
X216450000Y-73200000D02*
X180450000Y-73200000D01*
D11*
X225400000Y-91600000D02*
X224975000Y-91600000D01*
D10*
X229621447Y-81903553D02*
G75*
G03*
X229121447Y-81403553I-500001J-1D01*
G01*
D11*
X57450000Y-162400000D02*
X36270000Y-162410000D01*
D10*
X140450000Y-71200000D02*
X176450000Y-71200000D01*
X47778553Y-112003553D02*
X56450000Y-112000000D01*
X100450000Y-112000000D02*
X136450000Y-112000000D01*
X96450000Y-40600000D02*
X60450000Y-40600000D01*
D11*
X229621447Y-93096447D02*
X229625000Y-88450000D01*
D10*
X47278553Y-82896447D02*
G75*
G03*
X47778553Y-83396447I500001J1D01*
G01*
X100450000Y-160400000D02*
X136450000Y-160400000D01*
X51500000Y-61000000D02*
X56450000Y-61000000D01*
X96450000Y-103800000D02*
X60450000Y-103800000D01*
X47778553Y-42596447D02*
X56450000Y-42600000D01*
X136450000Y-52800000D02*
X100450000Y-52800000D01*
D11*
X39275000Y-137550000D02*
X47275000Y-137550000D01*
X244600000Y-132400000D02*
X244620000Y-32400000D01*
D10*
X225400000Y-83400000D02*
X220450000Y-83400000D01*
X176450000Y-103800000D02*
X140450000Y-103800000D01*
D11*
X39275000Y-98300000D02*
X39275000Y-117150000D01*
X140450000Y-162400000D02*
X167780000Y-162400000D01*
D10*
X96450000Y-122200000D02*
X60450000Y-122200000D01*
X60450000Y-132400000D02*
X96450000Y-132400000D01*
X47778553Y-91603553D02*
X56450000Y-91600000D01*
X176450000Y-73200000D02*
X140450000Y-73200000D01*
D11*
X39275000Y-55950000D02*
X47275000Y-55950000D01*
X165778965Y-136400000D02*
G75*
G03*
X163778965Y-134400000I-1999999J1D01*
G01*
D10*
X60450000Y-73200000D02*
X96450000Y-73200000D01*
X229121447Y-101803553D02*
X220450000Y-101800000D01*
D11*
X228120000Y-25250000D02*
G75*
G03*
X227620000Y-25750000I1J-500001D01*
G01*
X180450000Y-160400000D02*
X216450000Y-160400000D01*
X229625000Y-46100000D02*
X229621447Y-41103553D01*
X47275000Y-57500000D02*
X47278553Y-62496447D01*
X237625000Y-46100000D02*
X237625000Y-27250000D01*
X225400000Y-63000000D02*
X225400000Y-71200000D01*
X220450000Y-160400000D02*
X240600000Y-160400000D01*
D10*
X96450000Y-63000000D02*
X60450000Y-63000000D01*
D11*
X229625000Y-86900000D02*
X229621447Y-81903553D01*
X225400000Y-50800000D02*
X224975000Y-50800000D01*
D10*
X229121447Y-93596447D02*
X220450000Y-93600000D01*
X96450000Y-134400000D02*
X60450000Y-134400000D01*
X100450000Y-40600000D02*
X136450000Y-40600000D01*
D11*
X244600000Y-134400000D02*
X244600000Y-160400000D01*
D10*
X96450000Y-61000000D02*
X60450000Y-61000000D01*
D11*
X51500000Y-114000000D02*
X51925000Y-114000000D01*
X237625000Y-66500000D02*
X237625000Y-47650000D01*
X36270000Y-160410000D02*
X37280000Y-160410000D01*
D10*
X216450000Y-71200000D02*
X180450000Y-71200000D01*
X47278553Y-62496447D02*
G75*
G03*
X47778553Y-62996447I500001J1D01*
G01*
X163778965Y-134400000D02*
X140450000Y-134400000D01*
X60450000Y-50800000D02*
X96450000Y-50800000D01*
D11*
X229621447Y-52296447D02*
X229625000Y-47650000D01*
D10*
X136450000Y-114000000D02*
X100450000Y-114000000D01*
D11*
X39275000Y-118700000D02*
X39275000Y-137550000D01*
X51500000Y-32400000D02*
X51925000Y-32400000D01*
D10*
X47778553Y-62996447D02*
X56450000Y-63000000D01*
X229121447Y-122203553D02*
X220450000Y-122200000D01*
X56450000Y-52800000D02*
X51925000Y-52800000D01*
X180450000Y-101800000D02*
X216450000Y-101800000D01*
D11*
X240630000Y-32400000D02*
X239620000Y-32400000D01*
D10*
X180450000Y-103800000D02*
X216450000Y-103800000D01*
D11*
X237625000Y-108850000D02*
X229625000Y-108850000D01*
D10*
X96450000Y-42600000D02*
X60450000Y-42600000D01*
D11*
X47275000Y-77900000D02*
X39275000Y-77900000D01*
X32275000Y-172400000D02*
X32270000Y-162410000D01*
X229621447Y-72696447D02*
X229625000Y-68050000D01*
D10*
X216450000Y-93600000D02*
X180450000Y-93600000D01*
X176450000Y-32400000D02*
X140450000Y-32400000D01*
D11*
X180450000Y-162400000D02*
X216450000Y-162400000D01*
X225400000Y-103800000D02*
X225400000Y-112000000D01*
D10*
X140450000Y-112000000D02*
X176450000Y-112000000D01*
D11*
X47275000Y-57500000D02*
X39275000Y-57500000D01*
D10*
X176450000Y-63000000D02*
X140450000Y-63000000D01*
X51500000Y-122200000D02*
X56450000Y-122200000D01*
X96450000Y-124200000D02*
X60450000Y-124200000D01*
D11*
X229625000Y-127700000D02*
X229621447Y-122703553D01*
X240620000Y-30400000D02*
X239620000Y-30400000D01*
D10*
X229121447Y-73196447D02*
X220450000Y-73200000D01*
X136450000Y-103800000D02*
X100450000Y-103800000D01*
D11*
X176450000Y-162400000D02*
X167780000Y-162400000D01*
X225400000Y-83400000D02*
X225400000Y-91600000D01*
X39275000Y-37100000D02*
X39275000Y-55950000D01*
D10*
X176450000Y-114000000D02*
X140450000Y-114000000D01*
X220450000Y-112000000D02*
X224975000Y-112000000D01*
X47278553Y-103296447D02*
G75*
G03*
X47778553Y-103796447I500001J1D01*
G01*
D11*
X229625000Y-86900000D02*
X237625000Y-86900000D01*
D10*
X229121447Y-32396447D02*
G75*
G03*
X229621447Y-31896447I-1J500001D01*
G01*
D11*
X220450000Y-30400000D02*
X227620000Y-30400000D01*
D10*
X140450000Y-50800000D02*
X176450000Y-50800000D01*
X100450000Y-91600000D02*
X136450000Y-91600000D01*
D11*
X37280000Y-160410000D02*
X37280000Y-32400000D01*
X240600000Y-132400000D02*
X239620000Y-132400000D01*
D10*
X216450000Y-52800000D02*
X180450000Y-52800000D01*
X229121447Y-113996447D02*
G75*
G03*
X229621447Y-113496447I-1J500001D01*
G01*
D11*
X237625000Y-27250000D02*
X229625000Y-27250000D01*
D10*
X51500000Y-81400000D02*
X56450000Y-81400000D01*
X225400000Y-124200000D02*
X220450000Y-124200000D01*
X136450000Y-63000000D02*
X100450000Y-63000000D01*
D11*
X51500000Y-93600000D02*
X51925000Y-93600000D01*
D10*
X47778553Y-103796447D02*
X56450000Y-103800000D01*
D11*
X220450000Y-134400000D02*
X239620000Y-134400000D01*
D10*
X229621447Y-102303553D02*
G75*
G03*
X229121447Y-101803553I-500001J-1D01*
G01*
D11*
X239620000Y-132400000D02*
X239620000Y-32400000D01*
D10*
X176450000Y-42600000D02*
X140450000Y-42600000D01*
D11*
X229625000Y-46100000D02*
X237625000Y-46100000D01*
D10*
X50450000Y-160400000D02*
X57450000Y-160400000D01*
D11*
X61450000Y-162400000D02*
X96450000Y-162400000D01*
D10*
X140450000Y-61000000D02*
X176450000Y-61000000D01*
X220450000Y-50800000D02*
X224975000Y-50800000D01*
D11*
X47275000Y-118700000D02*
X39275000Y-118700000D01*
X51500000Y-40600000D02*
X51500000Y-32400000D01*
D10*
X140450000Y-101800000D02*
X176450000Y-101800000D01*
D11*
X32270000Y-160410000D02*
X32280000Y-32400000D01*
X244630000Y-172400000D02*
X32275000Y-172400000D01*
D10*
X180450000Y-81400000D02*
X216450000Y-81400000D01*
D11*
X237625000Y-47650000D02*
X229625000Y-47650000D01*
X51500000Y-101800000D02*
X51500000Y-93600000D01*
X216450000Y-30400000D02*
X180450000Y-30400000D01*
D10*
X229621447Y-41103553D02*
G75*
G03*
X229121447Y-40603553I-500001J-1D01*
G01*
X56450000Y-134400000D02*
X48450000Y-134400000D01*
D11*
X244620000Y-30400000D02*
X244625000Y-20250000D01*
X229625000Y-127700000D02*
X237625000Y-127700000D01*
X176450000Y-160400000D02*
X167780000Y-160400000D01*
D10*
X47778553Y-91603553D02*
G75*
G03*
X47278553Y-92103553I1J-500001D01*
G01*
D11*
X237625000Y-68050000D02*
X229625000Y-68050000D01*
D10*
X47278553Y-123696447D02*
G75*
G03*
X47778553Y-124196447I500001J1D01*
G01*
D11*
X47278553Y-51303553D02*
X47275000Y-55950000D01*
X47275000Y-77900000D02*
X47278553Y-82896447D01*
D10*
X51500000Y-40600000D02*
X56450000Y-40600000D01*
X229621447Y-61503553D02*
G75*
G03*
X229121447Y-61003553I-500001J-1D01*
G01*
X100450000Y-132400000D02*
X136450000Y-132400000D01*
X136450000Y-134400000D02*
X100450000Y-134400000D01*
X216450000Y-132400000D02*
X180450000Y-132400000D01*
X60450000Y-93600000D02*
X96450000Y-93600000D01*
D11*
X47275000Y-98300000D02*
X39275000Y-98300000D01*
D10*
X140450000Y-132400000D02*
X176450000Y-132400000D01*
D11*
X51500000Y-81400000D02*
X51500000Y-73200000D01*
D10*
X136450000Y-93600000D02*
X100450000Y-93600000D01*
X47778553Y-71203553D02*
G75*
G03*
X47278553Y-71703553I1J-500001D01*
G01*
X220450000Y-91600000D02*
X224975000Y-91600000D01*
X229121447Y-73196447D02*
G75*
G03*
X229621447Y-72696447I-1J500001D01*
G01*
X56450000Y-114000000D02*
X51925000Y-114000000D01*
D11*
X244630000Y-172400000D02*
X244600000Y-162400000D01*
D10*
X47778553Y-124196447D02*
X56450000Y-124200000D01*
X229121447Y-113996447D02*
X220450000Y-114000000D01*
X229121447Y-61003553D02*
X220450000Y-61000000D01*
D11*
X36280000Y-32400000D02*
X37280000Y-32400000D01*
X47275000Y-37100000D02*
X47278553Y-42096447D01*
D10*
X96450000Y-83400000D02*
X60450000Y-83400000D01*
D11*
X39275000Y-117150000D02*
X47275000Y-117150000D01*
D10*
X60450000Y-52800000D02*
X96450000Y-52800000D01*
D11*
X227620000Y-25750000D02*
X227620000Y-30400000D01*
D10*
X47778553Y-112003553D02*
G75*
G03*
X47278553Y-112503553I1J-500001D01*
G01*
D11*
X165778965Y-136400000D02*
X165778965Y-149358446D01*
D10*
X47778553Y-50803553D02*
G75*
G03*
X47278553Y-51303553I1J-500001D01*
G01*
D11*
X229621447Y-113496447D02*
X229625000Y-108850000D01*
D10*
X140450000Y-81400000D02*
X176450000Y-81400000D01*
D11*
X167780000Y-134400000D02*
X167780000Y-160400000D01*
D10*
X176450000Y-124200000D02*
X140450000Y-124200000D01*
X100450000Y-71200000D02*
X136450000Y-71200000D01*
X47778553Y-83396447D02*
X56450000Y-83400000D01*
X176450000Y-93600000D02*
X140450000Y-93600000D01*
D11*
X225400000Y-71200000D02*
X224975000Y-71200000D01*
X48450000Y-158400000D02*
G75*
G03*
X50450000Y-160400000I1999999J-1D01*
G01*
X51500000Y-122200000D02*
X51500000Y-114000000D01*
X47278553Y-112503553D02*
X47275000Y-117150000D01*
X239620000Y-30400000D02*
X239620000Y-25750000D01*
X225400000Y-124200000D02*
X225400000Y-132400000D01*
D10*
X136450000Y-124200000D02*
X100450000Y-124200000D01*
X96450000Y-101800000D02*
X60450000Y-101800000D01*
D11*
X228120000Y-25250000D02*
X239120000Y-25250000D01*
X39275000Y-96750000D02*
X47275000Y-96750000D01*
X237625000Y-88450000D02*
X229625000Y-88450000D01*
X39275000Y-77900000D02*
X39275000Y-96750000D01*
D10*
X47778553Y-50803553D02*
X56450000Y-50800000D01*
X47778553Y-132403553D02*
G75*
G03*
X47278553Y-132903553I1J-500001D01*
G01*
D11*
X51500000Y-52800000D02*
X51925000Y-52800000D01*
X51500000Y-73200000D02*
X51925000Y-73200000D01*
D10*
X100450000Y-50800000D02*
X136450000Y-50800000D01*
X136450000Y-32400000D02*
X100450000Y-32400000D01*
X229121447Y-52796447D02*
G75*
G03*
X229621447Y-52296447I-1J500001D01*
G01*
X51500000Y-101800000D02*
X56450000Y-101800000D01*
X140450000Y-91600000D02*
X176450000Y-91600000D01*
D11*
X229625000Y-66500000D02*
X229621447Y-61503553D01*
D10*
X216450000Y-32400000D02*
X180450000Y-32400000D01*
X96450000Y-81400000D02*
X60450000Y-81400000D01*
X229121447Y-52796447D02*
X220450000Y-52800000D01*
D11*
X47275000Y-37100000D02*
X39275000Y-37100000D01*
D10*
X136450000Y-83400000D02*
X100450000Y-83400000D01*
X180450000Y-124200000D02*
X216450000Y-124200000D01*
D11*
X165778965Y-149358446D02*
X165778965Y-158400000D01*
X163778965Y-160400000D02*
G75*
G03*
X165778965Y-158400000I1J1999999D01*
G01*
D10*
X60450000Y-114000000D02*
X96450000Y-114000000D01*
X225400000Y-63000000D02*
X220450000Y-63000000D01*
D11*
X237625000Y-107300000D02*
X237625000Y-88450000D01*
D10*
X100450000Y-122200000D02*
X136450000Y-122200000D01*
D11*
X51500000Y-61000000D02*
X51500000Y-52800000D01*
D10*
X229121447Y-40603553D02*
X220450000Y-40600000D01*
D11*
X239620000Y-25750000D02*
G75*
G03*
X239120000Y-25250000I-500001J-1D01*
G01*
X47278553Y-92103553D02*
X47275000Y-96750000D01*
D10*
X216450000Y-91600000D02*
X180450000Y-91600000D01*
X229121447Y-32396447D02*
X220450000Y-32400000D01*
X56450000Y-32400000D02*
X51925000Y-32400000D01*
X220450000Y-132400000D02*
X224975000Y-132400000D01*
D11*
X229625000Y-107300000D02*
X229621447Y-102303553D01*
X240600000Y-134400000D02*
X239620000Y-134400000D01*
X48450000Y-134400000D02*
X48450000Y-158400000D01*
D10*
X180450000Y-122200000D02*
X216450000Y-122200000D01*
X47778553Y-132403553D02*
X56450000Y-132400000D01*
X225400000Y-42600000D02*
X220450000Y-42600000D01*
D11*
X47275000Y-98300000D02*
X47278553Y-103296447D01*
D10*
X220450000Y-71200000D02*
X224975000Y-71200000D01*
D11*
X176450000Y-134400000D02*
X167780000Y-134400000D01*
D10*
X180450000Y-42600000D02*
X216450000Y-42600000D01*
X140450000Y-122200000D02*
X176450000Y-122200000D01*
D11*
X229621447Y-31896447D02*
X229625000Y-27250000D01*
D10*
X140450000Y-160400000D02*
X163778965Y-160400000D01*
D11*
X225400000Y-112000000D02*
X224975000Y-112000000D01*
D10*
X229121447Y-93596447D02*
G75*
G03*
X229621447Y-93096447I-1J500001D01*
G01*
D11*
X225400000Y-42600000D02*
X225400000Y-50800000D01*
X56450000Y-30400000D02*
X36280000Y-30400000D01*
D10*
X47778553Y-71203553D02*
X56450000Y-71200000D01*
D11*
X244625000Y-20250000D02*
X32275000Y-20250000D01*
D10*
X61450000Y-160400000D02*
X96450000Y-160400000D01*
D11*
X237625000Y-86900000D02*
X237625000Y-68050000D01*
X47275000Y-118700000D02*
X47278553Y-123696447D01*
D10*
X225400000Y-103800000D02*
X220450000Y-103800000D01*
X100450000Y-101800000D02*
X136450000Y-101800000D01*
D11*
X237625000Y-127700000D02*
X237625000Y-108850000D01*
D10*
X229121447Y-81403553D02*
X220450000Y-81400000D01*
X216450000Y-114000000D02*
X180450000Y-114000000D01*
X216450000Y-112000000D02*
X180450000Y-112000000D01*
X47278553Y-42096447D02*
G75*
G03*
X47778553Y-42596447I500001J1D01*
G01*
X60450000Y-112000000D02*
X96450000Y-112000000D01*
D11*
X180450000Y-134400000D02*
X216450000Y-134400000D01*
D10*
X140450000Y-40600000D02*
X176450000Y-40600000D01*
D12*
X60450000Y-61000000D02*
G75*
G03*
X60450000Y-63000000I0J-1000000D01*
G01*
X56450000Y-63000000D02*
G75*
G03*
X56450000Y-61000000I0J1000000D01*
G01*
X240600000Y-162400000D02*
G75*
G03*
X240600000Y-160400000I0J1000000D01*
G01*
X244600000Y-160400000D02*
G75*
G03*
X244600000Y-162400000I0J-1000000D01*
G01*
X180450000Y-30400000D02*
G75*
G03*
X180450000Y-32400000I0J-1000000D01*
G01*
X176450000Y-32400000D02*
G75*
G03*
X176450000Y-30400000I0J1000000D01*
G01*
X32270000Y-162410000D02*
G75*
G03*
X32270000Y-160410000I0J1000000D01*
G01*
X36270000Y-160410000D02*
G75*
G03*
X36270000Y-162410000I0J-1000000D01*
G01*
X140450000Y-81400000D02*
G75*
G03*
X140450000Y-83400000I0J-1000000D01*
G01*
X136450000Y-83400000D02*
G75*
G03*
X136450000Y-81400000I0J1000000D01*
G01*
X176450000Y-83400000D02*
G75*
G03*
X176450000Y-81400000I0J1000000D01*
G01*
X180450000Y-81400000D02*
G75*
G03*
X180450000Y-83400000I0J-1000000D01*
G01*
X180450000Y-71200000D02*
G75*
G03*
X180450000Y-73200000I0J-1000000D01*
G01*
X176450000Y-73200000D02*
G75*
G03*
X176450000Y-71200000I0J1000000D01*
G01*
X216450000Y-52800000D02*
G75*
G03*
X216450000Y-50800000I0J1000000D01*
G01*
X220450000Y-50800000D02*
G75*
G03*
X220450000Y-52800000I0J-1000000D01*
G01*
X216450000Y-134400000D02*
G75*
G03*
X216450000Y-132400000I0J1000000D01*
G01*
X220450000Y-132400000D02*
G75*
G03*
X220450000Y-134400000I0J-1000000D01*
G01*
X96450000Y-52800000D02*
G75*
G03*
X96450000Y-50800000I0J1000000D01*
G01*
X100450000Y-50800000D02*
G75*
G03*
X100450000Y-52800000I0J-1000000D01*
G01*
X60450000Y-40600000D02*
G75*
G03*
X60450000Y-42600000I0J-1000000D01*
G01*
X56450000Y-42600000D02*
G75*
G03*
X56450000Y-40600000I0J1000000D01*
G01*
X244620000Y-30400000D02*
G75*
G03*
X244620000Y-32400000I0J-1000000D01*
G01*
X240620000Y-32400000D02*
G75*
G03*
X240620000Y-30400000I0J1000000D01*
G01*
X220450000Y-160400000D02*
G75*
G03*
X220450000Y-162400000I0J-1000000D01*
G01*
X216450000Y-162400000D02*
G75*
G03*
X216450000Y-160400000I0J1000000D01*
G01*
X176450000Y-134400000D02*
G75*
G03*
X176450000Y-132400000I0J1000000D01*
G01*
X180450000Y-132400000D02*
G75*
G03*
X180450000Y-134400000I0J-1000000D01*
G01*
X220450000Y-30400000D02*
G75*
G03*
X220450000Y-32400000I0J-1000000D01*
G01*
X216450000Y-32400000D02*
G75*
G03*
X216450000Y-30400000I0J1000000D01*
G01*
X100450000Y-91600000D02*
G75*
G03*
X100450000Y-93600000I0J-1000000D01*
G01*
X96450000Y-93600000D02*
G75*
G03*
X96450000Y-91600000I0J1000000D01*
G01*
X32280000Y-32400000D02*
G75*
G03*
X32280000Y-30400000I0J1000000D01*
G01*
X36280000Y-30400000D02*
G75*
G03*
X36280000Y-32400000I0J-1000000D01*
G01*
X136450000Y-32400000D02*
G75*
G03*
X136450000Y-30400000I0J1000000D01*
G01*
X140450000Y-30400000D02*
G75*
G03*
X140450000Y-32400000I0J-1000000D01*
G01*
X176450000Y-124200000D02*
G75*
G03*
X176450000Y-122200000I0J1000000D01*
G01*
X180450000Y-122200000D02*
G75*
G03*
X180450000Y-124200000I0J-1000000D01*
G01*
X96450000Y-63000000D02*
G75*
G03*
X96450000Y-61000000I0J1000000D01*
G01*
X100450000Y-61000000D02*
G75*
G03*
X100450000Y-63000000I0J-1000000D01*
G01*
X216450000Y-103800000D02*
G75*
G03*
X216450000Y-101800000I0J1000000D01*
G01*
X220450000Y-101800000D02*
G75*
G03*
X220450000Y-103800000I0J-1000000D01*
G01*
X60450000Y-112000000D02*
G75*
G03*
X60450000Y-114000000I0J-1000000D01*
G01*
X56450000Y-114000000D02*
G75*
G03*
X56450000Y-112000000I0J1000000D01*
G01*
X176450000Y-63000000D02*
G75*
G03*
X176450000Y-61000000I0J1000000D01*
G01*
X180450000Y-61000000D02*
G75*
G03*
X180450000Y-63000000I0J-1000000D01*
G01*
X136450000Y-63000000D02*
G75*
G03*
X136450000Y-61000000I0J1000000D01*
G01*
X140450000Y-61000000D02*
G75*
G03*
X140450000Y-63000000I0J-1000000D01*
G01*
X220450000Y-71200000D02*
G75*
G03*
X220450000Y-73200000I0J-1000000D01*
G01*
X216450000Y-73200000D02*
G75*
G03*
X216450000Y-71200000I0J1000000D01*
G01*
X140450000Y-91600000D02*
G75*
G03*
X140450000Y-93600000I0J-1000000D01*
G01*
X136450000Y-93600000D02*
G75*
G03*
X136450000Y-91600000I0J1000000D01*
G01*
X136450000Y-42600000D02*
G75*
G03*
X136450000Y-40600000I0J1000000D01*
G01*
X140450000Y-40600000D02*
G75*
G03*
X140450000Y-42600000I0J-1000000D01*
G01*
X220450000Y-122200000D02*
G75*
G03*
X220450000Y-124200000I0J-1000000D01*
G01*
X216450000Y-124200000D02*
G75*
G03*
X216450000Y-122200000I0J1000000D01*
G01*
X140450000Y-132400000D02*
G75*
G03*
X140450000Y-134400000I0J-1000000D01*
G01*
X136450000Y-134400000D02*
G75*
G03*
X136450000Y-132400000I0J1000000D01*
G01*
X176450000Y-93600000D02*
G75*
G03*
X176450000Y-91600000I0J1000000D01*
G01*
X180450000Y-91600000D02*
G75*
G03*
X180450000Y-93600000I0J-1000000D01*
G01*
X216450000Y-83400000D02*
G75*
G03*
X216450000Y-81400000I0J1000000D01*
G01*
X220450000Y-81400000D02*
G75*
G03*
X220450000Y-83400000I0J-1000000D01*
G01*
X176450000Y-114000000D02*
G75*
G03*
X176450000Y-112000000I0J1000000D01*
G01*
X180450000Y-112000000D02*
G75*
G03*
X180450000Y-114000000I0J-1000000D01*
G01*
X100450000Y-40600000D02*
G75*
G03*
X100450000Y-42600000I0J-1000000D01*
G01*
X96450000Y-42600000D02*
G75*
G03*
X96450000Y-40600000I0J1000000D01*
G01*
X220450000Y-61000000D02*
G75*
G03*
X220450000Y-63000000I0J-1000000D01*
G01*
X216450000Y-63000000D02*
G75*
G03*
X216450000Y-61000000I0J1000000D01*
G01*
X60450000Y-50800000D02*
G75*
G03*
X60450000Y-52800000I0J-1000000D01*
G01*
X56450000Y-52800000D02*
G75*
G03*
X56450000Y-50800000I0J1000000D01*
G01*
X136450000Y-52800000D02*
G75*
G03*
X136450000Y-50800000I0J1000000D01*
G01*
X140450000Y-50800000D02*
G75*
G03*
X140450000Y-52800000I0J-1000000D01*
G01*
X100450000Y-132400000D02*
G75*
G03*
X100450000Y-134400000I0J-1000000D01*
G01*
X96450000Y-134400000D02*
G75*
G03*
X96450000Y-132400000I0J1000000D01*
G01*
X140450000Y-112000000D02*
G75*
G03*
X140450000Y-114000000I0J-1000000D01*
G01*
X136450000Y-114000000D02*
G75*
G03*
X136450000Y-112000000I0J1000000D01*
G01*
X100450000Y-30400000D02*
G75*
G03*
X100450000Y-32400000I0J-1000000D01*
G01*
X96450000Y-32400000D02*
G75*
G03*
X96450000Y-30400000I0J1000000D01*
G01*
X216450000Y-42600000D02*
G75*
G03*
X216450000Y-40600000I0J1000000D01*
G01*
X220450000Y-40600000D02*
G75*
G03*
X220450000Y-42600000I0J-1000000D01*
G01*
X96450000Y-124200000D02*
G75*
G03*
X96450000Y-122200000I0J1000000D01*
G01*
X100450000Y-122200000D02*
G75*
G03*
X100450000Y-124200000I0J-1000000D01*
G01*
X56450000Y-134400000D02*
G75*
G03*
X56450000Y-132400000I0J1000000D01*
G01*
X60450000Y-132400000D02*
G75*
G03*
X60450000Y-134400000I0J-1000000D01*
G01*
X60450000Y-30400000D02*
G75*
G03*
X60450000Y-32400000I0J-1000000D01*
G01*
X56450000Y-32400000D02*
G75*
G03*
X56450000Y-30400000I0J1000000D01*
G01*
X140450000Y-101800000D02*
G75*
G03*
X140450000Y-103800000I0J-1000000D01*
G01*
X136450000Y-103800000D02*
G75*
G03*
X136450000Y-101800000I0J1000000D01*
G01*
X136450000Y-73200000D02*
G75*
G03*
X136450000Y-71200000I0J1000000D01*
G01*
X140450000Y-71200000D02*
G75*
G03*
X140450000Y-73200000I0J-1000000D01*
G01*
X60450000Y-71200000D02*
G75*
G03*
X60450000Y-73200000I0J-1000000D01*
G01*
X56450000Y-73200000D02*
G75*
G03*
X56450000Y-71200000I0J1000000D01*
G01*
X96450000Y-103800000D02*
G75*
G03*
X96450000Y-101800000I0J1000000D01*
G01*
X100450000Y-101800000D02*
G75*
G03*
X100450000Y-103800000I0J-1000000D01*
G01*
X100450000Y-112000000D02*
G75*
G03*
X100450000Y-114000000I0J-1000000D01*
G01*
X96450000Y-114000000D02*
G75*
G03*
X96450000Y-112000000I0J1000000D01*
G01*
X96450000Y-83400000D02*
G75*
G03*
X96450000Y-81400000I0J1000000D01*
G01*
X100450000Y-81400000D02*
G75*
G03*
X100450000Y-83400000I0J-1000000D01*
G01*
X100450000Y-160400000D02*
G75*
G03*
X100450000Y-162400000I0J-1000000D01*
G01*
X96450000Y-162400000D02*
G75*
G03*
X96450000Y-160400000I0J1000000D01*
G01*
X136450000Y-124200000D02*
G75*
G03*
X136450000Y-122200000I0J1000000D01*
G01*
X140450000Y-122200000D02*
G75*
G03*
X140450000Y-124200000I0J-1000000D01*
G01*
X180450000Y-101800000D02*
G75*
G03*
X180450000Y-103800000I0J-1000000D01*
G01*
X176450000Y-103800000D02*
G75*
G03*
X176450000Y-101800000I0J1000000D01*
G01*
X180450000Y-50800000D02*
G75*
G03*
X180450000Y-52800000I0J-1000000D01*
G01*
X176450000Y-52800000D02*
G75*
G03*
X176450000Y-50800000I0J1000000D01*
G01*
X176450000Y-42600000D02*
G75*
G03*
X176450000Y-40600000I0J1000000D01*
G01*
X180450000Y-40600000D02*
G75*
G03*
X180450000Y-42600000I0J-1000000D01*
G01*
X180450000Y-160400000D02*
G75*
G03*
X180450000Y-162400000I0J-1000000D01*
G01*
X176450000Y-162400000D02*
G75*
G03*
X176450000Y-160400000I0J1000000D01*
G01*
X56450000Y-93600000D02*
G75*
G03*
X56450000Y-91600000I0J1000000D01*
G01*
X60450000Y-91600000D02*
G75*
G03*
X60450000Y-93600000I0J-1000000D01*
G01*
X140450000Y-160400000D02*
G75*
G03*
X140450000Y-162400000I0J-1000000D01*
G01*
X136450000Y-162400000D02*
G75*
G03*
X136450000Y-160400000I0J1000000D01*
G01*
X220450000Y-91600000D02*
G75*
G03*
X220450000Y-93600000I0J-1000000D01*
G01*
X216450000Y-93600000D02*
G75*
G03*
X216450000Y-91600000I0J1000000D01*
G01*
X56450000Y-103800000D02*
G75*
G03*
X56450000Y-101800000I0J1000000D01*
G01*
X60450000Y-101800000D02*
G75*
G03*
X60450000Y-103800000I0J-1000000D01*
G01*
X96450000Y-73200000D02*
G75*
G03*
X96450000Y-71200000I0J1000000D01*
G01*
X100450000Y-71200000D02*
G75*
G03*
X100450000Y-73200000I0J-1000000D01*
G01*
X244600000Y-132400000D02*
G75*
G03*
X244600000Y-134400000I0J-1000000D01*
G01*
X240600000Y-134400000D02*
G75*
G03*
X240600000Y-132400000I0J1000000D01*
G01*
X56450000Y-124200000D02*
G75*
G03*
X56450000Y-122200000I0J1000000D01*
G01*
X60450000Y-122200000D02*
G75*
G03*
X60450000Y-124200000I0J-1000000D01*
G01*
X57450000Y-162400000D02*
G75*
G03*
X57450000Y-160400000I0J1000000D01*
G01*
X61450000Y-160400000D02*
G75*
G03*
X61450000Y-162400000I0J-1000000D01*
G01*
X220450000Y-112000000D02*
G75*
G03*
X220450000Y-114000000I0J-1000000D01*
G01*
X216450000Y-114000000D02*
G75*
G03*
X216450000Y-112000000I0J1000000D01*
G01*
X60450000Y-81400000D02*
G75*
G03*
X60450000Y-83400000I0J-1000000D01*
G01*
X56450000Y-83400000D02*
G75*
G03*
X56450000Y-81400000I0J1000000D01*
G01*
M02*
