M48
; DRILL file {KiCad (6.0.2)} date Wed Aug 31 10:54:55 2022
; FORMAT={-:-/ absolute / metric / decimal}
; #@! TF.CreationDate,2022-08-31T10:54:55+12:00
; #@! TF.GenerationSoftware,Kicad,Pcbnew,(6.0.2)
; #@! TF.FileFunction,NonPlated,1,4,NPTH
FMAT,2
METRIC
; #@! TA.AperFunction,NonPlated,NPTH,ComponentDrill
T1C0.400
; #@! TA.AperFunction,NonPlated,NPTH,ComponentDrill
T2C0.600
; #@! TA.AperFunction,NonPlated,NPTH,ComponentDrill
T3C1.152
; #@! TA.AperFunction,NonPlated,NPTH,ComponentDrill
T4C2.500
%
G90
G05
T1
X33.22Y-160.41
X33.23Y-32.4
X33.92Y-160.41
X33.93Y-32.4
X34.62Y-160.41
X34.63Y-32.4
X35.32Y-160.41
X35.33Y-32.4
X57.4Y-32.4
X57.4Y-40.6
X57.4Y-42.6
X57.4Y-50.8
X57.4Y-52.8
X57.4Y-61.0
X57.4Y-63.0
X57.4Y-71.2
X57.4Y-73.2
X57.4Y-81.4
X57.4Y-83.4
X57.4Y-91.6
X57.4Y-93.6
X57.4Y-101.8
X57.4Y-103.8
X57.4Y-112.0
X57.4Y-114.0
X57.4Y-122.2
X57.4Y-124.2
X57.4Y-132.4
X57.4Y-134.4
X58.1Y-32.4
X58.1Y-40.6
X58.1Y-42.6
X58.1Y-50.8
X58.1Y-52.8
X58.1Y-61.0
X58.1Y-63.0
X58.1Y-71.2
X58.1Y-73.2
X58.1Y-81.4
X58.1Y-83.4
X58.1Y-91.6
X58.1Y-93.6
X58.1Y-101.8
X58.1Y-103.8
X58.1Y-112.0
X58.1Y-114.0
X58.1Y-122.2
X58.1Y-124.2
X58.1Y-132.4
X58.1Y-134.4
X58.4Y-160.4
X58.8Y-32.4
X58.8Y-40.6
X58.8Y-42.6
X58.8Y-50.8
X58.8Y-52.8
X58.8Y-61.0
X58.8Y-63.0
X58.8Y-71.2
X58.8Y-73.2
X58.8Y-81.4
X58.8Y-83.4
X58.8Y-91.6
X58.8Y-93.6
X58.8Y-101.8
X58.8Y-103.8
X58.8Y-112.0
X58.8Y-114.0
X58.8Y-122.2
X58.8Y-124.2
X58.8Y-132.4
X58.8Y-134.4
X59.1Y-160.4
X59.5Y-32.4
X59.5Y-40.6
X59.5Y-42.6
X59.5Y-50.8
X59.5Y-52.8
X59.5Y-61.0
X59.5Y-63.0
X59.5Y-71.2
X59.5Y-73.2
X59.5Y-81.4
X59.5Y-83.4
X59.5Y-91.6
X59.5Y-93.6
X59.5Y-101.8
X59.5Y-103.8
X59.5Y-112.0
X59.5Y-114.0
X59.5Y-122.2
X59.5Y-124.2
X59.5Y-132.4
X59.5Y-134.4
X59.8Y-160.4
X60.5Y-160.4
X97.4Y-32.4
X97.4Y-40.6
X97.4Y-42.6
X97.4Y-50.8
X97.4Y-52.8
X97.4Y-61.0
X97.4Y-63.0
X97.4Y-71.2
X97.4Y-73.2
X97.4Y-81.4
X97.4Y-83.4
X97.4Y-91.6
X97.4Y-93.6
X97.4Y-101.8
X97.4Y-103.8
X97.4Y-112.0
X97.4Y-114.0
X97.4Y-122.2
X97.4Y-124.2
X97.4Y-132.4
X97.4Y-134.4
X97.4Y-160.4
X98.1Y-32.4
X98.1Y-40.6
X98.1Y-42.6
X98.1Y-50.8
X98.1Y-52.8
X98.1Y-61.0
X98.1Y-63.0
X98.1Y-71.2
X98.1Y-73.2
X98.1Y-81.4
X98.1Y-83.4
X98.1Y-91.6
X98.1Y-93.6
X98.1Y-101.8
X98.1Y-103.8
X98.1Y-112.0
X98.1Y-114.0
X98.1Y-122.2
X98.1Y-124.2
X98.1Y-132.4
X98.1Y-134.4
X98.1Y-160.4
X98.8Y-32.4
X98.8Y-40.6
X98.8Y-42.6
X98.8Y-50.8
X98.8Y-52.8
X98.8Y-61.0
X98.8Y-63.0
X98.8Y-71.2
X98.8Y-73.2
X98.8Y-81.4
X98.8Y-83.4
X98.8Y-91.6
X98.8Y-93.6
X98.8Y-101.8
X98.8Y-103.8
X98.8Y-112.0
X98.8Y-114.0
X98.8Y-122.2
X98.8Y-124.2
X98.8Y-132.4
X98.8Y-134.4
X98.8Y-160.4
X99.5Y-32.4
X99.5Y-40.6
X99.5Y-42.6
X99.5Y-50.8
X99.5Y-52.8
X99.5Y-61.0
X99.5Y-63.0
X99.5Y-71.2
X99.5Y-73.2
X99.5Y-81.4
X99.5Y-83.4
X99.5Y-91.6
X99.5Y-93.6
X99.5Y-101.8
X99.5Y-103.8
X99.5Y-112.0
X99.5Y-114.0
X99.5Y-122.2
X99.5Y-124.2
X99.5Y-132.4
X99.5Y-134.4
X99.5Y-160.4
X137.4Y-32.4
X137.4Y-40.6
X137.4Y-42.6
X137.4Y-50.8
X137.4Y-52.8
X137.4Y-61.0
X137.4Y-63.0
X137.4Y-71.2
X137.4Y-73.2
X137.4Y-81.4
X137.4Y-83.4
X137.4Y-91.6
X137.4Y-93.6
X137.4Y-101.8
X137.4Y-103.8
X137.4Y-112.0
X137.4Y-114.0
X137.4Y-122.2
X137.4Y-124.2
X137.4Y-132.4
X137.4Y-134.4
X137.4Y-160.4
X138.1Y-32.4
X138.1Y-40.6
X138.1Y-42.6
X138.1Y-50.8
X138.1Y-52.8
X138.1Y-61.0
X138.1Y-63.0
X138.1Y-71.2
X138.1Y-73.2
X138.1Y-81.4
X138.1Y-83.4
X138.1Y-91.6
X138.1Y-93.6
X138.1Y-101.8
X138.1Y-103.8
X138.1Y-112.0
X138.1Y-114.0
X138.1Y-122.2
X138.1Y-124.2
X138.1Y-132.4
X138.1Y-134.4
X138.1Y-160.4
X138.8Y-32.4
X138.8Y-40.6
X138.8Y-42.6
X138.8Y-50.8
X138.8Y-52.8
X138.8Y-61.0
X138.8Y-63.0
X138.8Y-71.2
X138.8Y-73.2
X138.8Y-81.4
X138.8Y-83.4
X138.8Y-91.6
X138.8Y-93.6
X138.8Y-101.8
X138.8Y-103.8
X138.8Y-112.0
X138.8Y-114.0
X138.8Y-122.2
X138.8Y-124.2
X138.8Y-132.4
X138.8Y-134.4
X138.8Y-160.4
X139.5Y-32.4
X139.5Y-40.6
X139.5Y-42.6
X139.5Y-50.8
X139.5Y-52.8
X139.5Y-61.0
X139.5Y-63.0
X139.5Y-71.2
X139.5Y-73.2
X139.5Y-81.4
X139.5Y-83.4
X139.5Y-91.6
X139.5Y-93.6
X139.5Y-101.8
X139.5Y-103.8
X139.5Y-112.0
X139.5Y-114.0
X139.5Y-122.2
X139.5Y-124.2
X139.5Y-132.4
X139.5Y-134.4
X139.5Y-160.4
X177.4Y-32.4
X177.4Y-40.6
X177.4Y-42.6
X177.4Y-50.8
X177.4Y-52.8
X177.4Y-61.0
X177.4Y-63.0
X177.4Y-71.2
X177.4Y-73.2
X177.4Y-81.4
X177.4Y-83.4
X177.4Y-91.6
X177.4Y-93.6
X177.4Y-101.8
X177.4Y-103.8
X177.4Y-112.0
X177.4Y-114.0
X177.4Y-122.2
X177.4Y-124.2
X177.4Y-132.4
X177.4Y-162.4
X178.1Y-32.4
X178.1Y-40.6
X178.1Y-42.6
X178.1Y-50.8
X178.1Y-52.8
X178.1Y-61.0
X178.1Y-63.0
X178.1Y-71.2
X178.1Y-73.2
X178.1Y-81.4
X178.1Y-83.4
X178.1Y-91.6
X178.1Y-93.6
X178.1Y-101.8
X178.1Y-103.8
X178.1Y-112.0
X178.1Y-114.0
X178.1Y-122.2
X178.1Y-124.2
X178.1Y-132.4
X178.1Y-162.4
X178.8Y-32.4
X178.8Y-40.6
X178.8Y-42.6
X178.8Y-50.8
X178.8Y-52.8
X178.8Y-61.0
X178.8Y-63.0
X178.8Y-71.2
X178.8Y-73.2
X178.8Y-81.4
X178.8Y-83.4
X178.8Y-91.6
X178.8Y-93.6
X178.8Y-101.8
X178.8Y-103.8
X178.8Y-112.0
X178.8Y-114.0
X178.8Y-122.2
X178.8Y-124.2
X178.8Y-132.4
X178.8Y-162.4
X179.5Y-32.4
X179.5Y-40.6
X179.5Y-42.6
X179.5Y-50.8
X179.5Y-52.8
X179.5Y-61.0
X179.5Y-63.0
X179.5Y-71.2
X179.5Y-73.2
X179.5Y-81.4
X179.5Y-83.4
X179.5Y-91.6
X179.5Y-93.6
X179.5Y-101.8
X179.5Y-103.8
X179.5Y-112.0
X179.5Y-114.0
X179.5Y-122.2
X179.5Y-124.2
X179.5Y-132.4
X179.5Y-162.4
X217.4Y-32.4
X217.4Y-40.6
X217.4Y-42.6
X217.4Y-50.8
X217.4Y-52.8
X217.4Y-61.0
X217.4Y-63.0
X217.4Y-71.2
X217.4Y-73.2
X217.4Y-81.4
X217.4Y-83.4
X217.4Y-91.6
X217.4Y-93.6
X217.4Y-101.8
X217.4Y-103.8
X217.4Y-112.0
X217.4Y-114.0
X217.4Y-122.2
X217.4Y-124.2
X217.4Y-132.4
X217.4Y-162.4
X218.1Y-32.4
X218.1Y-40.6
X218.1Y-42.6
X218.1Y-50.8
X218.1Y-52.8
X218.1Y-61.0
X218.1Y-63.0
X218.1Y-71.2
X218.1Y-73.2
X218.1Y-81.4
X218.1Y-83.4
X218.1Y-91.6
X218.1Y-93.6
X218.1Y-101.8
X218.1Y-103.8
X218.1Y-112.0
X218.1Y-114.0
X218.1Y-122.2
X218.1Y-124.2
X218.1Y-132.4
X218.1Y-162.4
X218.8Y-32.4
X218.8Y-40.6
X218.8Y-42.6
X218.8Y-50.8
X218.8Y-52.8
X218.8Y-61.0
X218.8Y-63.0
X218.8Y-71.2
X218.8Y-73.2
X218.8Y-81.4
X218.8Y-83.4
X218.8Y-91.6
X218.8Y-93.6
X218.8Y-101.8
X218.8Y-103.8
X218.8Y-112.0
X218.8Y-114.0
X218.8Y-122.2
X218.8Y-124.2
X218.8Y-132.4
X218.8Y-162.4
X219.5Y-32.4
X219.5Y-40.6
X219.5Y-42.6
X219.5Y-50.8
X219.5Y-52.8
X219.5Y-61.0
X219.5Y-63.0
X219.5Y-71.2
X219.5Y-73.2
X219.5Y-81.4
X219.5Y-83.4
X219.5Y-91.6
X219.5Y-93.6
X219.5Y-101.8
X219.5Y-103.8
X219.5Y-112.0
X219.5Y-114.0
X219.5Y-122.2
X219.5Y-124.2
X219.5Y-132.4
X219.5Y-162.4
X241.55Y-132.4
X241.55Y-162.4
X241.57Y-32.4
X242.25Y-132.4
X242.25Y-162.4
X242.27Y-32.4
X242.95Y-132.4
X242.95Y-162.4
X242.97Y-32.4
X243.65Y-132.4
X243.65Y-162.4
X243.67Y-32.4
T2
X72.56Y-154.075
X78.34Y-154.075
T3
X42.5Y-25.0
X42.5Y-167.5
X222.5Y-25.0
X235.0Y-167.5
T4
X51.2Y-157.65
X92.8Y-138.75
X163.05Y-137.15
X163.05Y-157.65
T0
M30
