M48
; DRILL file {KiCad (6.0.2)} date Wed Aug 31 10:54:55 2022
; FORMAT={-:-/ absolute / metric / decimal}
; #@! TF.CreationDate,2022-08-31T10:54:55+12:00
; #@! TF.GenerationSoftware,Kicad,Pcbnew,(6.0.2)
; #@! TF.FileFunction,Plated,1,4,PTH
FMAT,2
METRIC
; #@! TA.AperFunction,Plated,PTH,ViaDrill
T1C0.300
; #@! TA.AperFunction,Plated,PTH,ViaDrill
T2C0.400
; #@! TA.AperFunction,Plated,PTH,ComponentDrill
T3C0.600
; #@! TA.AperFunction,Plated,PTH,ComponentDrill
T4C0.900
; #@! TA.AperFunction,Plated,PTH,ComponentDrill
T5C1.000
%
G90
G05
T1
X40.4Y-40.35
X40.4Y-42.35
X40.4Y-44.35
X40.4Y-46.35
X40.4Y-48.35
X40.4Y-50.35
X40.4Y-52.35
X40.4Y-60.75
X40.4Y-62.75
X40.4Y-64.75
X40.4Y-66.75
X40.4Y-68.75
X40.4Y-70.75
X40.4Y-72.75
X40.4Y-81.15
X40.4Y-83.15
X40.4Y-85.15
X40.4Y-87.15
X40.4Y-89.15
X40.4Y-91.15
X40.4Y-93.15
X40.4Y-101.55
X40.4Y-103.55
X40.4Y-105.55
X40.4Y-107.55
X40.4Y-109.55
X40.4Y-111.55
X40.4Y-113.55
X40.4Y-121.95
X40.4Y-123.95
X40.4Y-125.95
X40.4Y-127.95
X40.4Y-129.95
X40.4Y-131.95
X40.4Y-133.95
X41.4Y-41.35
X41.4Y-43.35
X41.4Y-45.35
X41.4Y-47.35
X41.4Y-49.35
X41.4Y-51.35
X41.4Y-61.75
X41.4Y-63.75
X41.4Y-65.75
X41.4Y-67.75
X41.4Y-69.75
X41.4Y-71.75
X41.4Y-82.15
X41.4Y-84.15
X41.4Y-86.15
X41.4Y-88.15
X41.4Y-90.15
X41.4Y-92.15
X41.4Y-102.55
X41.4Y-104.55
X41.4Y-106.55
X41.4Y-108.55
X41.4Y-110.55
X41.4Y-112.55
X41.4Y-122.95
X41.4Y-124.95
X41.4Y-126.95
X41.4Y-128.95
X41.4Y-130.95
X41.4Y-132.95
X42.4Y-48.35
X42.4Y-50.35
X42.4Y-68.75
X42.4Y-70.75
X42.4Y-89.15
X42.4Y-91.15
X42.4Y-109.55
X42.4Y-111.55
X42.4Y-129.95
X42.4Y-131.95
X43.275Y-41.475
X43.275Y-51.375
X43.275Y-61.875
X43.275Y-71.775
X43.275Y-82.275
X43.275Y-92.175
X43.275Y-102.675
X43.275Y-112.575
X43.275Y-123.075
X43.275Y-132.975
X44.4Y-40.35
X44.4Y-46.35
X44.4Y-52.35
X44.4Y-60.75
X44.4Y-66.75
X44.4Y-72.75
X44.4Y-81.15
X44.4Y-87.15
X44.4Y-93.15
X44.4Y-101.55
X44.4Y-107.55
X44.4Y-113.55
X44.4Y-121.95
X44.4Y-127.95
X44.4Y-133.95
X45.4Y-41.35
X45.4Y-47.35
X45.4Y-51.35
X45.4Y-61.75
X45.4Y-67.75
X45.4Y-71.75
X45.4Y-82.15
X45.4Y-88.15
X45.4Y-92.15
X45.4Y-102.55
X45.4Y-108.55
X45.4Y-112.55
X45.4Y-122.95
X45.4Y-128.95
X45.4Y-132.95
X46.4Y-40.35
X46.4Y-46.35
X46.4Y-52.35
X46.4Y-60.75
X46.4Y-66.75
X46.4Y-72.75
X46.4Y-81.15
X46.4Y-87.15
X46.4Y-93.15
X46.4Y-101.55
X46.4Y-107.55
X46.4Y-113.55
X46.4Y-121.95
X46.4Y-127.95
X46.4Y-133.95
X47.4Y-47.35
X47.4Y-67.75
X47.4Y-88.15
X47.4Y-108.55
X47.4Y-128.95
X49.4Y-43.35
X49.4Y-47.35
X49.4Y-63.75
X49.4Y-67.75
X49.4Y-84.15
X49.4Y-88.15
X49.4Y-104.55
X49.4Y-108.55
X49.4Y-124.95
X49.4Y-128.95
X50.4Y-44.35
X50.4Y-46.35
X50.4Y-64.75
X50.4Y-66.75
X50.4Y-85.15
X50.4Y-87.15
X50.4Y-105.55
X50.4Y-107.55
X50.4Y-125.95
X50.4Y-127.95
X52.4Y-46.35
X52.4Y-66.75
X52.4Y-87.15
X52.4Y-107.55
X52.4Y-127.95
X52.45Y-137.3
X52.5Y-34.85
X52.5Y-36.85
X52.5Y-55.25
X52.5Y-57.25
X52.5Y-75.65
X52.5Y-77.65
X52.5Y-96.05
X52.5Y-98.05
X52.5Y-116.45
X52.5Y-118.45
X53.4Y-43.35
X53.4Y-63.75
X53.4Y-84.15
X53.4Y-104.55
X53.4Y-124.95
X53.5Y-33.85
X53.5Y-54.25
X53.5Y-74.65
X53.5Y-95.05
X53.5Y-115.45
X54.4Y-44.35
X54.4Y-46.35
X54.4Y-48.35
X54.4Y-64.75
X54.4Y-66.75
X54.4Y-68.75
X54.4Y-85.15
X54.4Y-87.15
X54.4Y-89.15
X54.4Y-105.55
X54.4Y-107.55
X54.4Y-109.55
X54.4Y-125.95
X54.4Y-127.95
X54.4Y-129.95
X54.5Y-36.85
X54.5Y-57.25
X54.5Y-77.65
X54.5Y-98.05
X54.5Y-118.45
X55.4Y-43.35
X55.4Y-47.35
X55.4Y-63.75
X55.4Y-67.75
X55.4Y-84.15
X55.4Y-88.15
X55.4Y-104.55
X55.4Y-108.55
X55.4Y-124.95
X55.4Y-128.95
X55.5Y-33.85
X55.5Y-35.85
X55.5Y-39.85
X55.5Y-54.25
X55.5Y-56.25
X55.5Y-60.25
X55.5Y-74.65
X55.5Y-76.65
X55.5Y-80.65
X55.5Y-95.05
X55.5Y-97.05
X55.5Y-101.05
X55.5Y-115.45
X55.5Y-117.45
X55.5Y-121.45
X56.4Y-46.35
X56.4Y-66.75
X56.4Y-87.15
X56.4Y-107.55
X56.4Y-127.95
X56.5Y-38.85
X56.5Y-59.25
X56.5Y-79.65
X56.5Y-100.05
X56.5Y-120.45
X58.4Y-48.35
X58.4Y-68.75
X58.4Y-89.15
X58.4Y-109.55
X58.4Y-129.95
X58.5Y-36.85
X58.5Y-57.25
X58.5Y-77.65
X58.5Y-98.05
X58.5Y-118.45
X60.0Y-153.7
X60.0Y-156.4
X60.4Y-44.35
X60.4Y-48.35
X60.4Y-64.75
X60.4Y-68.75
X60.4Y-85.15
X60.4Y-89.15
X60.4Y-105.55
X60.4Y-109.55
X60.4Y-125.95
X60.4Y-129.95
X60.5Y-36.85
X60.5Y-57.25
X60.5Y-77.65
X60.5Y-98.05
X60.5Y-118.45
X60.65Y-153.7
X60.65Y-156.4
X61.4Y-43.35
X61.4Y-63.75
X61.4Y-84.15
X61.4Y-104.55
X61.4Y-124.95
X61.5Y-39.85
X61.5Y-60.25
X61.5Y-80.65
X61.5Y-101.05
X61.5Y-121.45
X62.4Y-44.35
X62.4Y-46.35
X62.4Y-64.75
X62.4Y-66.75
X62.4Y-85.15
X62.4Y-87.15
X62.4Y-105.55
X62.4Y-107.55
X62.4Y-125.95
X62.4Y-127.95
X63.4Y-43.35
X63.4Y-63.75
X63.4Y-84.15
X63.4Y-104.55
X63.4Y-124.95
X63.5Y-39.85
X63.5Y-60.25
X63.5Y-80.65
X63.5Y-101.05
X63.5Y-121.45
X64.4Y-44.35
X64.4Y-46.35
X64.4Y-64.75
X64.4Y-66.75
X64.4Y-85.15
X64.4Y-87.15
X64.4Y-105.55
X64.4Y-107.55
X64.4Y-125.95
X64.4Y-127.95
X64.5Y-36.85
X64.5Y-38.85
X64.5Y-57.25
X64.5Y-59.25
X64.5Y-77.65
X64.5Y-79.65
X64.5Y-98.05
X64.5Y-100.05
X64.5Y-118.45
X64.5Y-120.45
X65.4Y-43.35
X65.4Y-63.75
X65.4Y-84.15
X65.4Y-104.55
X65.4Y-124.95
X65.5Y-39.85
X65.5Y-60.25
X65.5Y-80.65
X65.5Y-101.05
X65.5Y-121.45
X66.5Y-36.85
X66.5Y-38.85
X66.5Y-57.25
X66.5Y-59.25
X66.5Y-77.65
X66.5Y-79.65
X66.5Y-98.05
X66.5Y-100.05
X66.5Y-118.45
X66.5Y-120.45
X67.4Y-43.35
X67.4Y-63.75
X67.4Y-84.15
X67.4Y-104.55
X67.4Y-124.95
X67.5Y-39.85
X67.5Y-60.25
X67.5Y-80.65
X67.5Y-101.05
X67.5Y-121.45
X68.4Y-46.35
X68.4Y-66.75
X68.4Y-87.15
X68.4Y-107.55
X68.4Y-127.95
X68.5Y-34.85
X68.5Y-38.85
X68.5Y-55.25
X68.5Y-59.25
X68.5Y-75.65
X68.5Y-79.65
X68.5Y-96.05
X68.5Y-100.05
X68.5Y-116.45
X68.5Y-120.45
X70.4Y-44.35
X70.4Y-46.35
X70.4Y-48.35
X70.4Y-64.75
X70.4Y-66.75
X70.4Y-68.75
X70.4Y-85.15
X70.4Y-87.15
X70.4Y-89.15
X70.4Y-105.55
X70.4Y-107.55
X70.4Y-109.55
X70.4Y-125.95
X70.4Y-127.95
X70.4Y-129.95
X71.4Y-43.35
X71.4Y-47.35
X71.4Y-63.75
X71.4Y-67.75
X71.4Y-84.15
X71.4Y-88.15
X71.4Y-104.55
X71.4Y-108.55
X71.4Y-124.95
X71.4Y-128.95
X72.4Y-46.35
X72.4Y-66.75
X72.4Y-87.15
X72.4Y-107.55
X72.4Y-127.95
X72.5Y-34.85
X72.5Y-36.85
X72.5Y-38.85
X72.5Y-55.25
X72.5Y-57.25
X72.5Y-59.25
X72.5Y-75.65
X72.5Y-77.65
X72.5Y-79.65
X72.5Y-96.05
X72.5Y-98.05
X72.5Y-100.05
X72.5Y-116.45
X72.5Y-118.45
X72.5Y-120.45
X73.45Y-149.4
X73.5Y-35.85
X73.5Y-39.85
X73.5Y-56.25
X73.5Y-60.25
X73.5Y-76.65
X73.5Y-80.65
X73.5Y-97.05
X73.5Y-101.05
X73.5Y-117.45
X73.5Y-121.45
X74.5Y-36.85
X74.5Y-57.25
X74.5Y-77.65
X74.5Y-98.05
X74.5Y-118.45
X75.4Y-43.35
X75.4Y-63.75
X75.4Y-84.15
X75.4Y-104.55
X75.4Y-124.95
X76.4Y-44.35
X76.4Y-48.35
X76.4Y-64.75
X76.4Y-68.75
X76.4Y-85.15
X76.4Y-89.15
X76.4Y-105.55
X76.4Y-109.55
X76.4Y-125.95
X76.4Y-129.95
X76.5Y-36.85
X76.5Y-57.25
X76.5Y-77.65
X76.5Y-98.05
X76.5Y-118.45
X77.4Y-43.35
X77.4Y-63.75
X77.4Y-84.15
X77.4Y-104.55
X77.4Y-124.95
X77.45Y-149.4
X77.5Y-39.85
X77.5Y-60.25
X77.5Y-80.65
X77.5Y-101.05
X77.5Y-121.45
X78.4Y-44.35
X78.4Y-46.35
X78.4Y-64.75
X78.4Y-66.75
X78.4Y-85.15
X78.4Y-87.15
X78.4Y-105.55
X78.4Y-107.55
X78.4Y-125.95
X78.4Y-127.95
X79.4Y-43.35
X79.4Y-63.75
X79.4Y-84.15
X79.4Y-104.55
X79.4Y-124.95
X79.5Y-39.85
X79.5Y-60.25
X79.5Y-80.65
X79.5Y-101.05
X79.5Y-121.45
X80.4Y-44.35
X80.4Y-46.35
X80.4Y-64.75
X80.4Y-66.75
X80.4Y-85.15
X80.4Y-87.15
X80.4Y-105.55
X80.4Y-107.55
X80.4Y-125.95
X80.4Y-127.95
X80.5Y-36.85
X80.5Y-38.85
X80.5Y-57.25
X80.5Y-59.25
X80.5Y-77.65
X80.5Y-79.65
X80.5Y-98.05
X80.5Y-100.05
X80.5Y-118.45
X80.5Y-120.45
X81.4Y-43.35
X81.4Y-63.75
X81.4Y-84.15
X81.4Y-104.55
X81.4Y-124.95
X81.5Y-39.85
X81.5Y-60.25
X81.5Y-80.65
X81.5Y-101.05
X81.5Y-121.45
X82.5Y-36.85
X82.5Y-38.85
X82.5Y-57.25
X82.5Y-59.25
X82.5Y-77.65
X82.5Y-79.65
X82.5Y-98.05
X82.5Y-100.05
X82.5Y-118.45
X82.5Y-120.45
X83.4Y-43.35
X83.4Y-63.75
X83.4Y-84.15
X83.4Y-104.55
X83.4Y-124.95
X83.5Y-39.85
X83.5Y-60.25
X83.5Y-80.65
X83.5Y-101.05
X83.5Y-121.45
X84.4Y-46.35
X84.4Y-66.75
X84.4Y-87.15
X84.4Y-107.55
X84.4Y-127.95
X84.5Y-34.85
X84.5Y-38.85
X84.5Y-55.25
X84.5Y-59.25
X84.5Y-75.65
X84.5Y-79.65
X84.5Y-96.05
X84.5Y-100.05
X84.5Y-116.45
X84.5Y-120.45
X85.5Y-35.85
X85.5Y-39.85
X85.5Y-56.25
X85.5Y-60.25
X85.5Y-76.65
X85.5Y-80.65
X85.5Y-97.05
X85.5Y-101.05
X85.5Y-117.45
X85.5Y-121.45
X86.4Y-46.35
X86.4Y-66.75
X86.4Y-87.15
X86.4Y-107.55
X86.4Y-127.95
X87.4Y-43.35
X87.4Y-47.35
X87.4Y-63.75
X87.4Y-67.75
X87.4Y-84.15
X87.4Y-88.15
X87.4Y-104.55
X87.4Y-108.55
X87.4Y-124.95
X87.4Y-128.95
X88.4Y-44.35
X88.4Y-46.35
X88.4Y-48.35
X88.4Y-64.75
X88.4Y-66.75
X88.4Y-68.75
X88.4Y-85.15
X88.4Y-87.15
X88.4Y-89.15
X88.4Y-105.55
X88.4Y-107.55
X88.4Y-109.55
X88.4Y-125.95
X88.4Y-127.95
X88.4Y-129.95
X88.5Y-34.85
X88.5Y-36.85
X88.5Y-55.25
X88.5Y-57.25
X88.5Y-75.65
X88.5Y-77.65
X88.5Y-96.05
X88.5Y-98.05
X88.5Y-116.45
X88.5Y-118.45
X89.5Y-35.85
X89.5Y-39.85
X89.5Y-56.25
X89.5Y-60.25
X89.5Y-76.65
X89.5Y-80.65
X89.5Y-97.05
X89.5Y-101.05
X89.5Y-117.45
X89.5Y-121.45
X90.5Y-34.85
X90.5Y-36.85
X90.5Y-38.85
X90.5Y-55.25
X90.5Y-57.25
X90.5Y-59.25
X90.5Y-75.65
X90.5Y-77.65
X90.5Y-79.65
X90.5Y-96.05
X90.5Y-98.05
X90.5Y-100.05
X90.5Y-116.45
X90.5Y-118.45
X90.5Y-120.45
X91.4Y-43.35
X91.4Y-63.75
X91.4Y-84.15
X91.4Y-104.55
X91.4Y-124.95
X92.4Y-44.35
X92.4Y-48.35
X92.4Y-64.75
X92.4Y-68.75
X92.4Y-85.15
X92.4Y-89.15
X92.4Y-105.55
X92.4Y-109.55
X92.4Y-125.95
X92.4Y-129.95
X92.5Y-36.85
X92.5Y-57.25
X92.5Y-77.65
X92.5Y-98.05
X92.5Y-118.45
X93.4Y-43.35
X93.4Y-63.75
X93.4Y-84.15
X93.4Y-104.55
X93.4Y-124.95
X93.5Y-39.85
X93.5Y-60.25
X93.5Y-80.65
X93.5Y-101.05
X93.5Y-121.45
X94.4Y-44.35
X94.4Y-46.35
X94.4Y-64.75
X94.4Y-66.75
X94.4Y-85.15
X94.4Y-87.15
X94.4Y-105.55
X94.4Y-107.55
X94.4Y-125.95
X94.4Y-127.95
X95.4Y-43.35
X95.4Y-63.75
X95.4Y-84.15
X95.4Y-104.55
X95.4Y-124.95
X95.5Y-39.85
X95.5Y-60.25
X95.5Y-80.65
X95.5Y-101.05
X95.5Y-121.45
X96.4Y-44.35
X96.4Y-46.35
X96.4Y-64.75
X96.4Y-66.75
X96.4Y-85.15
X96.4Y-87.15
X96.4Y-105.55
X96.4Y-107.55
X96.4Y-125.95
X96.4Y-127.95
X96.5Y-36.85
X96.5Y-38.85
X96.5Y-57.25
X96.5Y-59.25
X96.5Y-77.65
X96.5Y-79.65
X96.5Y-98.05
X96.5Y-100.05
X96.5Y-118.45
X96.5Y-120.45
X96.95Y-140.6
X96.95Y-155.6
X97.9Y-149.2
X98.5Y-36.85
X98.5Y-38.85
X98.5Y-57.25
X98.5Y-59.25
X98.5Y-77.65
X98.5Y-79.65
X98.5Y-98.05
X98.5Y-100.05
X98.5Y-118.45
X98.5Y-120.45
X100.4Y-46.35
X100.4Y-66.75
X100.4Y-87.15
X100.4Y-107.55
X100.4Y-127.95
X100.5Y-34.85
X100.5Y-38.85
X100.5Y-55.25
X100.5Y-59.25
X100.5Y-75.65
X100.5Y-79.65
X100.5Y-96.05
X100.5Y-100.05
X100.5Y-116.45
X100.5Y-120.45
X101.5Y-39.85
X101.5Y-60.25
X101.5Y-80.65
X101.5Y-101.05
X101.5Y-121.45
X102.4Y-46.35
X102.4Y-66.75
X102.4Y-87.15
X102.4Y-107.55
X102.4Y-127.95
X103.4Y-43.35
X103.4Y-47.35
X103.4Y-63.75
X103.4Y-67.75
X103.4Y-84.15
X103.4Y-88.15
X103.4Y-104.55
X103.4Y-108.55
X103.4Y-124.95
X103.4Y-128.95
X104.4Y-44.35
X104.4Y-46.35
X104.4Y-48.35
X104.4Y-64.75
X104.4Y-66.75
X104.4Y-68.75
X104.4Y-85.15
X104.4Y-87.15
X104.4Y-89.15
X104.4Y-105.55
X104.4Y-107.55
X104.4Y-109.55
X104.4Y-125.95
X104.4Y-127.95
X104.4Y-129.95
X104.5Y-36.85
X104.5Y-57.25
X104.5Y-77.65
X104.5Y-98.05
X104.5Y-118.45
X104.737Y-136.9
X104.737Y-140.7
X104.737Y-144.5
X104.737Y-148.3
X104.737Y-151.9
X104.737Y-155.7
X105.4Y-43.35
X105.4Y-63.75
X105.4Y-84.15
X105.4Y-104.55
X105.4Y-124.95
X105.5Y-35.85
X105.5Y-39.85
X105.5Y-56.25
X105.5Y-60.25
X105.5Y-76.65
X105.5Y-80.65
X105.5Y-97.05
X105.5Y-101.05
X105.5Y-117.45
X105.5Y-121.45
X106.4Y-46.35
X106.4Y-66.75
X106.4Y-87.15
X106.4Y-107.55
X106.4Y-127.95
X106.5Y-34.85
X106.5Y-36.85
X106.5Y-38.85
X106.5Y-55.25
X106.5Y-57.25
X106.5Y-59.25
X106.5Y-75.65
X106.5Y-77.65
X106.5Y-79.65
X106.5Y-96.05
X106.5Y-98.05
X106.5Y-100.05
X106.5Y-116.45
X106.5Y-118.45
X106.5Y-120.45
X108.4Y-44.35
X108.4Y-48.35
X108.4Y-64.75
X108.4Y-68.75
X108.4Y-85.15
X108.4Y-89.15
X108.4Y-105.55
X108.4Y-109.55
X108.4Y-125.95
X108.4Y-129.95
X108.5Y-36.85
X108.5Y-57.25
X108.5Y-77.65
X108.5Y-98.05
X108.5Y-118.45
X109.4Y-43.35
X109.4Y-63.75
X109.4Y-84.15
X109.4Y-104.55
X109.4Y-124.95
X110.4Y-44.35
X110.4Y-48.35
X110.4Y-64.75
X110.4Y-68.75
X110.4Y-85.15
X110.4Y-89.15
X110.4Y-105.55
X110.4Y-109.55
X110.4Y-125.95
X110.4Y-129.95
X110.5Y-36.85
X110.5Y-57.25
X110.5Y-77.65
X110.5Y-98.05
X110.5Y-118.45
X110.85Y-142.6
X111.4Y-43.35
X111.4Y-63.75
X111.4Y-84.15
X111.4Y-104.55
X111.4Y-124.95
X111.5Y-39.85
X111.5Y-60.25
X111.5Y-80.65
X111.5Y-101.05
X111.5Y-121.45
X112.4Y-44.35
X112.4Y-46.35
X112.4Y-64.75
X112.4Y-66.75
X112.4Y-85.15
X112.4Y-87.15
X112.4Y-105.55
X112.4Y-107.55
X112.4Y-125.95
X112.4Y-127.95
X113.4Y-43.35
X113.4Y-63.75
X113.4Y-84.15
X113.4Y-104.55
X113.4Y-124.95
X113.5Y-39.85
X113.5Y-60.25
X113.5Y-80.65
X113.5Y-101.05
X113.5Y-121.45
X114.5Y-36.85
X114.5Y-38.85
X114.5Y-57.25
X114.5Y-59.25
X114.5Y-77.65
X114.5Y-79.65
X114.5Y-98.05
X114.5Y-100.05
X114.5Y-118.45
X114.5Y-120.45
X114.85Y-157.8
X115.4Y-43.35
X115.4Y-63.75
X115.4Y-84.15
X115.4Y-104.55
X115.4Y-124.95
X115.5Y-39.85
X115.5Y-60.25
X115.5Y-80.65
X115.5Y-101.05
X115.5Y-121.45
X115.7Y-158.55
X116.5Y-34.85
X116.5Y-38.85
X116.5Y-55.25
X116.5Y-59.25
X116.5Y-75.65
X116.5Y-79.65
X116.5Y-96.05
X116.5Y-100.05
X116.5Y-116.45
X116.5Y-120.45
X117.5Y-39.85
X117.5Y-60.25
X117.5Y-80.65
X117.5Y-101.05
X117.5Y-121.45
X118.4Y-46.35
X118.4Y-66.75
X118.4Y-87.15
X118.4Y-107.55
X118.4Y-127.95
X118.5Y-34.85
X118.5Y-38.85
X118.5Y-55.25
X118.5Y-59.25
X118.5Y-75.65
X118.5Y-79.65
X118.5Y-96.05
X118.5Y-100.05
X118.5Y-116.45
X118.5Y-120.45
X120.4Y-44.35
X120.4Y-46.35
X120.4Y-48.35
X120.4Y-64.75
X120.4Y-66.75
X120.4Y-68.75
X120.4Y-85.15
X120.4Y-87.15
X120.4Y-89.15
X120.4Y-105.55
X120.4Y-107.55
X120.4Y-109.55
X120.4Y-125.95
X120.4Y-127.95
X120.4Y-129.95
X121.4Y-43.35
X121.4Y-47.35
X121.4Y-63.75
X121.4Y-67.75
X121.4Y-84.15
X121.4Y-88.15
X121.4Y-104.55
X121.4Y-108.55
X121.4Y-124.95
X121.4Y-128.95
X122.4Y-46.35
X122.4Y-66.75
X122.4Y-87.15
X122.4Y-107.55
X122.4Y-127.95
X122.5Y-34.85
X122.5Y-36.85
X122.5Y-38.85
X122.5Y-55.25
X122.5Y-57.25
X122.5Y-59.25
X122.5Y-75.65
X122.5Y-77.65
X122.5Y-79.65
X122.5Y-96.05
X122.5Y-98.05
X122.5Y-100.05
X122.5Y-116.45
X122.5Y-118.45
X122.5Y-120.45
X123.5Y-35.85
X123.5Y-39.85
X123.5Y-56.25
X123.5Y-60.25
X123.5Y-76.65
X123.5Y-80.65
X123.5Y-97.05
X123.5Y-101.05
X123.5Y-117.45
X123.5Y-121.45
X124.5Y-36.85
X124.5Y-57.25
X124.5Y-77.65
X124.5Y-98.05
X124.5Y-118.45
X125.4Y-43.35
X125.4Y-63.75
X125.4Y-84.15
X125.4Y-104.55
X125.4Y-124.95
X126.4Y-44.35
X126.4Y-48.35
X126.4Y-64.75
X126.4Y-68.75
X126.4Y-85.15
X126.4Y-89.15
X126.4Y-105.55
X126.4Y-109.55
X126.4Y-125.95
X126.4Y-129.95
X126.5Y-36.85
X126.5Y-57.25
X126.5Y-77.65
X126.5Y-98.05
X126.5Y-118.45
X127.4Y-43.35
X127.4Y-63.75
X127.4Y-84.15
X127.4Y-104.55
X127.4Y-124.95
X127.5Y-39.85
X127.5Y-60.25
X127.5Y-80.65
X127.5Y-101.05
X127.5Y-121.45
X128.05Y-156.4
X128.4Y-44.35
X128.4Y-46.35
X128.4Y-64.75
X128.4Y-66.75
X128.4Y-85.15
X128.4Y-87.15
X128.4Y-105.55
X128.4Y-107.55
X128.4Y-125.95
X128.4Y-127.95
X129.4Y-43.35
X129.4Y-63.75
X129.4Y-84.15
X129.4Y-104.55
X129.4Y-124.95
X129.5Y-39.85
X129.5Y-60.25
X129.5Y-80.65
X129.5Y-101.05
X129.5Y-121.45
X130.4Y-44.35
X130.4Y-46.35
X130.4Y-64.75
X130.4Y-66.75
X130.4Y-85.15
X130.4Y-87.15
X130.4Y-105.55
X130.4Y-107.55
X130.4Y-125.95
X130.4Y-127.95
X130.5Y-36.85
X130.5Y-38.85
X130.5Y-57.25
X130.5Y-59.25
X130.5Y-77.65
X130.5Y-79.65
X130.5Y-98.05
X130.5Y-100.05
X130.5Y-118.45
X130.5Y-120.45
X131.4Y-43.35
X131.4Y-63.75
X131.4Y-84.15
X131.4Y-104.55
X131.4Y-124.95
X131.5Y-39.85
X131.5Y-60.25
X131.5Y-80.65
X131.5Y-101.05
X131.5Y-121.45
X132.5Y-36.85
X132.5Y-38.85
X132.5Y-57.25
X132.5Y-59.25
X132.5Y-77.65
X132.5Y-79.65
X132.5Y-98.05
X132.5Y-100.05
X132.5Y-118.45
X132.5Y-120.45
X133.4Y-43.35
X133.4Y-63.75
X133.4Y-84.15
X133.4Y-104.55
X133.4Y-124.95
X133.5Y-39.85
X133.5Y-60.25
X133.5Y-80.65
X133.5Y-101.05
X133.5Y-121.45
X134.4Y-46.35
X134.4Y-66.75
X134.4Y-87.15
X134.4Y-107.55
X134.4Y-127.95
X134.5Y-34.85
X134.5Y-38.85
X134.5Y-55.25
X134.5Y-59.25
X134.5Y-75.65
X134.5Y-79.65
X134.5Y-96.05
X134.5Y-100.05
X134.5Y-116.45
X134.5Y-120.45
X135.5Y-35.85
X135.5Y-39.85
X135.5Y-56.25
X135.5Y-60.25
X135.5Y-76.65
X135.5Y-80.65
X135.5Y-97.05
X135.5Y-101.05
X135.5Y-117.45
X135.5Y-121.45
X136.4Y-44.35
X136.4Y-46.35
X136.4Y-48.35
X136.4Y-64.75
X136.4Y-66.75
X136.4Y-68.75
X136.4Y-85.15
X136.4Y-87.15
X136.4Y-89.15
X136.4Y-105.55
X136.4Y-107.55
X136.4Y-109.55
X136.4Y-125.95
X136.4Y-127.95
X136.4Y-129.95
X137.4Y-47.35
X137.4Y-67.75
X137.4Y-88.15
X137.4Y-108.55
X137.4Y-128.95
X137.779Y-141.308
X138.4Y-44.35
X138.4Y-46.35
X138.4Y-48.35
X138.4Y-64.75
X138.4Y-66.75
X138.4Y-68.75
X138.4Y-85.15
X138.4Y-87.15
X138.4Y-89.15
X138.4Y-105.55
X138.4Y-107.55
X138.4Y-109.55
X138.4Y-125.95
X138.4Y-127.95
X138.4Y-129.95
X138.5Y-34.85
X138.5Y-36.85
X138.5Y-38.85
X138.5Y-55.25
X138.5Y-57.25
X138.5Y-59.25
X138.5Y-75.65
X138.5Y-77.65
X138.5Y-79.65
X138.5Y-96.05
X138.5Y-98.05
X138.5Y-100.05
X138.5Y-116.45
X138.5Y-118.45
X138.5Y-120.45
X139.5Y-35.85
X139.5Y-56.25
X139.5Y-76.65
X139.5Y-97.05
X139.5Y-117.45
X140.5Y-34.85
X140.5Y-36.85
X140.5Y-38.85
X140.5Y-55.25
X140.5Y-57.25
X140.5Y-59.25
X140.5Y-75.65
X140.5Y-77.65
X140.5Y-79.65
X140.5Y-96.05
X140.5Y-98.05
X140.5Y-100.05
X140.5Y-116.45
X140.5Y-118.45
X140.5Y-120.45
X141.4Y-43.35
X141.4Y-47.35
X141.4Y-63.75
X141.4Y-67.75
X141.4Y-84.15
X141.4Y-88.15
X141.4Y-104.55
X141.4Y-108.55
X141.4Y-124.95
X141.4Y-128.95
X141.979Y-139.508
X142.4Y-44.35
X142.4Y-48.35
X142.4Y-64.75
X142.4Y-68.75
X142.4Y-85.15
X142.4Y-89.15
X142.4Y-105.55
X142.4Y-109.55
X142.4Y-125.95
X142.4Y-129.95
X142.5Y-36.85
X142.5Y-57.25
X142.5Y-77.65
X142.5Y-98.05
X142.5Y-118.45
X143.4Y-43.35
X143.4Y-63.75
X143.4Y-84.15
X143.4Y-104.55
X143.4Y-124.95
X143.5Y-39.85
X143.5Y-60.25
X143.5Y-80.65
X143.5Y-101.05
X143.5Y-121.45
X143.679Y-139.708
X144.4Y-44.35
X144.4Y-46.35
X144.4Y-64.75
X144.4Y-66.75
X144.4Y-85.15
X144.4Y-87.15
X144.4Y-105.55
X144.4Y-107.55
X144.4Y-125.95
X144.4Y-127.95
X145.4Y-43.35
X145.4Y-63.75
X145.4Y-84.15
X145.4Y-104.55
X145.4Y-124.95
X145.5Y-39.85
X145.5Y-60.25
X145.5Y-80.65
X145.5Y-101.05
X145.5Y-121.45
X146.4Y-44.35
X146.4Y-46.35
X146.4Y-64.75
X146.4Y-66.75
X146.4Y-85.15
X146.4Y-87.15
X146.4Y-105.55
X146.4Y-107.55
X146.4Y-125.95
X146.4Y-127.95
X146.5Y-36.85
X146.5Y-38.85
X146.5Y-57.25
X146.5Y-59.25
X146.5Y-77.65
X146.5Y-79.65
X146.5Y-98.05
X146.5Y-100.05
X146.5Y-118.45
X146.5Y-120.45
X147.4Y-43.35
X147.4Y-63.75
X147.4Y-84.15
X147.4Y-104.55
X147.4Y-124.95
X147.5Y-39.85
X147.5Y-60.25
X147.5Y-80.65
X147.5Y-101.05
X147.5Y-121.45
X148.5Y-36.85
X148.5Y-38.85
X148.5Y-57.25
X148.5Y-59.25
X148.5Y-77.65
X148.5Y-79.65
X148.5Y-98.05
X148.5Y-100.05
X148.5Y-118.45
X148.5Y-120.45
X149.4Y-43.35
X149.4Y-63.75
X149.4Y-84.15
X149.4Y-104.55
X149.4Y-124.95
X149.5Y-39.85
X149.5Y-60.25
X149.5Y-80.65
X149.5Y-101.05
X149.5Y-121.45
X150.4Y-46.35
X150.4Y-66.75
X150.4Y-87.15
X150.4Y-107.55
X150.4Y-127.95
X150.5Y-34.85
X150.5Y-38.85
X150.5Y-55.25
X150.5Y-59.25
X150.5Y-75.65
X150.5Y-79.65
X150.5Y-96.05
X150.5Y-100.05
X150.5Y-116.45
X150.5Y-120.45
X151.5Y-39.85
X151.5Y-60.25
X151.5Y-80.65
X151.5Y-101.05
X151.5Y-121.45
X152.4Y-46.35
X152.4Y-66.75
X152.4Y-87.15
X152.4Y-107.55
X152.4Y-127.95
X153.4Y-43.35
X153.4Y-47.35
X153.4Y-63.75
X153.4Y-67.75
X153.4Y-84.15
X153.4Y-88.15
X153.4Y-104.55
X153.4Y-108.55
X153.4Y-124.95
X153.4Y-128.95
X154.4Y-44.35
X154.4Y-46.35
X154.4Y-48.35
X154.4Y-64.75
X154.4Y-66.75
X154.4Y-68.75
X154.4Y-85.15
X154.4Y-87.15
X154.4Y-89.15
X154.4Y-105.55
X154.4Y-107.55
X154.4Y-109.55
X154.4Y-125.95
X154.4Y-127.95
X154.4Y-129.95
X154.5Y-36.85
X154.5Y-57.25
X154.5Y-77.65
X154.5Y-98.05
X154.5Y-118.45
X155.5Y-35.85
X155.5Y-39.85
X155.5Y-56.25
X155.5Y-60.25
X155.5Y-76.65
X155.5Y-80.65
X155.5Y-97.05
X155.5Y-101.05
X155.5Y-117.45
X155.5Y-121.45
X156.5Y-34.85
X156.5Y-36.85
X156.5Y-38.85
X156.5Y-55.25
X156.5Y-57.25
X156.5Y-59.25
X156.5Y-75.65
X156.5Y-77.65
X156.5Y-79.65
X156.5Y-96.05
X156.5Y-98.05
X156.5Y-100.05
X156.5Y-116.45
X156.5Y-118.45
X156.5Y-120.45
X158.4Y-44.35
X158.4Y-48.35
X158.4Y-64.75
X158.4Y-68.75
X158.4Y-85.15
X158.4Y-89.15
X158.4Y-105.55
X158.4Y-109.55
X158.4Y-125.95
X158.4Y-129.95
X158.5Y-36.85
X158.5Y-57.25
X158.5Y-77.65
X158.5Y-98.05
X158.5Y-118.45
X159.4Y-43.35
X159.4Y-63.75
X159.4Y-84.15
X159.4Y-104.55
X159.4Y-124.95
X160.4Y-44.35
X160.4Y-48.35
X160.4Y-64.75
X160.4Y-68.75
X160.4Y-85.15
X160.4Y-89.15
X160.4Y-105.55
X160.4Y-109.55
X160.4Y-125.95
X160.4Y-129.95
X161.4Y-43.35
X161.4Y-63.75
X161.4Y-84.15
X161.4Y-104.55
X161.4Y-124.95
X161.5Y-39.85
X161.5Y-60.25
X161.5Y-80.65
X161.5Y-101.05
X161.5Y-121.45
X162.4Y-44.35
X162.4Y-46.35
X162.4Y-64.75
X162.4Y-66.75
X162.4Y-85.15
X162.4Y-87.15
X162.4Y-105.55
X162.4Y-107.55
X162.4Y-125.95
X162.4Y-127.95
X163.4Y-43.35
X163.4Y-63.75
X163.4Y-84.15
X163.4Y-104.55
X163.4Y-124.95
X163.5Y-39.85
X163.5Y-60.25
X163.5Y-80.65
X163.5Y-101.05
X163.5Y-121.45
X164.5Y-36.85
X164.5Y-38.85
X164.5Y-57.25
X164.5Y-59.25
X164.5Y-77.65
X164.5Y-79.65
X164.5Y-98.05
X164.5Y-100.05
X164.5Y-118.45
X164.5Y-120.45
X165.4Y-43.35
X165.4Y-63.75
X165.4Y-84.15
X165.4Y-104.55
X165.4Y-124.95
X165.5Y-39.85
X165.5Y-60.25
X165.5Y-80.65
X165.5Y-101.05
X165.5Y-121.45
X166.4Y-46.35
X166.4Y-66.75
X166.4Y-87.15
X166.4Y-107.55
X166.4Y-127.95
X166.5Y-34.85
X166.5Y-38.85
X166.5Y-55.25
X166.5Y-59.25
X166.5Y-75.65
X166.5Y-79.65
X166.5Y-96.05
X166.5Y-100.05
X166.5Y-116.45
X166.5Y-120.45
X167.5Y-39.85
X167.5Y-60.25
X167.5Y-80.65
X167.5Y-101.05
X167.5Y-121.45
X168.4Y-46.35
X168.4Y-66.75
X168.4Y-87.15
X168.4Y-107.55
X168.4Y-127.95
X168.5Y-34.85
X168.5Y-38.85
X168.5Y-55.25
X168.5Y-59.25
X168.5Y-75.65
X168.5Y-79.65
X168.5Y-96.05
X168.5Y-100.05
X168.5Y-116.45
X168.5Y-120.45
X170.4Y-44.35
X170.4Y-46.35
X170.4Y-48.35
X170.4Y-64.75
X170.4Y-66.75
X170.4Y-68.75
X170.4Y-85.15
X170.4Y-87.15
X170.4Y-89.15
X170.4Y-105.55
X170.4Y-107.55
X170.4Y-109.55
X170.4Y-125.95
X170.4Y-127.95
X170.4Y-129.95
X170.5Y-36.85
X170.5Y-57.25
X170.5Y-77.65
X170.5Y-98.05
X170.5Y-118.45
X171.4Y-43.35
X171.4Y-47.35
X171.4Y-63.75
X171.4Y-67.75
X171.4Y-84.15
X171.4Y-88.15
X171.4Y-104.55
X171.4Y-108.55
X171.4Y-124.95
X171.4Y-128.95
X171.5Y-39.85
X171.5Y-60.25
X171.5Y-80.65
X171.5Y-101.05
X171.5Y-121.45
X172.4Y-46.35
X172.4Y-66.75
X172.4Y-87.15
X172.4Y-107.55
X172.4Y-127.95
X172.5Y-34.85
X172.5Y-36.85
X172.5Y-38.85
X172.5Y-55.25
X172.5Y-57.25
X172.5Y-59.25
X172.5Y-75.65
X172.5Y-77.65
X172.5Y-79.65
X172.5Y-96.05
X172.5Y-98.05
X172.5Y-100.05
X172.5Y-116.45
X172.5Y-118.45
X172.5Y-120.45
X173.5Y-35.85
X173.5Y-39.85
X173.5Y-56.25
X173.5Y-60.25
X173.5Y-76.65
X173.5Y-80.65
X173.5Y-97.05
X173.5Y-101.05
X173.5Y-117.45
X173.5Y-121.45
X174.5Y-36.85
X174.5Y-57.25
X174.5Y-77.65
X174.5Y-98.05
X174.5Y-118.45
X175.4Y-43.35
X175.4Y-63.75
X175.4Y-84.15
X175.4Y-104.55
X175.4Y-124.95
X176.4Y-44.35
X176.4Y-48.35
X176.4Y-64.75
X176.4Y-68.75
X176.4Y-85.15
X176.4Y-89.15
X176.4Y-105.55
X176.4Y-109.55
X176.4Y-125.95
X176.4Y-129.95
X176.5Y-36.85
X176.5Y-57.25
X176.5Y-77.65
X176.5Y-98.05
X176.5Y-118.45
X178.4Y-44.35
X178.4Y-46.35
X178.4Y-64.75
X178.4Y-66.75
X178.4Y-85.15
X178.4Y-87.15
X178.4Y-105.55
X178.4Y-107.55
X178.4Y-125.95
X178.4Y-127.95
X180.4Y-44.35
X180.4Y-46.35
X180.4Y-64.75
X180.4Y-66.75
X180.4Y-85.15
X180.4Y-87.15
X180.4Y-105.55
X180.4Y-107.55
X180.4Y-125.95
X180.4Y-127.95
X180.5Y-36.85
X180.5Y-38.85
X180.5Y-57.25
X180.5Y-59.25
X180.5Y-77.65
X180.5Y-79.65
X180.5Y-98.05
X180.5Y-100.05
X180.5Y-118.45
X180.5Y-120.45
X181.4Y-43.35
X181.4Y-63.75
X181.4Y-84.15
X181.4Y-104.55
X181.4Y-124.95
X181.5Y-39.85
X181.5Y-60.25
X181.5Y-80.65
X181.5Y-101.05
X181.5Y-121.45
X182.5Y-36.85
X182.5Y-38.85
X182.5Y-57.25
X182.5Y-59.25
X182.5Y-77.65
X182.5Y-79.65
X182.5Y-98.05
X182.5Y-100.05
X182.5Y-118.45
X182.5Y-120.45
X183.4Y-43.35
X183.4Y-63.75
X183.4Y-84.15
X183.4Y-104.55
X183.4Y-124.95
X183.5Y-39.85
X183.5Y-60.25
X183.5Y-80.65
X183.5Y-101.05
X183.5Y-121.45
X184.4Y-46.35
X184.4Y-66.75
X184.4Y-87.15
X184.4Y-107.55
X184.4Y-127.95
X184.5Y-34.85
X184.5Y-38.85
X184.5Y-55.25
X184.5Y-59.25
X184.5Y-75.65
X184.5Y-79.65
X184.5Y-96.05
X184.5Y-100.05
X184.5Y-116.45
X184.5Y-120.45
X185.5Y-39.85
X185.5Y-60.25
X185.5Y-80.65
X185.5Y-101.05
X185.5Y-121.45
X186.4Y-44.35
X186.4Y-46.35
X186.4Y-48.35
X186.4Y-64.75
X186.4Y-66.75
X186.4Y-68.75
X186.4Y-85.15
X186.4Y-87.15
X186.4Y-89.15
X186.4Y-105.55
X186.4Y-107.55
X186.4Y-109.55
X186.4Y-125.95
X186.4Y-127.95
X186.4Y-129.95
X187.4Y-43.35
X187.4Y-47.35
X187.4Y-63.75
X187.4Y-67.75
X187.4Y-84.15
X187.4Y-88.15
X187.4Y-104.55
X187.4Y-108.55
X187.4Y-124.95
X187.4Y-128.95
X188.4Y-46.35
X188.4Y-48.35
X188.4Y-66.75
X188.4Y-68.75
X188.4Y-87.15
X188.4Y-89.15
X188.4Y-107.55
X188.4Y-109.55
X188.4Y-127.95
X188.4Y-129.95
X188.5Y-34.85
X188.5Y-36.85
X188.5Y-38.85
X188.5Y-55.25
X188.5Y-57.25
X188.5Y-59.25
X188.5Y-75.65
X188.5Y-77.65
X188.5Y-79.65
X188.5Y-96.05
X188.5Y-98.05
X188.5Y-100.05
X188.5Y-116.45
X188.5Y-118.45
X188.5Y-120.45
X189.5Y-35.85
X189.5Y-39.85
X189.5Y-56.25
X189.5Y-60.25
X189.5Y-76.65
X189.5Y-80.65
X189.5Y-97.05
X189.5Y-101.05
X189.5Y-117.45
X189.5Y-121.45
X190.5Y-36.85
X190.5Y-57.25
X190.5Y-77.65
X190.5Y-98.05
X190.5Y-118.45
X191.4Y-43.35
X191.4Y-47.35
X191.4Y-63.75
X191.4Y-67.75
X191.4Y-84.15
X191.4Y-88.15
X191.4Y-104.55
X191.4Y-108.55
X191.4Y-124.95
X191.4Y-128.95
X192.4Y-44.35
X192.4Y-48.35
X192.4Y-64.75
X192.4Y-68.75
X192.4Y-85.15
X192.4Y-89.15
X192.4Y-105.55
X192.4Y-109.55
X192.4Y-125.95
X192.4Y-129.95
X192.5Y-36.85
X192.5Y-57.25
X192.5Y-77.65
X192.5Y-98.05
X192.5Y-118.45
X193.4Y-43.35
X193.4Y-63.75
X193.4Y-84.15
X193.4Y-104.55
X193.4Y-124.95
X193.5Y-39.85
X193.5Y-60.25
X193.5Y-80.65
X193.5Y-101.05
X193.5Y-121.45
X194.4Y-44.35
X194.4Y-46.35
X194.4Y-64.75
X194.4Y-66.75
X194.4Y-85.15
X194.4Y-87.15
X194.4Y-105.55
X194.4Y-107.55
X194.4Y-125.95
X194.4Y-127.95
X195.4Y-43.35
X195.4Y-63.75
X195.4Y-84.15
X195.4Y-104.55
X195.4Y-124.95
X195.5Y-39.85
X195.5Y-60.25
X195.5Y-80.65
X195.5Y-101.05
X195.5Y-121.45
X196.4Y-44.35
X196.4Y-46.35
X196.4Y-64.75
X196.4Y-66.75
X196.4Y-85.15
X196.4Y-87.15
X196.4Y-105.55
X196.4Y-107.55
X196.4Y-125.95
X196.4Y-127.95
X196.5Y-36.85
X196.5Y-38.85
X196.5Y-57.25
X196.5Y-59.25
X196.5Y-77.65
X196.5Y-79.65
X196.5Y-98.05
X196.5Y-100.05
X196.5Y-118.45
X196.5Y-120.45
X197.4Y-43.35
X197.4Y-63.75
X197.4Y-84.15
X197.4Y-104.55
X197.4Y-124.95
X197.5Y-39.85
X197.5Y-60.25
X197.5Y-80.65
X197.5Y-101.05
X197.5Y-121.45
X198.5Y-36.85
X198.5Y-38.85
X198.5Y-57.25
X198.5Y-59.25
X198.5Y-77.65
X198.5Y-79.65
X198.5Y-98.05
X198.5Y-100.05
X198.5Y-118.45
X198.5Y-120.45
X199.4Y-43.35
X199.4Y-63.75
X199.4Y-84.15
X199.4Y-104.55
X199.4Y-124.95
X199.5Y-39.85
X199.5Y-60.25
X199.5Y-80.65
X199.5Y-101.05
X199.5Y-121.45
X200.4Y-46.35
X200.4Y-66.75
X200.4Y-87.15
X200.4Y-107.55
X200.4Y-127.95
X200.5Y-34.85
X200.5Y-38.85
X200.5Y-55.25
X200.5Y-59.25
X200.5Y-75.65
X200.5Y-79.65
X200.5Y-96.05
X200.5Y-100.05
X200.5Y-116.45
X200.5Y-120.45
X201.5Y-39.85
X201.5Y-60.25
X201.5Y-80.65
X201.5Y-101.05
X201.5Y-121.45
X202.4Y-46.35
X202.4Y-66.75
X202.4Y-87.15
X202.4Y-107.55
X202.4Y-127.95
X203.4Y-43.35
X203.4Y-47.35
X203.4Y-63.75
X203.4Y-67.75
X203.4Y-84.15
X203.4Y-88.15
X203.4Y-104.55
X203.4Y-108.55
X203.4Y-124.95
X203.4Y-128.95
X204.4Y-44.35
X204.4Y-46.35
X204.4Y-48.35
X204.4Y-64.75
X204.4Y-66.75
X204.4Y-68.75
X204.4Y-85.15
X204.4Y-87.15
X204.4Y-89.15
X204.4Y-105.55
X204.4Y-107.55
X204.4Y-109.55
X204.4Y-125.95
X204.4Y-127.95
X204.4Y-129.95
X204.5Y-36.85
X204.5Y-57.25
X204.5Y-77.65
X204.5Y-98.05
X204.5Y-118.45
X205.5Y-35.85
X205.5Y-39.85
X205.5Y-56.25
X205.5Y-60.25
X205.5Y-76.65
X205.5Y-80.65
X205.5Y-97.05
X205.5Y-101.05
X205.5Y-117.45
X205.5Y-121.45
X206.5Y-34.85
X206.5Y-36.85
X206.5Y-38.85
X206.5Y-55.25
X206.5Y-57.25
X206.5Y-59.25
X206.5Y-75.65
X206.5Y-77.65
X206.5Y-79.65
X206.5Y-96.05
X206.5Y-98.05
X206.5Y-100.05
X206.5Y-116.45
X206.5Y-118.45
X206.5Y-120.45
X208.4Y-44.35
X208.4Y-48.35
X208.4Y-64.75
X208.4Y-68.75
X208.4Y-85.15
X208.4Y-89.15
X208.4Y-105.55
X208.4Y-109.55
X208.4Y-125.95
X208.4Y-129.95
X208.5Y-36.85
X208.5Y-57.25
X208.5Y-77.65
X208.5Y-98.05
X208.5Y-118.45
X209.4Y-43.35
X209.4Y-63.75
X209.4Y-84.15
X209.4Y-104.55
X209.4Y-124.95
X209.5Y-39.85
X209.5Y-60.25
X209.5Y-80.65
X209.5Y-101.05
X209.5Y-121.45
X210.4Y-44.35
X210.4Y-46.35
X210.4Y-64.75
X210.4Y-66.75
X210.4Y-85.15
X210.4Y-87.15
X210.4Y-105.55
X210.4Y-107.55
X210.4Y-125.95
X210.4Y-127.95
X211.4Y-43.35
X211.4Y-63.75
X211.4Y-84.15
X211.4Y-104.55
X211.4Y-124.95
X211.5Y-39.85
X211.5Y-60.25
X211.5Y-80.65
X211.5Y-101.05
X211.5Y-121.45
X212.4Y-44.35
X212.4Y-46.35
X212.4Y-64.75
X212.4Y-66.75
X212.4Y-85.15
X212.4Y-87.15
X212.4Y-105.55
X212.4Y-107.55
X212.4Y-125.95
X212.4Y-127.95
X212.5Y-36.85
X212.5Y-38.85
X212.5Y-57.25
X212.5Y-59.25
X212.5Y-77.65
X212.5Y-79.65
X212.5Y-98.05
X212.5Y-100.05
X212.5Y-118.45
X212.5Y-120.45
X213.4Y-43.35
X213.4Y-63.75
X213.4Y-84.15
X213.4Y-104.55
X213.4Y-124.95
X213.5Y-39.85
X213.5Y-60.25
X213.5Y-80.65
X213.5Y-101.05
X213.5Y-121.45
X214.5Y-36.85
X214.5Y-38.85
X214.5Y-57.25
X214.5Y-59.25
X214.5Y-77.65
X214.5Y-79.65
X214.5Y-98.05
X214.5Y-100.05
X214.5Y-118.45
X214.5Y-120.45
X215.4Y-43.35
X215.4Y-63.75
X215.4Y-84.15
X215.4Y-104.55
X215.4Y-124.95
X215.5Y-39.85
X215.5Y-60.25
X215.5Y-80.65
X215.5Y-101.05
X215.5Y-121.45
X216.4Y-46.35
X216.4Y-66.75
X216.4Y-87.15
X216.4Y-107.55
X216.4Y-127.95
X216.5Y-34.85
X216.5Y-38.85
X216.5Y-55.25
X216.5Y-59.25
X216.5Y-75.65
X216.5Y-79.65
X216.5Y-96.05
X216.5Y-100.05
X216.5Y-116.45
X216.5Y-120.45
X218.4Y-46.35
X218.4Y-66.75
X218.4Y-87.15
X218.4Y-107.55
X218.4Y-127.95
X218.5Y-34.85
X218.5Y-55.25
X218.5Y-75.65
X218.5Y-96.05
X218.5Y-116.45
X220.4Y-44.35
X220.4Y-64.75
X220.4Y-85.15
X220.4Y-105.55
X220.4Y-125.95
X220.5Y-36.85
X220.5Y-57.25
X220.5Y-77.65
X220.5Y-98.05
X220.5Y-118.45
X221.4Y-43.35
X221.4Y-47.35
X221.4Y-49.35
X221.4Y-63.75
X221.4Y-67.75
X221.4Y-69.75
X221.4Y-84.15
X221.4Y-88.15
X221.4Y-90.15
X221.4Y-104.55
X221.4Y-108.55
X221.4Y-110.55
X221.4Y-124.95
X221.4Y-128.95
X221.4Y-130.95
X221.5Y-35.85
X221.5Y-39.85
X221.5Y-56.25
X221.5Y-60.25
X221.5Y-76.65
X221.5Y-80.65
X221.5Y-97.05
X221.5Y-101.05
X221.5Y-117.45
X221.5Y-121.45
X222.4Y-46.35
X222.4Y-66.75
X222.4Y-87.15
X222.4Y-107.55
X222.4Y-127.95
X222.5Y-34.85
X222.5Y-36.85
X222.5Y-38.85
X222.5Y-55.25
X222.5Y-57.25
X222.5Y-59.25
X222.5Y-75.65
X222.5Y-77.65
X222.5Y-79.65
X222.5Y-96.05
X222.5Y-98.05
X222.5Y-100.05
X222.5Y-116.45
X222.5Y-118.45
X222.5Y-120.45
X223.4Y-49.35
X223.4Y-69.75
X223.4Y-90.15
X223.4Y-110.55
X223.4Y-130.95
X223.5Y-39.85
X223.5Y-60.25
X223.5Y-80.65
X223.5Y-101.05
X223.5Y-121.45
X224.4Y-46.35
X224.4Y-48.35
X224.4Y-66.75
X224.4Y-68.75
X224.4Y-87.15
X224.4Y-89.15
X224.4Y-107.55
X224.4Y-109.55
X224.4Y-127.95
X224.4Y-129.95
X224.5Y-36.85
X224.5Y-57.25
X224.5Y-77.65
X224.5Y-98.05
X224.5Y-118.45
X226.5Y-36.85
X226.5Y-38.85
X226.5Y-57.25
X226.5Y-59.25
X226.5Y-77.65
X226.5Y-79.65
X226.5Y-98.05
X226.5Y-100.05
X226.5Y-118.45
X226.5Y-120.45
X227.5Y-35.85
X227.5Y-39.85
X227.5Y-56.25
X227.5Y-60.25
X227.5Y-76.65
X227.5Y-80.65
X227.5Y-97.05
X227.5Y-101.05
X227.5Y-117.45
X227.5Y-121.45
X229.5Y-35.85
X229.5Y-56.25
X229.5Y-76.65
X229.5Y-97.05
X229.5Y-117.45
X230.5Y-30.85
X230.5Y-36.85
X230.5Y-42.85
X230.5Y-51.25
X230.5Y-57.25
X230.5Y-63.25
X230.5Y-71.65
X230.5Y-77.65
X230.5Y-83.65
X230.5Y-92.05
X230.5Y-98.05
X230.5Y-104.05
X230.5Y-112.45
X230.5Y-118.45
X230.5Y-124.45
X231.5Y-31.85
X231.5Y-35.85
X231.5Y-41.85
X231.5Y-52.25
X231.5Y-56.25
X231.5Y-62.25
X231.5Y-72.65
X231.5Y-76.65
X231.5Y-82.65
X231.5Y-93.05
X231.5Y-97.05
X231.5Y-103.05
X231.5Y-113.45
X231.5Y-117.45
X231.5Y-123.45
X232.5Y-30.85
X232.5Y-36.85
X232.5Y-42.85
X232.5Y-51.25
X232.5Y-57.25
X232.5Y-63.25
X232.5Y-71.65
X232.5Y-77.65
X232.5Y-83.65
X232.5Y-92.05
X232.5Y-98.05
X232.5Y-104.05
X232.5Y-112.45
X232.5Y-118.45
X232.5Y-124.45
X233.625Y-31.825
X233.625Y-41.725
X233.625Y-52.225
X233.625Y-62.125
X233.625Y-72.625
X233.625Y-82.525
X233.625Y-93.025
X233.625Y-102.925
X233.625Y-113.425
X233.625Y-123.325
X234.5Y-32.85
X234.5Y-34.85
X234.5Y-53.25
X234.5Y-55.25
X234.5Y-73.65
X234.5Y-75.65
X234.5Y-94.05
X234.5Y-96.05
X234.5Y-114.45
X234.5Y-116.45
X235.5Y-31.85
X235.5Y-33.85
X235.5Y-35.85
X235.5Y-37.85
X235.5Y-39.85
X235.5Y-41.85
X235.5Y-52.25
X235.5Y-54.25
X235.5Y-56.25
X235.5Y-58.25
X235.5Y-60.25
X235.5Y-62.25
X235.5Y-72.65
X235.5Y-74.65
X235.5Y-76.65
X235.5Y-78.65
X235.5Y-80.65
X235.5Y-82.65
X235.5Y-93.05
X235.5Y-95.05
X235.5Y-97.05
X235.5Y-99.05
X235.5Y-101.05
X235.5Y-103.05
X235.5Y-113.45
X235.5Y-115.45
X235.5Y-117.45
X235.5Y-119.45
X235.5Y-121.45
X235.5Y-123.45
X236.5Y-30.85
X236.5Y-32.85
X236.5Y-34.85
X236.5Y-36.85
X236.5Y-38.85
X236.5Y-40.85
X236.5Y-42.85
X236.5Y-51.25
X236.5Y-53.25
X236.5Y-55.25
X236.5Y-57.25
X236.5Y-59.25
X236.5Y-61.25
X236.5Y-63.25
X236.5Y-71.65
X236.5Y-73.65
X236.5Y-75.65
X236.5Y-77.65
X236.5Y-79.65
X236.5Y-81.65
X236.5Y-83.65
X236.5Y-92.05
X236.5Y-94.05
X236.5Y-96.05
X236.5Y-98.05
X236.5Y-100.05
X236.5Y-102.05
X236.5Y-104.05
X236.5Y-112.45
X236.5Y-114.45
X236.5Y-116.45
X236.5Y-118.45
X236.5Y-120.45
X236.5Y-122.45
X236.5Y-124.45
T2
X50.479Y-138.458
X53.079Y-141.558
X53.679Y-138.558
X55.1Y-157.3
X55.1Y-158.6
X56.4Y-157.3
X56.4Y-158.6
X59.8Y-147.05
X59.979Y-143.358
X62.579Y-147.258
X67.25Y-137.2
X69.15Y-158.6
X72.05Y-151.8
X77.611Y-138.435
X77.7Y-140.85
X78.85Y-151.8
X80.45Y-150.8
X84.727Y-149.458
X85.079Y-152.358
X110.379Y-159.558
X120.779Y-150.058
X120.779Y-153.058
X122.029Y-151.558
X123.279Y-150.058
X123.279Y-153.058
X126.25Y-139.6
X132.579Y-151.458
X135.45Y-159.0
X137.3Y-152.35
X138.979Y-156.958
X139.079Y-145.358
X142.979Y-156.958
X145.779Y-155.658
X150.679Y-156.958
X153.379Y-155.658
X157.9Y-156.75
X160.6Y-155.558
T4
X146.654Y-140.173
X146.654Y-142.713
T5
X77.239Y-145.108
X79.779Y-145.108
X82.319Y-145.108
X84.859Y-145.108
X87.399Y-145.108
X89.939Y-145.108
X92.479Y-145.108
T3
X71.13Y-154.145G85X71.13Y-153.045
G05
X71.13Y-158.165G85X71.13Y-157.365
G05
X79.77Y-154.145G85X79.77Y-153.045
G05
X79.77Y-158.165G85X79.77Y-157.365
G05
T0
M30
