G04 #@! TF.GenerationSoftware,KiCad,Pcbnew,(6.0.2)*
G04 #@! TF.CreationDate,2022-08-28T20:21:12+12:00*
G04 #@! TF.ProjectId,Wordclock,576f7264-636c-46f6-936b-2e6b69636164,1*
G04 #@! TF.SameCoordinates,Original*
G04 #@! TF.FileFunction,Soldermask,Bot*
G04 #@! TF.FilePolarity,Negative*
%FSLAX46Y46*%
G04 Gerber Fmt 4.6, Leading zero omitted, Abs format (unit mm)*
G04 Created by KiCad (PCBNEW (6.0.2)) date 2022-08-28 20:21:12*
%MOMM*%
%LPD*%
G01*
G04 APERTURE LIST*
%ADD10C,0.400000*%
%ADD11R,1.800000X1.800000*%
%ADD12C,1.800000*%
%ADD13C,1.448000*%
%ADD14R,1.200000X2.500000*%
%ADD15C,2.500000*%
%ADD16R,1.700000X1.700000*%
%ADD17O,1.700000X1.700000*%
%ADD18C,0.600000*%
%ADD19O,0.900000X1.700000*%
%ADD20O,0.900000X2.000000*%
%ADD21R,1.700000X1.000000*%
G04 APERTURE END LIST*
D10*
X57400000Y-63000000D03*
X58800000Y-61000000D03*
X59500000Y-63000000D03*
X57400000Y-61000000D03*
X58100000Y-63000000D03*
X59500000Y-61000000D03*
X58100000Y-61000000D03*
X58800000Y-63000000D03*
X242950000Y-162400000D03*
X242250000Y-162400000D03*
X241550000Y-162400000D03*
X243650000Y-162400000D03*
D11*
X146653965Y-140173446D03*
D12*
X146653965Y-142713446D03*
D10*
X178100000Y-32400000D03*
X177400000Y-32400000D03*
X179500000Y-32400000D03*
X178800000Y-32400000D03*
X35320000Y-160410000D03*
X34620000Y-160410000D03*
X33920000Y-160410000D03*
X33220000Y-160410000D03*
X137400000Y-83400000D03*
X138800000Y-83400000D03*
X138800000Y-81400000D03*
X139500000Y-81400000D03*
X138100000Y-83400000D03*
X139500000Y-83400000D03*
X138100000Y-81400000D03*
X137400000Y-81400000D03*
X178800000Y-81400000D03*
X178100000Y-83400000D03*
X179500000Y-81400000D03*
X178800000Y-83400000D03*
X177400000Y-83400000D03*
X177400000Y-81400000D03*
X178100000Y-81400000D03*
X179500000Y-83400000D03*
X178100000Y-71200000D03*
X178800000Y-73200000D03*
X178800000Y-71200000D03*
X178100000Y-73200000D03*
X179500000Y-71200000D03*
X177400000Y-71200000D03*
X179500000Y-73200000D03*
X177400000Y-73200000D03*
X217400000Y-50800000D03*
X219500000Y-50800000D03*
X219500000Y-52800000D03*
X217400000Y-52800000D03*
X218100000Y-52800000D03*
X218100000Y-50800000D03*
X218800000Y-52800000D03*
X218800000Y-50800000D03*
X219500000Y-132400000D03*
X218800000Y-132400000D03*
X217400000Y-132400000D03*
X218100000Y-132400000D03*
X98100000Y-50800000D03*
X97400000Y-52800000D03*
X98800000Y-50800000D03*
X97400000Y-50800000D03*
X99500000Y-50800000D03*
X99500000Y-52800000D03*
X98100000Y-52800000D03*
X98800000Y-52800000D03*
D13*
X222500000Y-25000000D03*
D14*
X235625000Y-44850000D03*
X233625000Y-44850000D03*
X231625000Y-44850000D03*
D10*
X58800000Y-40600000D03*
X59500000Y-42600000D03*
X59500000Y-40600000D03*
X57400000Y-40600000D03*
X57400000Y-42600000D03*
X58100000Y-40600000D03*
X58100000Y-42600000D03*
X58800000Y-42600000D03*
X243670000Y-32400000D03*
X241570000Y-32400000D03*
X242270000Y-32400000D03*
X242970000Y-32400000D03*
D15*
X163050000Y-157650000D03*
D10*
X218800000Y-162400000D03*
X218100000Y-162400000D03*
X219500000Y-162400000D03*
X217400000Y-162400000D03*
X179500000Y-132400000D03*
X178800000Y-132400000D03*
X178100000Y-132400000D03*
X177400000Y-132400000D03*
D14*
X235625000Y-85650000D03*
X233625000Y-85650000D03*
X231625000Y-85650000D03*
D10*
X217400000Y-32400000D03*
X218800000Y-32400000D03*
X218100000Y-32400000D03*
X219500000Y-32400000D03*
X98100000Y-93600000D03*
X98800000Y-91600000D03*
X97400000Y-91600000D03*
X99500000Y-93600000D03*
X98100000Y-91600000D03*
X98800000Y-93600000D03*
X99500000Y-91600000D03*
X97400000Y-93600000D03*
X33230000Y-32400000D03*
X33930000Y-32400000D03*
X35330000Y-32400000D03*
X34630000Y-32400000D03*
D14*
X41275000Y-79150000D03*
X43275000Y-79150000D03*
X45275000Y-79150000D03*
D10*
X138800000Y-32400000D03*
X138100000Y-32400000D03*
X137400000Y-32400000D03*
X139500000Y-32400000D03*
X178100000Y-122200000D03*
X177400000Y-124200000D03*
X177400000Y-122200000D03*
X179500000Y-122200000D03*
X179500000Y-124200000D03*
X178800000Y-122200000D03*
X178100000Y-124200000D03*
X178800000Y-124200000D03*
X99500000Y-61000000D03*
X98100000Y-61000000D03*
X98800000Y-61000000D03*
X98800000Y-63000000D03*
X97400000Y-61000000D03*
X98100000Y-63000000D03*
X97400000Y-63000000D03*
X99500000Y-63000000D03*
X218800000Y-103800000D03*
X217400000Y-103800000D03*
X217400000Y-101800000D03*
X218100000Y-101800000D03*
X219500000Y-101800000D03*
X219500000Y-103800000D03*
X218100000Y-103800000D03*
X218800000Y-101800000D03*
D16*
X77238965Y-145108446D03*
D17*
X79778965Y-145108446D03*
X82318965Y-145108446D03*
X84858965Y-145108446D03*
X87398965Y-145108446D03*
X89938965Y-145108446D03*
X92478965Y-145108446D03*
D10*
X58800000Y-114000000D03*
X59500000Y-112000000D03*
X58100000Y-112000000D03*
X57400000Y-114000000D03*
X58100000Y-114000000D03*
X57400000Y-112000000D03*
X58800000Y-112000000D03*
X59500000Y-114000000D03*
X178100000Y-63000000D03*
X179500000Y-61000000D03*
X178100000Y-61000000D03*
X178800000Y-63000000D03*
X177400000Y-61000000D03*
X178800000Y-61000000D03*
X177400000Y-63000000D03*
X179500000Y-63000000D03*
D14*
X41275000Y-99550000D03*
X43275000Y-99550000D03*
X45275000Y-99550000D03*
X41275000Y-119950000D03*
X43275000Y-119950000D03*
X45275000Y-119950000D03*
D10*
X139500000Y-63000000D03*
X139500000Y-61000000D03*
X138800000Y-63000000D03*
X138100000Y-61000000D03*
X138800000Y-61000000D03*
X138100000Y-63000000D03*
X137400000Y-61000000D03*
X137400000Y-63000000D03*
D14*
X235625000Y-89700000D03*
X233625000Y-89700000D03*
X231625000Y-89700000D03*
D10*
X218100000Y-71200000D03*
X218100000Y-73200000D03*
X218800000Y-73200000D03*
X217400000Y-73200000D03*
X217400000Y-71200000D03*
X219500000Y-71200000D03*
X218800000Y-71200000D03*
X219500000Y-73200000D03*
X137400000Y-93600000D03*
X139500000Y-93600000D03*
X138100000Y-93600000D03*
X138800000Y-91600000D03*
X137400000Y-91600000D03*
X139500000Y-91600000D03*
X138800000Y-93600000D03*
X138100000Y-91600000D03*
D13*
X42500000Y-167500000D03*
D15*
X51200000Y-157650000D03*
D14*
X41275000Y-115900000D03*
X43275000Y-115900000D03*
X45275000Y-115900000D03*
X50450000Y-135650000D03*
X52450000Y-135650000D03*
X54450000Y-135650000D03*
D10*
X138100000Y-42600000D03*
X138800000Y-42600000D03*
X137400000Y-42600000D03*
X139500000Y-40600000D03*
X138100000Y-40600000D03*
X138800000Y-40600000D03*
X139500000Y-42600000D03*
X137400000Y-40600000D03*
D18*
X78340000Y-154075000D03*
X72560000Y-154075000D03*
D19*
X79770000Y-157765000D03*
X71130000Y-157765000D03*
D20*
X79770000Y-153595000D03*
X71130000Y-153595000D03*
D14*
X41275000Y-136300000D03*
X43275000Y-136300000D03*
X45275000Y-136300000D03*
X41275000Y-54700000D03*
X43275000Y-54700000D03*
X45275000Y-54700000D03*
D10*
X219500000Y-124200000D03*
X218800000Y-124200000D03*
X219500000Y-122200000D03*
X217400000Y-122200000D03*
X218800000Y-122200000D03*
X217400000Y-124200000D03*
X218100000Y-122200000D03*
X218100000Y-124200000D03*
X138800000Y-134400000D03*
X139500000Y-134400000D03*
X138100000Y-132400000D03*
X138800000Y-132400000D03*
X138100000Y-134400000D03*
X139500000Y-132400000D03*
X137400000Y-132400000D03*
X137400000Y-134400000D03*
X178100000Y-91600000D03*
X178100000Y-93600000D03*
X177400000Y-93600000D03*
X179500000Y-91600000D03*
X178800000Y-93600000D03*
X178800000Y-91600000D03*
X179500000Y-93600000D03*
X177400000Y-91600000D03*
X217400000Y-83400000D03*
X218100000Y-83400000D03*
X219500000Y-83400000D03*
X219500000Y-81400000D03*
X218800000Y-83400000D03*
X218800000Y-81400000D03*
X217400000Y-81400000D03*
X218100000Y-81400000D03*
D14*
X235625000Y-110100000D03*
X233625000Y-110100000D03*
X231625000Y-110100000D03*
D10*
X178100000Y-114000000D03*
X177400000Y-112000000D03*
X177400000Y-114000000D03*
X178800000Y-112000000D03*
X178800000Y-114000000D03*
X179500000Y-112000000D03*
X179500000Y-114000000D03*
X178100000Y-112000000D03*
D13*
X42500000Y-25000000D03*
D10*
X98800000Y-40600000D03*
X97400000Y-40600000D03*
X98800000Y-42600000D03*
X99500000Y-42600000D03*
X99500000Y-40600000D03*
X98100000Y-40600000D03*
X97400000Y-42600000D03*
X98100000Y-42600000D03*
X217400000Y-61000000D03*
X218800000Y-61000000D03*
X217400000Y-63000000D03*
X219500000Y-61000000D03*
X218100000Y-63000000D03*
X218800000Y-63000000D03*
X218100000Y-61000000D03*
X219500000Y-63000000D03*
X58800000Y-50800000D03*
X58100000Y-52800000D03*
X59500000Y-50800000D03*
X57400000Y-52800000D03*
X58100000Y-50800000D03*
X59500000Y-52800000D03*
X58800000Y-52800000D03*
X57400000Y-50800000D03*
X138100000Y-52800000D03*
X139500000Y-50800000D03*
X139500000Y-52800000D03*
X138100000Y-50800000D03*
X138800000Y-50800000D03*
X138800000Y-52800000D03*
X137400000Y-50800000D03*
X137400000Y-52800000D03*
D13*
X235000000Y-167500000D03*
D14*
X41275000Y-58750000D03*
X43275000Y-58750000D03*
X45275000Y-58750000D03*
D10*
X97400000Y-132400000D03*
X98800000Y-132400000D03*
X99500000Y-134400000D03*
X97400000Y-134400000D03*
X98100000Y-132400000D03*
X98800000Y-134400000D03*
X99500000Y-132400000D03*
X98100000Y-134400000D03*
X137400000Y-114000000D03*
X139500000Y-112000000D03*
X138100000Y-114000000D03*
X137400000Y-112000000D03*
X138800000Y-114000000D03*
X138100000Y-112000000D03*
X138800000Y-112000000D03*
X139500000Y-114000000D03*
D14*
X41275000Y-38350000D03*
X43275000Y-38350000D03*
X45275000Y-38350000D03*
D10*
X99500000Y-32400000D03*
X98800000Y-32400000D03*
X97400000Y-32400000D03*
X98100000Y-32400000D03*
X219500000Y-40600000D03*
X217400000Y-42600000D03*
X217400000Y-40600000D03*
X218800000Y-40600000D03*
X219500000Y-42600000D03*
X218100000Y-40600000D03*
X218800000Y-42600000D03*
X218100000Y-42600000D03*
X98100000Y-122200000D03*
X98100000Y-124200000D03*
X99500000Y-122200000D03*
X97400000Y-124200000D03*
X97400000Y-122200000D03*
X99500000Y-124200000D03*
X98800000Y-124200000D03*
X98800000Y-122200000D03*
X58100000Y-134400000D03*
X58800000Y-134400000D03*
X58100000Y-132400000D03*
X57400000Y-134400000D03*
X58800000Y-132400000D03*
X57400000Y-132400000D03*
X59500000Y-132400000D03*
X59500000Y-134400000D03*
X59500000Y-32400000D03*
X58800000Y-32400000D03*
X57400000Y-32400000D03*
X58100000Y-32400000D03*
X138800000Y-103800000D03*
X138800000Y-101800000D03*
X137400000Y-101800000D03*
X138100000Y-101800000D03*
X138100000Y-103800000D03*
X137400000Y-103800000D03*
X139500000Y-101800000D03*
X139500000Y-103800000D03*
X138100000Y-71200000D03*
X138800000Y-71200000D03*
X138800000Y-73200000D03*
X139500000Y-71200000D03*
X137400000Y-73200000D03*
X138100000Y-73200000D03*
X139500000Y-73200000D03*
X137400000Y-71200000D03*
D14*
X235625000Y-48900000D03*
X233625000Y-48900000D03*
X231625000Y-48900000D03*
X235625000Y-106050000D03*
X233625000Y-106050000D03*
X231625000Y-106050000D03*
D10*
X58100000Y-71200000D03*
X59500000Y-71200000D03*
X58800000Y-73200000D03*
X58800000Y-71200000D03*
X57400000Y-71200000D03*
X57400000Y-73200000D03*
X59500000Y-73200000D03*
X58100000Y-73200000D03*
D15*
X163050000Y-137150000D03*
D10*
X98100000Y-101800000D03*
X97400000Y-103800000D03*
X98800000Y-101800000D03*
X98100000Y-103800000D03*
X99500000Y-103800000D03*
X97400000Y-101800000D03*
X98800000Y-103800000D03*
X99500000Y-101800000D03*
X98100000Y-114000000D03*
X99500000Y-112000000D03*
X99500000Y-114000000D03*
X97400000Y-112000000D03*
X98100000Y-112000000D03*
X97400000Y-114000000D03*
X98800000Y-114000000D03*
X98800000Y-112000000D03*
X98100000Y-81400000D03*
X98800000Y-83400000D03*
X97400000Y-83400000D03*
X98800000Y-81400000D03*
X99500000Y-81400000D03*
X97400000Y-81400000D03*
X99500000Y-83400000D03*
X98100000Y-83400000D03*
D15*
X92800000Y-138750000D03*
D10*
X97400000Y-160400000D03*
X98800000Y-160400000D03*
X99500000Y-160400000D03*
X98100000Y-160400000D03*
X139500000Y-122200000D03*
X139500000Y-124200000D03*
X138100000Y-122200000D03*
X138800000Y-122200000D03*
X138100000Y-124200000D03*
X137400000Y-124200000D03*
X138800000Y-124200000D03*
X137400000Y-122200000D03*
X178100000Y-101800000D03*
X178800000Y-101800000D03*
X178800000Y-103800000D03*
X177400000Y-101800000D03*
X179500000Y-103800000D03*
X178100000Y-103800000D03*
X177400000Y-103800000D03*
X179500000Y-101800000D03*
X179500000Y-52800000D03*
X178100000Y-50800000D03*
X178100000Y-52800000D03*
X177400000Y-52800000D03*
X177400000Y-50800000D03*
X179500000Y-50800000D03*
X178800000Y-50800000D03*
X178800000Y-52800000D03*
X178100000Y-40600000D03*
X179500000Y-40600000D03*
X179500000Y-42600000D03*
X178800000Y-40600000D03*
X177400000Y-42600000D03*
X178800000Y-42600000D03*
X178100000Y-42600000D03*
X177400000Y-40600000D03*
X178800000Y-162400000D03*
X178100000Y-162400000D03*
X177400000Y-162400000D03*
X179500000Y-162400000D03*
D14*
X235625000Y-65250000D03*
X233625000Y-65250000D03*
X231625000Y-65250000D03*
D10*
X58100000Y-91600000D03*
X59500000Y-93600000D03*
X58800000Y-91600000D03*
X58100000Y-93600000D03*
X57400000Y-93600000D03*
X58800000Y-93600000D03*
X59500000Y-91600000D03*
X57400000Y-91600000D03*
X138100000Y-160400000D03*
X137400000Y-160400000D03*
X138800000Y-160400000D03*
X139500000Y-160400000D03*
X218100000Y-91600000D03*
X218100000Y-93600000D03*
X218800000Y-93600000D03*
X217400000Y-91600000D03*
X218800000Y-91600000D03*
X217400000Y-93600000D03*
X219500000Y-91600000D03*
X219500000Y-93600000D03*
D14*
X41275000Y-75100000D03*
X43275000Y-75100000D03*
X45275000Y-75100000D03*
D10*
X59500000Y-101800000D03*
X58800000Y-101800000D03*
X57400000Y-101800000D03*
X58100000Y-101800000D03*
X58100000Y-103800000D03*
X59500000Y-103800000D03*
X57400000Y-103800000D03*
X58800000Y-103800000D03*
X99500000Y-73200000D03*
X98800000Y-71200000D03*
X97400000Y-73200000D03*
X98100000Y-73200000D03*
X98800000Y-73200000D03*
X99500000Y-71200000D03*
X97400000Y-71200000D03*
X98100000Y-71200000D03*
D14*
X235625000Y-28500000D03*
X233625000Y-28500000D03*
X231625000Y-28500000D03*
X235625000Y-126450000D03*
X233625000Y-126450000D03*
X231625000Y-126450000D03*
X41275000Y-95500000D03*
X43275000Y-95500000D03*
X45275000Y-95500000D03*
D10*
X243650000Y-132400000D03*
X242250000Y-132400000D03*
X242950000Y-132400000D03*
X241550000Y-132400000D03*
D14*
X235625000Y-69300000D03*
X233625000Y-69300000D03*
X231625000Y-69300000D03*
D10*
X58100000Y-124200000D03*
X58100000Y-122200000D03*
X58800000Y-124200000D03*
X57400000Y-124200000D03*
X59500000Y-124200000D03*
X57400000Y-122200000D03*
X58800000Y-122200000D03*
X59500000Y-122200000D03*
X58400000Y-160400000D03*
X59100000Y-160400000D03*
X59800000Y-160400000D03*
X60500000Y-160400000D03*
X218100000Y-114000000D03*
X217400000Y-114000000D03*
X218100000Y-112000000D03*
X218800000Y-114000000D03*
X217400000Y-112000000D03*
X219500000Y-114000000D03*
X219500000Y-112000000D03*
X218800000Y-112000000D03*
X58800000Y-83400000D03*
X58800000Y-81400000D03*
X57400000Y-81400000D03*
X59500000Y-83400000D03*
X59500000Y-81400000D03*
X57400000Y-83400000D03*
X58100000Y-83400000D03*
X58100000Y-81400000D03*
D21*
X107900000Y-144500000D03*
X101600000Y-144500000D03*
X107900000Y-148300000D03*
X101600000Y-148300000D03*
X101600000Y-151900000D03*
X107900000Y-151900000D03*
X107900000Y-155700000D03*
X101600000Y-155700000D03*
X107900000Y-136900000D03*
X101600000Y-136900000D03*
X107900000Y-140700000D03*
X101600000Y-140700000D03*
M02*
