%FSLAX45Y45*%
G04 Gerber Fmt 4.5, Leading zero omitted, Abs format (unit mm)*
G04 Created by KiCad (PCBNEW (6.0.2)) date 2022-08-28 20:21:15*
%MOMM*%
%LPD*%
G01*
G04 APERTURE LIST*
%TA.AperFunction,Profile*%
%ADD10C,0.050000*%
%TD*%
%TA.AperFunction,Profile*%
%ADD11C,0.038100*%
%TD*%
%ADD12C,0.200000*%
%ADD13C,0.040000*%
%ADD14C,0.060000*%
%ADD15C,0.115200*%
%ADD16C,0.250000*%
G04 APERTURE END LIST*
D10*
X18045000Y-8340000D02*
X21645000Y-8340000D01*
X5645000Y-9360000D02*
X5192500Y-9360000D01*
D11*
X10045000Y-16240000D02*
X13645000Y-16240000D01*
X3927500Y-5750000D02*
X3927500Y-7635000D01*
D10*
X6045000Y-7120000D02*
X9645000Y-7120000D01*
X6045000Y-3240000D02*
X9645000Y-3240000D01*
X21645000Y-5080000D02*
X18045000Y-5080000D01*
D11*
X22540000Y-13240000D02*
X22497500Y-13240000D01*
X4727855Y-7170355D02*
X4727500Y-7635000D01*
D10*
X10045000Y-8140000D02*
X13645000Y-8140000D01*
D11*
X4727855Y-13290355D02*
X4727500Y-13755000D01*
D10*
X13645000Y-4260000D02*
X10045000Y-4260000D01*
X17645000Y-8340000D02*
X14045000Y-8340000D01*
D11*
X3228000Y-3040000D02*
X3227500Y-2025000D01*
D10*
X10045000Y-6100000D02*
X13645000Y-6100000D01*
X13645000Y-7320000D02*
X10045000Y-7320000D01*
X18045000Y-6300000D02*
X21645000Y-6300000D01*
X22962145Y-12270355D02*
G75*
G03*
X22912145Y-12220355I-50000J0D01*
G01*
D11*
X13645000Y-3040000D02*
X10045000Y-3040000D01*
D10*
X18045000Y-4060000D02*
X21645000Y-4060000D01*
D11*
X22962500Y-10730000D02*
X23762500Y-10730000D01*
X22045000Y-16240000D02*
X24060000Y-16240000D01*
D10*
X17645000Y-5280000D02*
X14045000Y-5280000D01*
D11*
X17645000Y-3040000D02*
X14045000Y-3040000D01*
D10*
X18045000Y-6100000D02*
X21645000Y-6100000D01*
X5645000Y-7320000D02*
X5192500Y-7320000D01*
D11*
X9645000Y-3040000D02*
X6045000Y-3040000D01*
X3927500Y-7635000D02*
X4727500Y-7635000D01*
X22962500Y-6650000D02*
X23762500Y-6650000D01*
D10*
X6045000Y-9160000D02*
X9645000Y-9160000D01*
X21645000Y-7320000D02*
X18045000Y-7320000D01*
D11*
X22540000Y-9160000D02*
X22497500Y-9160000D01*
D10*
X22962145Y-8190355D02*
G75*
G03*
X22912145Y-8140355I-50000J0D01*
G01*
D11*
X5745000Y-16240000D02*
X3627000Y-16241000D01*
D10*
X14045000Y-7120000D02*
X17645000Y-7120000D01*
X4777855Y-11200355D02*
X5645000Y-11200000D01*
X10045000Y-11200000D02*
X13645000Y-11200000D01*
X9645000Y-4060000D02*
X6045000Y-4060000D01*
D11*
X22962145Y-9309645D02*
X22962500Y-8845000D01*
D10*
X4727855Y-8289645D02*
G75*
G03*
X4777855Y-8339645I50000J0D01*
G01*
X10045000Y-16040000D02*
X13645000Y-16040000D01*
X5150000Y-6100000D02*
X5645000Y-6100000D01*
X9645000Y-10380000D02*
X6045000Y-10380000D01*
X4777855Y-4259645D02*
X5645000Y-4260000D01*
X13645000Y-5280000D02*
X10045000Y-5280000D01*
D11*
X3927500Y-13755000D02*
X4727500Y-13755000D01*
X24460000Y-13240000D02*
X24462000Y-3240000D01*
D10*
X22540000Y-8340000D02*
X22045000Y-8340000D01*
X17645000Y-10380000D02*
X14045000Y-10380000D01*
D11*
X3927500Y-9830000D02*
X3927500Y-11715000D01*
X14045000Y-16240000D02*
X16778000Y-16240000D01*
D10*
X9645000Y-12220000D02*
X6045000Y-12220000D01*
X6045000Y-13240000D02*
X9645000Y-13240000D01*
X4777855Y-9160355D02*
X5645000Y-9160000D01*
X17645000Y-7320000D02*
X14045000Y-7320000D01*
D11*
X3927500Y-5595000D02*
X4727500Y-5595000D01*
X16577896Y-13640000D02*
G75*
G03*
X16377896Y-13440000I-200000J0D01*
G01*
D10*
X6045000Y-7320000D02*
X9645000Y-7320000D01*
X22912145Y-10180355D02*
X22045000Y-10180000D01*
D11*
X22812000Y-2525000D02*
G75*
G03*
X22762000Y-2575000I0J-50000D01*
G01*
X18045000Y-16040000D02*
X21645000Y-16040000D01*
X22962500Y-4610000D02*
X22962145Y-4110355D01*
X4727500Y-5750000D02*
X4727855Y-6249645D01*
X23762500Y-4610000D02*
X23762500Y-2725000D01*
X22540000Y-6300000D02*
X22540000Y-7120000D01*
X22045000Y-16040000D02*
X24060000Y-16040000D01*
D10*
X9645000Y-6300000D02*
X6045000Y-6300000D01*
D11*
X22962500Y-8690000D02*
X22962145Y-8190355D01*
X22540000Y-5080000D02*
X22497500Y-5080000D01*
D10*
X22912145Y-9359645D02*
X22045000Y-9360000D01*
X9645000Y-13440000D02*
X6045000Y-13440000D01*
X10045000Y-4060000D02*
X13645000Y-4060000D01*
D11*
X24460000Y-13440000D02*
X24460000Y-16040000D01*
D10*
X9645000Y-6100000D02*
X6045000Y-6100000D01*
D11*
X5150000Y-11400000D02*
X5192500Y-11400000D01*
X23762500Y-6650000D02*
X23762500Y-4765000D01*
X3627000Y-16041000D02*
X3728000Y-16041000D01*
D10*
X21645000Y-7120000D02*
X18045000Y-7120000D01*
X4727855Y-6249645D02*
G75*
G03*
X4777855Y-6299645I50000J0D01*
G01*
X16377896Y-13440000D02*
X14045000Y-13440000D01*
X6045000Y-5080000D02*
X9645000Y-5080000D01*
D11*
X22962145Y-5229645D02*
X22962500Y-4765000D01*
D10*
X13645000Y-11400000D02*
X10045000Y-11400000D01*
D11*
X3927500Y-11870000D02*
X3927500Y-13755000D01*
X5150000Y-3240000D02*
X5192500Y-3240000D01*
D10*
X4777855Y-6299645D02*
X5645000Y-6300000D01*
X22912145Y-12220355D02*
X22045000Y-12220000D01*
X5645000Y-5280000D02*
X5192500Y-5280000D01*
X18045000Y-10180000D02*
X21645000Y-10180000D01*
D11*
X24063000Y-3240000D02*
X23962000Y-3240000D01*
D10*
X18045000Y-10380000D02*
X21645000Y-10380000D01*
D11*
X23762500Y-10885000D02*
X22962500Y-10885000D01*
D10*
X9645000Y-4260000D02*
X6045000Y-4260000D01*
D11*
X4727500Y-7790000D02*
X3927500Y-7790000D01*
X3227500Y-17240000D02*
X3227000Y-16241000D01*
X22962145Y-7269645D02*
X22962500Y-6805000D01*
D10*
X21645000Y-9360000D02*
X18045000Y-9360000D01*
X17645000Y-3240000D02*
X14045000Y-3240000D01*
D11*
X18045000Y-16240000D02*
X21645000Y-16240000D01*
X22540000Y-10380000D02*
X22540000Y-11200000D01*
D10*
X14045000Y-11200000D02*
X17645000Y-11200000D01*
D11*
X4727500Y-5750000D02*
X3927500Y-5750000D01*
D10*
X17645000Y-6300000D02*
X14045000Y-6300000D01*
X5150000Y-12220000D02*
X5645000Y-12220000D01*
X9645000Y-12420000D02*
X6045000Y-12420000D01*
D11*
X22962500Y-12770000D02*
X22962145Y-12270355D01*
X24062000Y-3040000D02*
X23962000Y-3040000D01*
D10*
X22912145Y-7319645D02*
X22045000Y-7320000D01*
X13645000Y-10380000D02*
X10045000Y-10380000D01*
D11*
X17645000Y-16240000D02*
X16778000Y-16240000D01*
X22540000Y-8340000D02*
X22540000Y-9160000D01*
X3927500Y-3710000D02*
X3927500Y-5595000D01*
D10*
X17645000Y-11400000D02*
X14045000Y-11400000D01*
X22045000Y-11200000D02*
X22497500Y-11200000D01*
X4727855Y-10329645D02*
G75*
G03*
X4777855Y-10379645I50000J0D01*
G01*
D11*
X22962500Y-8690000D02*
X23762500Y-8690000D01*
D10*
X22912145Y-3239645D02*
G75*
G03*
X22962145Y-3189645I0J50000D01*
G01*
D11*
X22045000Y-3040000D02*
X22762000Y-3040000D01*
D10*
X14045000Y-5080000D02*
X17645000Y-5080000D01*
X10045000Y-9160000D02*
X13645000Y-9160000D01*
D11*
X3728000Y-16041000D02*
X3728000Y-3240000D01*
X24060000Y-13240000D02*
X23962000Y-13240000D01*
D10*
X21645000Y-5280000D02*
X18045000Y-5280000D01*
X22912145Y-11399645D02*
G75*
G03*
X22962145Y-11349645I0J50000D01*
G01*
D11*
X23762500Y-2725000D02*
X22962500Y-2725000D01*
D10*
X5150000Y-8140000D02*
X5645000Y-8140000D01*
X22540000Y-12420000D02*
X22045000Y-12420000D01*
X13645000Y-6300000D02*
X10045000Y-6300000D01*
D11*
X5150000Y-9360000D02*
X5192500Y-9360000D01*
D10*
X4777855Y-10379645D02*
X5645000Y-10380000D01*
D11*
X22045000Y-13440000D02*
X23962000Y-13440000D01*
D10*
X22962145Y-10230355D02*
G75*
G03*
X22912145Y-10180355I-50000J0D01*
G01*
D11*
X23962000Y-13240000D02*
X23962000Y-3240000D01*
D10*
X17645000Y-4260000D02*
X14045000Y-4260000D01*
D11*
X22962500Y-4610000D02*
X23762500Y-4610000D01*
D10*
X5045000Y-16040000D02*
X5745000Y-16040000D01*
D11*
X6145000Y-16240000D02*
X9645000Y-16240000D01*
D10*
X14045000Y-6100000D02*
X17645000Y-6100000D01*
X22045000Y-5080000D02*
X22497500Y-5080000D01*
D11*
X4727500Y-11870000D02*
X3927500Y-11870000D01*
X5150000Y-4060000D02*
X5150000Y-3240000D01*
D10*
X14045000Y-10180000D02*
X17645000Y-10180000D01*
D11*
X3227000Y-16041000D02*
X3228000Y-3240000D01*
X24463000Y-17240000D02*
X3227500Y-17240000D01*
D10*
X18045000Y-8140000D02*
X21645000Y-8140000D01*
D11*
X23762500Y-4765000D02*
X22962500Y-4765000D01*
X5150000Y-10180000D02*
X5150000Y-9360000D01*
X21645000Y-3040000D02*
X18045000Y-3040000D01*
D10*
X22962145Y-4110355D02*
G75*
G03*
X22912145Y-4060355I-50000J0D01*
G01*
X5645000Y-13440000D02*
X4845000Y-13440000D01*
D11*
X24462000Y-3040000D02*
X24462500Y-2025000D01*
X22962500Y-12770000D02*
X23762500Y-12770000D01*
X17645000Y-16040000D02*
X16778000Y-16040000D01*
D10*
X4777855Y-9160355D02*
G75*
G03*
X4727855Y-9210355I0J-50000D01*
G01*
D11*
X23762500Y-6805000D02*
X22962500Y-6805000D01*
D10*
X4727855Y-12369645D02*
G75*
G03*
X4777855Y-12419645I50000J0D01*
G01*
D11*
X4727855Y-5130355D02*
X4727500Y-5595000D01*
X4727500Y-7790000D02*
X4727855Y-8289645D01*
D10*
X5150000Y-4060000D02*
X5645000Y-4060000D01*
X22962145Y-6150355D02*
G75*
G03*
X22912145Y-6100355I-50000J0D01*
G01*
X10045000Y-13240000D02*
X13645000Y-13240000D01*
X13645000Y-13440000D02*
X10045000Y-13440000D01*
X21645000Y-13240000D02*
X18045000Y-13240000D01*
X6045000Y-9360000D02*
X9645000Y-9360000D01*
D11*
X4727500Y-9830000D02*
X3927500Y-9830000D01*
D10*
X14045000Y-13240000D02*
X17645000Y-13240000D01*
D11*
X5150000Y-8140000D02*
X5150000Y-7320000D01*
D10*
X13645000Y-9360000D02*
X10045000Y-9360000D01*
X4777855Y-7120355D02*
G75*
G03*
X4727855Y-7170355I0J-50000D01*
G01*
X22045000Y-9160000D02*
X22497500Y-9160000D01*
X22912145Y-7319645D02*
G75*
G03*
X22962145Y-7269645I0J50000D01*
G01*
X5645000Y-11400000D02*
X5192500Y-11400000D01*
D11*
X24463000Y-17240000D02*
X24460000Y-16240000D01*
D10*
X4777855Y-12419645D02*
X5645000Y-12420000D01*
X22912145Y-11399645D02*
X22045000Y-11400000D01*
X22912145Y-6100355D02*
X22045000Y-6100000D01*
D11*
X3628000Y-3240000D02*
X3728000Y-3240000D01*
X4727500Y-3710000D02*
X4727855Y-4209645D01*
D10*
X9645000Y-8340000D02*
X6045000Y-8340000D01*
D11*
X3927500Y-11715000D02*
X4727500Y-11715000D01*
D10*
X6045000Y-5280000D02*
X9645000Y-5280000D01*
D11*
X22762000Y-2575000D02*
X22762000Y-3040000D01*
D10*
X4777855Y-11200355D02*
G75*
G03*
X4727855Y-11250355I0J-50000D01*
G01*
D11*
X16577896Y-13640000D02*
X16577896Y-14935845D01*
D10*
X4777855Y-5080355D02*
G75*
G03*
X4727855Y-5130355I0J-50000D01*
G01*
D11*
X22962145Y-11349645D02*
X22962500Y-10885000D01*
D10*
X14045000Y-8140000D02*
X17645000Y-8140000D01*
D11*
X16778000Y-13440000D02*
X16778000Y-16040000D01*
D10*
X17645000Y-12420000D02*
X14045000Y-12420000D01*
X10045000Y-7120000D02*
X13645000Y-7120000D01*
X4777855Y-8339645D02*
X5645000Y-8340000D01*
X17645000Y-9360000D02*
X14045000Y-9360000D01*
D11*
X22540000Y-7120000D02*
X22497500Y-7120000D01*
X4845000Y-15840000D02*
G75*
G03*
X5045000Y-16040000I200000J0D01*
G01*
X5150000Y-12220000D02*
X5150000Y-11400000D01*
X4727855Y-11250355D02*
X4727500Y-11715000D01*
X23962000Y-3040000D02*
X23962000Y-2575000D01*
X22540000Y-12420000D02*
X22540000Y-13240000D01*
D10*
X13645000Y-12420000D02*
X10045000Y-12420000D01*
X9645000Y-10180000D02*
X6045000Y-10180000D01*
D11*
X22812000Y-2525000D02*
X23912000Y-2525000D01*
X3927500Y-9675000D02*
X4727500Y-9675000D01*
X23762500Y-8845000D02*
X22962500Y-8845000D01*
X3927500Y-7790000D02*
X3927500Y-9675000D01*
D10*
X4777855Y-5080355D02*
X5645000Y-5080000D01*
X4777855Y-13240355D02*
G75*
G03*
X4727855Y-13290355I0J-50000D01*
G01*
D11*
X5150000Y-5280000D02*
X5192500Y-5280000D01*
X5150000Y-7320000D02*
X5192500Y-7320000D01*
D10*
X10045000Y-5080000D02*
X13645000Y-5080000D01*
X13645000Y-3240000D02*
X10045000Y-3240000D01*
X22912145Y-5279645D02*
G75*
G03*
X22962145Y-5229645I0J50000D01*
G01*
X5150000Y-10180000D02*
X5645000Y-10180000D01*
X14045000Y-9160000D02*
X17645000Y-9160000D01*
D11*
X22962500Y-6650000D02*
X22962145Y-6150355D01*
D10*
X21645000Y-3240000D02*
X18045000Y-3240000D01*
X9645000Y-8140000D02*
X6045000Y-8140000D01*
X22912145Y-5279645D02*
X22045000Y-5280000D01*
D11*
X4727500Y-3710000D02*
X3927500Y-3710000D01*
D10*
X13645000Y-8340000D02*
X10045000Y-8340000D01*
X18045000Y-12420000D02*
X21645000Y-12420000D01*
D11*
X16577896Y-14935845D02*
X16577896Y-15840000D01*
X16377896Y-16040000D02*
G75*
G03*
X16577896Y-15840000I0J200000D01*
G01*
D10*
X6045000Y-11400000D02*
X9645000Y-11400000D01*
X22540000Y-6300000D02*
X22045000Y-6300000D01*
D11*
X23762500Y-10730000D02*
X23762500Y-8845000D01*
D10*
X10045000Y-12220000D02*
X13645000Y-12220000D01*
D11*
X5150000Y-6100000D02*
X5150000Y-5280000D01*
D10*
X22912145Y-4060355D02*
X22045000Y-4060000D01*
D11*
X23962000Y-2575000D02*
G75*
G03*
X23912000Y-2525000I-50000J0D01*
G01*
X4727855Y-9210355D02*
X4727500Y-9675000D01*
D10*
X21645000Y-9160000D02*
X18045000Y-9160000D01*
X22912145Y-3239645D02*
X22045000Y-3240000D01*
X5645000Y-3240000D02*
X5192500Y-3240000D01*
X22045000Y-13240000D02*
X22497500Y-13240000D01*
D11*
X22962500Y-10730000D02*
X22962145Y-10230355D01*
X24060000Y-13440000D02*
X23962000Y-13440000D01*
X4845000Y-13440000D02*
X4845000Y-15840000D01*
D10*
X18045000Y-12220000D02*
X21645000Y-12220000D01*
X4777855Y-13240355D02*
X5645000Y-13240000D01*
X22540000Y-4260000D02*
X22045000Y-4260000D01*
D11*
X4727500Y-9830000D02*
X4727855Y-10329645D01*
D10*
X22045000Y-7120000D02*
X22497500Y-7120000D01*
D11*
X17645000Y-13440000D02*
X16778000Y-13440000D01*
D10*
X18045000Y-4260000D02*
X21645000Y-4260000D01*
X14045000Y-12220000D02*
X17645000Y-12220000D01*
D11*
X22962145Y-3189645D02*
X22962500Y-2725000D01*
D10*
X14045000Y-16040000D02*
X16377896Y-16040000D01*
D11*
X22540000Y-11200000D02*
X22497500Y-11200000D01*
D10*
X22912145Y-9359645D02*
G75*
G03*
X22962145Y-9309645I0J50000D01*
G01*
D11*
X22540000Y-4260000D02*
X22540000Y-5080000D01*
X5645000Y-3040000D02*
X3628000Y-3040000D01*
D10*
X4777855Y-7120355D02*
X5645000Y-7120000D01*
D11*
X24462500Y-2025000D02*
X3227500Y-2025000D01*
D10*
X6145000Y-16040000D02*
X9645000Y-16040000D01*
D11*
X23762500Y-8690000D02*
X23762500Y-6805000D01*
X4727500Y-11870000D02*
X4727855Y-12369645D01*
D10*
X22540000Y-10380000D02*
X22045000Y-10380000D01*
X10045000Y-10180000D02*
X13645000Y-10180000D01*
D11*
X23762500Y-12770000D02*
X23762500Y-10885000D01*
D10*
X22912145Y-8140355D02*
X22045000Y-8140000D01*
X21645000Y-11400000D02*
X18045000Y-11400000D01*
X21645000Y-11200000D02*
X18045000Y-11200000D01*
X4727855Y-4209645D02*
G75*
G03*
X4777855Y-4259645I50000J0D01*
G01*
X6045000Y-11200000D02*
X9645000Y-11200000D01*
D11*
X18045000Y-13440000D02*
X21645000Y-13440000D01*
D10*
X14045000Y-4060000D02*
X17645000Y-4060000D01*
D12*
D13*
X3302000Y-16021000D02*
X3342000Y-16061000D01*
X3342000Y-16021000D02*
X3302000Y-16061000D01*
X3303000Y-3220000D02*
X3343000Y-3260000D01*
X3343000Y-3220000D02*
X3303000Y-3260000D01*
X3372000Y-16021000D02*
X3412000Y-16061000D01*
X3412000Y-16021000D02*
X3372000Y-16061000D01*
X3373000Y-3220000D02*
X3413000Y-3260000D01*
X3413000Y-3220000D02*
X3373000Y-3260000D01*
X3442000Y-16021000D02*
X3482000Y-16061000D01*
X3482000Y-16021000D02*
X3442000Y-16061000D01*
X3443000Y-3220000D02*
X3483000Y-3260000D01*
X3483000Y-3220000D02*
X3443000Y-3260000D01*
X3512000Y-16021000D02*
X3552000Y-16061000D01*
X3552000Y-16021000D02*
X3512000Y-16061000D01*
X3513000Y-3220000D02*
X3553000Y-3260000D01*
X3553000Y-3220000D02*
X3513000Y-3260000D01*
X5720000Y-3220000D02*
X5760000Y-3260000D01*
X5760000Y-3220000D02*
X5720000Y-3260000D01*
X5720000Y-4040000D02*
X5760000Y-4080000D01*
X5760000Y-4040000D02*
X5720000Y-4080000D01*
X5720000Y-4240000D02*
X5760000Y-4280000D01*
X5760000Y-4240000D02*
X5720000Y-4280000D01*
X5720000Y-5060000D02*
X5760000Y-5100000D01*
X5760000Y-5060000D02*
X5720000Y-5100000D01*
X5720000Y-5260000D02*
X5760000Y-5300000D01*
X5760000Y-5260000D02*
X5720000Y-5300000D01*
X5720000Y-6080000D02*
X5760000Y-6120000D01*
X5760000Y-6080000D02*
X5720000Y-6120000D01*
X5720000Y-6280000D02*
X5760000Y-6320000D01*
X5760000Y-6280000D02*
X5720000Y-6320000D01*
X5720000Y-7100000D02*
X5760000Y-7140000D01*
X5760000Y-7100000D02*
X5720000Y-7140000D01*
X5720000Y-7300000D02*
X5760000Y-7340000D01*
X5760000Y-7300000D02*
X5720000Y-7340000D01*
X5720000Y-8120000D02*
X5760000Y-8160000D01*
X5760000Y-8120000D02*
X5720000Y-8160000D01*
X5720000Y-8320000D02*
X5760000Y-8360000D01*
X5760000Y-8320000D02*
X5720000Y-8360000D01*
X5720000Y-9140000D02*
X5760000Y-9180000D01*
X5760000Y-9140000D02*
X5720000Y-9180000D01*
X5720000Y-9340000D02*
X5760000Y-9380000D01*
X5760000Y-9340000D02*
X5720000Y-9380000D01*
X5720000Y-10160000D02*
X5760000Y-10200000D01*
X5760000Y-10160000D02*
X5720000Y-10200000D01*
X5720000Y-10360000D02*
X5760000Y-10400000D01*
X5760000Y-10360000D02*
X5720000Y-10400000D01*
X5720000Y-11180000D02*
X5760000Y-11220000D01*
X5760000Y-11180000D02*
X5720000Y-11220000D01*
X5720000Y-11380000D02*
X5760000Y-11420000D01*
X5760000Y-11380000D02*
X5720000Y-11420000D01*
X5720000Y-12200000D02*
X5760000Y-12240000D01*
X5760000Y-12200000D02*
X5720000Y-12240000D01*
X5720000Y-12400000D02*
X5760000Y-12440000D01*
X5760000Y-12400000D02*
X5720000Y-12440000D01*
X5720000Y-13220000D02*
X5760000Y-13260000D01*
X5760000Y-13220000D02*
X5720000Y-13260000D01*
X5720000Y-13420000D02*
X5760000Y-13460000D01*
X5760000Y-13420000D02*
X5720000Y-13460000D01*
X5790000Y-3220000D02*
X5830000Y-3260000D01*
X5830000Y-3220000D02*
X5790000Y-3260000D01*
X5790000Y-4040000D02*
X5830000Y-4080000D01*
X5830000Y-4040000D02*
X5790000Y-4080000D01*
X5790000Y-4240000D02*
X5830000Y-4280000D01*
X5830000Y-4240000D02*
X5790000Y-4280000D01*
X5790000Y-5060000D02*
X5830000Y-5100000D01*
X5830000Y-5060000D02*
X5790000Y-5100000D01*
X5790000Y-5260000D02*
X5830000Y-5300000D01*
X5830000Y-5260000D02*
X5790000Y-5300000D01*
X5790000Y-6080000D02*
X5830000Y-6120000D01*
X5830000Y-6080000D02*
X5790000Y-6120000D01*
X5790000Y-6280000D02*
X5830000Y-6320000D01*
X5830000Y-6280000D02*
X5790000Y-6320000D01*
X5790000Y-7100000D02*
X5830000Y-7140000D01*
X5830000Y-7100000D02*
X5790000Y-7140000D01*
X5790000Y-7300000D02*
X5830000Y-7340000D01*
X5830000Y-7300000D02*
X5790000Y-7340000D01*
X5790000Y-8120000D02*
X5830000Y-8160000D01*
X5830000Y-8120000D02*
X5790000Y-8160000D01*
X5790000Y-8320000D02*
X5830000Y-8360000D01*
X5830000Y-8320000D02*
X5790000Y-8360000D01*
X5790000Y-9140000D02*
X5830000Y-9180000D01*
X5830000Y-9140000D02*
X5790000Y-9180000D01*
X5790000Y-9340000D02*
X5830000Y-9380000D01*
X5830000Y-9340000D02*
X5790000Y-9380000D01*
X5790000Y-10160000D02*
X5830000Y-10200000D01*
X5830000Y-10160000D02*
X5790000Y-10200000D01*
X5790000Y-10360000D02*
X5830000Y-10400000D01*
X5830000Y-10360000D02*
X5790000Y-10400000D01*
X5790000Y-11180000D02*
X5830000Y-11220000D01*
X5830000Y-11180000D02*
X5790000Y-11220000D01*
X5790000Y-11380000D02*
X5830000Y-11420000D01*
X5830000Y-11380000D02*
X5790000Y-11420000D01*
X5790000Y-12200000D02*
X5830000Y-12240000D01*
X5830000Y-12200000D02*
X5790000Y-12240000D01*
X5790000Y-12400000D02*
X5830000Y-12440000D01*
X5830000Y-12400000D02*
X5790000Y-12440000D01*
X5790000Y-13220000D02*
X5830000Y-13260000D01*
X5830000Y-13220000D02*
X5790000Y-13260000D01*
X5790000Y-13420000D02*
X5830000Y-13460000D01*
X5830000Y-13420000D02*
X5790000Y-13460000D01*
X5820000Y-16020000D02*
X5860000Y-16060000D01*
X5860000Y-16020000D02*
X5820000Y-16060000D01*
X5860000Y-3220000D02*
X5900000Y-3260000D01*
X5900000Y-3220000D02*
X5860000Y-3260000D01*
X5860000Y-4040000D02*
X5900000Y-4080000D01*
X5900000Y-4040000D02*
X5860000Y-4080000D01*
X5860000Y-4240000D02*
X5900000Y-4280000D01*
X5900000Y-4240000D02*
X5860000Y-4280000D01*
X5860000Y-5060000D02*
X5900000Y-5100000D01*
X5900000Y-5060000D02*
X5860000Y-5100000D01*
X5860000Y-5260000D02*
X5900000Y-5300000D01*
X5900000Y-5260000D02*
X5860000Y-5300000D01*
X5860000Y-6080000D02*
X5900000Y-6120000D01*
X5900000Y-6080000D02*
X5860000Y-6120000D01*
X5860000Y-6280000D02*
X5900000Y-6320000D01*
X5900000Y-6280000D02*
X5860000Y-6320000D01*
X5860000Y-7100000D02*
X5900000Y-7140000D01*
X5900000Y-7100000D02*
X5860000Y-7140000D01*
X5860000Y-7300000D02*
X5900000Y-7340000D01*
X5900000Y-7300000D02*
X5860000Y-7340000D01*
X5860000Y-8120000D02*
X5900000Y-8160000D01*
X5900000Y-8120000D02*
X5860000Y-8160000D01*
X5860000Y-8320000D02*
X5900000Y-8360000D01*
X5900000Y-8320000D02*
X5860000Y-8360000D01*
X5860000Y-9140000D02*
X5900000Y-9180000D01*
X5900000Y-9140000D02*
X5860000Y-9180000D01*
X5860000Y-9340000D02*
X5900000Y-9380000D01*
X5900000Y-9340000D02*
X5860000Y-9380000D01*
X5860000Y-10160000D02*
X5900000Y-10200000D01*
X5900000Y-10160000D02*
X5860000Y-10200000D01*
X5860000Y-10360000D02*
X5900000Y-10400000D01*
X5900000Y-10360000D02*
X5860000Y-10400000D01*
X5860000Y-11180000D02*
X5900000Y-11220000D01*
X5900000Y-11180000D02*
X5860000Y-11220000D01*
X5860000Y-11380000D02*
X5900000Y-11420000D01*
X5900000Y-11380000D02*
X5860000Y-11420000D01*
X5860000Y-12200000D02*
X5900000Y-12240000D01*
X5900000Y-12200000D02*
X5860000Y-12240000D01*
X5860000Y-12400000D02*
X5900000Y-12440000D01*
X5900000Y-12400000D02*
X5860000Y-12440000D01*
X5860000Y-13220000D02*
X5900000Y-13260000D01*
X5900000Y-13220000D02*
X5860000Y-13260000D01*
X5860000Y-13420000D02*
X5900000Y-13460000D01*
X5900000Y-13420000D02*
X5860000Y-13460000D01*
X5890000Y-16020000D02*
X5930000Y-16060000D01*
X5930000Y-16020000D02*
X5890000Y-16060000D01*
X5930000Y-3220000D02*
X5970000Y-3260000D01*
X5970000Y-3220000D02*
X5930000Y-3260000D01*
X5930000Y-4040000D02*
X5970000Y-4080000D01*
X5970000Y-4040000D02*
X5930000Y-4080000D01*
X5930000Y-4240000D02*
X5970000Y-4280000D01*
X5970000Y-4240000D02*
X5930000Y-4280000D01*
X5930000Y-5060000D02*
X5970000Y-5100000D01*
X5970000Y-5060000D02*
X5930000Y-5100000D01*
X5930000Y-5260000D02*
X5970000Y-5300000D01*
X5970000Y-5260000D02*
X5930000Y-5300000D01*
X5930000Y-6080000D02*
X5970000Y-6120000D01*
X5970000Y-6080000D02*
X5930000Y-6120000D01*
X5930000Y-6280000D02*
X5970000Y-6320000D01*
X5970000Y-6280000D02*
X5930000Y-6320000D01*
X5930000Y-7100000D02*
X5970000Y-7140000D01*
X5970000Y-7100000D02*
X5930000Y-7140000D01*
X5930000Y-7300000D02*
X5970000Y-7340000D01*
X5970000Y-7300000D02*
X5930000Y-7340000D01*
X5930000Y-8120000D02*
X5970000Y-8160000D01*
X5970000Y-8120000D02*
X5930000Y-8160000D01*
X5930000Y-8320000D02*
X5970000Y-8360000D01*
X5970000Y-8320000D02*
X5930000Y-8360000D01*
X5930000Y-9140000D02*
X5970000Y-9180000D01*
X5970000Y-9140000D02*
X5930000Y-9180000D01*
X5930000Y-9340000D02*
X5970000Y-9380000D01*
X5970000Y-9340000D02*
X5930000Y-9380000D01*
X5930000Y-10160000D02*
X5970000Y-10200000D01*
X5970000Y-10160000D02*
X5930000Y-10200000D01*
X5930000Y-10360000D02*
X5970000Y-10400000D01*
X5970000Y-10360000D02*
X5930000Y-10400000D01*
X5930000Y-11180000D02*
X5970000Y-11220000D01*
X5970000Y-11180000D02*
X5930000Y-11220000D01*
X5930000Y-11380000D02*
X5970000Y-11420000D01*
X5970000Y-11380000D02*
X5930000Y-11420000D01*
X5930000Y-12200000D02*
X5970000Y-12240000D01*
X5970000Y-12200000D02*
X5930000Y-12240000D01*
X5930000Y-12400000D02*
X5970000Y-12440000D01*
X5970000Y-12400000D02*
X5930000Y-12440000D01*
X5930000Y-13220000D02*
X5970000Y-13260000D01*
X5970000Y-13220000D02*
X5930000Y-13260000D01*
X5930000Y-13420000D02*
X5970000Y-13460000D01*
X5970000Y-13420000D02*
X5930000Y-13460000D01*
X5960000Y-16020000D02*
X6000000Y-16060000D01*
X6000000Y-16020000D02*
X5960000Y-16060000D01*
X6030000Y-16020000D02*
X6070000Y-16060000D01*
X6070000Y-16020000D02*
X6030000Y-16060000D01*
X9720000Y-3220000D02*
X9760000Y-3260000D01*
X9760000Y-3220000D02*
X9720000Y-3260000D01*
X9720000Y-4040000D02*
X9760000Y-4080000D01*
X9760000Y-4040000D02*
X9720000Y-4080000D01*
X9720000Y-4240000D02*
X9760000Y-4280000D01*
X9760000Y-4240000D02*
X9720000Y-4280000D01*
X9720000Y-5060000D02*
X9760000Y-5100000D01*
X9760000Y-5060000D02*
X9720000Y-5100000D01*
X9720000Y-5260000D02*
X9760000Y-5300000D01*
X9760000Y-5260000D02*
X9720000Y-5300000D01*
X9720000Y-6080000D02*
X9760000Y-6120000D01*
X9760000Y-6080000D02*
X9720000Y-6120000D01*
X9720000Y-6280000D02*
X9760000Y-6320000D01*
X9760000Y-6280000D02*
X9720000Y-6320000D01*
X9720000Y-7100000D02*
X9760000Y-7140000D01*
X9760000Y-7100000D02*
X9720000Y-7140000D01*
X9720000Y-7300000D02*
X9760000Y-7340000D01*
X9760000Y-7300000D02*
X9720000Y-7340000D01*
X9720000Y-8120000D02*
X9760000Y-8160000D01*
X9760000Y-8120000D02*
X9720000Y-8160000D01*
X9720000Y-8320000D02*
X9760000Y-8360000D01*
X9760000Y-8320000D02*
X9720000Y-8360000D01*
X9720000Y-9140000D02*
X9760000Y-9180000D01*
X9760000Y-9140000D02*
X9720000Y-9180000D01*
X9720000Y-9340000D02*
X9760000Y-9380000D01*
X9760000Y-9340000D02*
X9720000Y-9380000D01*
X9720000Y-10160000D02*
X9760000Y-10200000D01*
X9760000Y-10160000D02*
X9720000Y-10200000D01*
X9720000Y-10360000D02*
X9760000Y-10400000D01*
X9760000Y-10360000D02*
X9720000Y-10400000D01*
X9720000Y-11180000D02*
X9760000Y-11220000D01*
X9760000Y-11180000D02*
X9720000Y-11220000D01*
X9720000Y-11380000D02*
X9760000Y-11420000D01*
X9760000Y-11380000D02*
X9720000Y-11420000D01*
X9720000Y-12200000D02*
X9760000Y-12240000D01*
X9760000Y-12200000D02*
X9720000Y-12240000D01*
X9720000Y-12400000D02*
X9760000Y-12440000D01*
X9760000Y-12400000D02*
X9720000Y-12440000D01*
X9720000Y-13220000D02*
X9760000Y-13260000D01*
X9760000Y-13220000D02*
X9720000Y-13260000D01*
X9720000Y-13420000D02*
X9760000Y-13460000D01*
X9760000Y-13420000D02*
X9720000Y-13460000D01*
X9720000Y-16020000D02*
X9760000Y-16060000D01*
X9760000Y-16020000D02*
X9720000Y-16060000D01*
X9790000Y-3220000D02*
X9830000Y-3260000D01*
X9830000Y-3220000D02*
X9790000Y-3260000D01*
X9790000Y-4040000D02*
X9830000Y-4080000D01*
X9830000Y-4040000D02*
X9790000Y-4080000D01*
X9790000Y-4240000D02*
X9830000Y-4280000D01*
X9830000Y-4240000D02*
X9790000Y-4280000D01*
X9790000Y-5060000D02*
X9830000Y-5100000D01*
X9830000Y-5060000D02*
X9790000Y-5100000D01*
X9790000Y-5260000D02*
X9830000Y-5300000D01*
X9830000Y-5260000D02*
X9790000Y-5300000D01*
X9790000Y-6080000D02*
X9830000Y-6120000D01*
X9830000Y-6080000D02*
X9790000Y-6120000D01*
X9790000Y-6280000D02*
X9830000Y-6320000D01*
X9830000Y-6280000D02*
X9790000Y-6320000D01*
X9790000Y-7100000D02*
X9830000Y-7140000D01*
X9830000Y-7100000D02*
X9790000Y-7140000D01*
X9790000Y-7300000D02*
X9830000Y-7340000D01*
X9830000Y-7300000D02*
X9790000Y-7340000D01*
X9790000Y-8120000D02*
X9830000Y-8160000D01*
X9830000Y-8120000D02*
X9790000Y-8160000D01*
X9790000Y-8320000D02*
X9830000Y-8360000D01*
X9830000Y-8320000D02*
X9790000Y-8360000D01*
X9790000Y-9140000D02*
X9830000Y-9180000D01*
X9830000Y-9140000D02*
X9790000Y-9180000D01*
X9790000Y-9340000D02*
X9830000Y-9380000D01*
X9830000Y-9340000D02*
X9790000Y-9380000D01*
X9790000Y-10160000D02*
X9830000Y-10200000D01*
X9830000Y-10160000D02*
X9790000Y-10200000D01*
X9790000Y-10360000D02*
X9830000Y-10400000D01*
X9830000Y-10360000D02*
X9790000Y-10400000D01*
X9790000Y-11180000D02*
X9830000Y-11220000D01*
X9830000Y-11180000D02*
X9790000Y-11220000D01*
X9790000Y-11380000D02*
X9830000Y-11420000D01*
X9830000Y-11380000D02*
X9790000Y-11420000D01*
X9790000Y-12200000D02*
X9830000Y-12240000D01*
X9830000Y-12200000D02*
X9790000Y-12240000D01*
X9790000Y-12400000D02*
X9830000Y-12440000D01*
X9830000Y-12400000D02*
X9790000Y-12440000D01*
X9790000Y-13220000D02*
X9830000Y-13260000D01*
X9830000Y-13220000D02*
X9790000Y-13260000D01*
X9790000Y-13420000D02*
X9830000Y-13460000D01*
X9830000Y-13420000D02*
X9790000Y-13460000D01*
X9790000Y-16020000D02*
X9830000Y-16060000D01*
X9830000Y-16020000D02*
X9790000Y-16060000D01*
X9860000Y-3220000D02*
X9900000Y-3260000D01*
X9900000Y-3220000D02*
X9860000Y-3260000D01*
X9860000Y-4040000D02*
X9900000Y-4080000D01*
X9900000Y-4040000D02*
X9860000Y-4080000D01*
X9860000Y-4240000D02*
X9900000Y-4280000D01*
X9900000Y-4240000D02*
X9860000Y-4280000D01*
X9860000Y-5060000D02*
X9900000Y-5100000D01*
X9900000Y-5060000D02*
X9860000Y-5100000D01*
X9860000Y-5260000D02*
X9900000Y-5300000D01*
X9900000Y-5260000D02*
X9860000Y-5300000D01*
X9860000Y-6080000D02*
X9900000Y-6120000D01*
X9900000Y-6080000D02*
X9860000Y-6120000D01*
X9860000Y-6280000D02*
X9900000Y-6320000D01*
X9900000Y-6280000D02*
X9860000Y-6320000D01*
X9860000Y-7100000D02*
X9900000Y-7140000D01*
X9900000Y-7100000D02*
X9860000Y-7140000D01*
X9860000Y-7300000D02*
X9900000Y-7340000D01*
X9900000Y-7300000D02*
X9860000Y-7340000D01*
X9860000Y-8120000D02*
X9900000Y-8160000D01*
X9900000Y-8120000D02*
X9860000Y-8160000D01*
X9860000Y-8320000D02*
X9900000Y-8360000D01*
X9900000Y-8320000D02*
X9860000Y-8360000D01*
X9860000Y-9140000D02*
X9900000Y-9180000D01*
X9900000Y-9140000D02*
X9860000Y-9180000D01*
X9860000Y-9340000D02*
X9900000Y-9380000D01*
X9900000Y-9340000D02*
X9860000Y-9380000D01*
X9860000Y-10160000D02*
X9900000Y-10200000D01*
X9900000Y-10160000D02*
X9860000Y-10200000D01*
X9860000Y-10360000D02*
X9900000Y-10400000D01*
X9900000Y-10360000D02*
X9860000Y-10400000D01*
X9860000Y-11180000D02*
X9900000Y-11220000D01*
X9900000Y-11180000D02*
X9860000Y-11220000D01*
X9860000Y-11380000D02*
X9900000Y-11420000D01*
X9900000Y-11380000D02*
X9860000Y-11420000D01*
X9860000Y-12200000D02*
X9900000Y-12240000D01*
X9900000Y-12200000D02*
X9860000Y-12240000D01*
X9860000Y-12400000D02*
X9900000Y-12440000D01*
X9900000Y-12400000D02*
X9860000Y-12440000D01*
X9860000Y-13220000D02*
X9900000Y-13260000D01*
X9900000Y-13220000D02*
X9860000Y-13260000D01*
X9860000Y-13420000D02*
X9900000Y-13460000D01*
X9900000Y-13420000D02*
X9860000Y-13460000D01*
X9860000Y-16020000D02*
X9900000Y-16060000D01*
X9900000Y-16020000D02*
X9860000Y-16060000D01*
X9930000Y-3220000D02*
X9970000Y-3260000D01*
X9970000Y-3220000D02*
X9930000Y-3260000D01*
X9930000Y-4040000D02*
X9970000Y-4080000D01*
X9970000Y-4040000D02*
X9930000Y-4080000D01*
X9930000Y-4240000D02*
X9970000Y-4280000D01*
X9970000Y-4240000D02*
X9930000Y-4280000D01*
X9930000Y-5060000D02*
X9970000Y-5100000D01*
X9970000Y-5060000D02*
X9930000Y-5100000D01*
X9930000Y-5260000D02*
X9970000Y-5300000D01*
X9970000Y-5260000D02*
X9930000Y-5300000D01*
X9930000Y-6080000D02*
X9970000Y-6120000D01*
X9970000Y-6080000D02*
X9930000Y-6120000D01*
X9930000Y-6280000D02*
X9970000Y-6320000D01*
X9970000Y-6280000D02*
X9930000Y-6320000D01*
X9930000Y-7100000D02*
X9970000Y-7140000D01*
X9970000Y-7100000D02*
X9930000Y-7140000D01*
X9930000Y-7300000D02*
X9970000Y-7340000D01*
X9970000Y-7300000D02*
X9930000Y-7340000D01*
X9930000Y-8120000D02*
X9970000Y-8160000D01*
X9970000Y-8120000D02*
X9930000Y-8160000D01*
X9930000Y-8320000D02*
X9970000Y-8360000D01*
X9970000Y-8320000D02*
X9930000Y-8360000D01*
X9930000Y-9140000D02*
X9970000Y-9180000D01*
X9970000Y-9140000D02*
X9930000Y-9180000D01*
X9930000Y-9340000D02*
X9970000Y-9380000D01*
X9970000Y-9340000D02*
X9930000Y-9380000D01*
X9930000Y-10160000D02*
X9970000Y-10200000D01*
X9970000Y-10160000D02*
X9930000Y-10200000D01*
X9930000Y-10360000D02*
X9970000Y-10400000D01*
X9970000Y-10360000D02*
X9930000Y-10400000D01*
X9930000Y-11180000D02*
X9970000Y-11220000D01*
X9970000Y-11180000D02*
X9930000Y-11220000D01*
X9930000Y-11380000D02*
X9970000Y-11420000D01*
X9970000Y-11380000D02*
X9930000Y-11420000D01*
X9930000Y-12200000D02*
X9970000Y-12240000D01*
X9970000Y-12200000D02*
X9930000Y-12240000D01*
X9930000Y-12400000D02*
X9970000Y-12440000D01*
X9970000Y-12400000D02*
X9930000Y-12440000D01*
X9930000Y-13220000D02*
X9970000Y-13260000D01*
X9970000Y-13220000D02*
X9930000Y-13260000D01*
X9930000Y-13420000D02*
X9970000Y-13460000D01*
X9970000Y-13420000D02*
X9930000Y-13460000D01*
X9930000Y-16020000D02*
X9970000Y-16060000D01*
X9970000Y-16020000D02*
X9930000Y-16060000D01*
X13720000Y-3220000D02*
X13760000Y-3260000D01*
X13760000Y-3220000D02*
X13720000Y-3260000D01*
X13720000Y-4040000D02*
X13760000Y-4080000D01*
X13760000Y-4040000D02*
X13720000Y-4080000D01*
X13720000Y-4240000D02*
X13760000Y-4280000D01*
X13760000Y-4240000D02*
X13720000Y-4280000D01*
X13720000Y-5060000D02*
X13760000Y-5100000D01*
X13760000Y-5060000D02*
X13720000Y-5100000D01*
X13720000Y-5260000D02*
X13760000Y-5300000D01*
X13760000Y-5260000D02*
X13720000Y-5300000D01*
X13720000Y-6080000D02*
X13760000Y-6120000D01*
X13760000Y-6080000D02*
X13720000Y-6120000D01*
X13720000Y-6280000D02*
X13760000Y-6320000D01*
X13760000Y-6280000D02*
X13720000Y-6320000D01*
X13720000Y-7100000D02*
X13760000Y-7140000D01*
X13760000Y-7100000D02*
X13720000Y-7140000D01*
X13720000Y-7300000D02*
X13760000Y-7340000D01*
X13760000Y-7300000D02*
X13720000Y-7340000D01*
X13720000Y-8120000D02*
X13760000Y-8160000D01*
X13760000Y-8120000D02*
X13720000Y-8160000D01*
X13720000Y-8320000D02*
X13760000Y-8360000D01*
X13760000Y-8320000D02*
X13720000Y-8360000D01*
X13720000Y-9140000D02*
X13760000Y-9180000D01*
X13760000Y-9140000D02*
X13720000Y-9180000D01*
X13720000Y-9340000D02*
X13760000Y-9380000D01*
X13760000Y-9340000D02*
X13720000Y-9380000D01*
X13720000Y-10160000D02*
X13760000Y-10200000D01*
X13760000Y-10160000D02*
X13720000Y-10200000D01*
X13720000Y-10360000D02*
X13760000Y-10400000D01*
X13760000Y-10360000D02*
X13720000Y-10400000D01*
X13720000Y-11180000D02*
X13760000Y-11220000D01*
X13760000Y-11180000D02*
X13720000Y-11220000D01*
X13720000Y-11380000D02*
X13760000Y-11420000D01*
X13760000Y-11380000D02*
X13720000Y-11420000D01*
X13720000Y-12200000D02*
X13760000Y-12240000D01*
X13760000Y-12200000D02*
X13720000Y-12240000D01*
X13720000Y-12400000D02*
X13760000Y-12440000D01*
X13760000Y-12400000D02*
X13720000Y-12440000D01*
X13720000Y-13220000D02*
X13760000Y-13260000D01*
X13760000Y-13220000D02*
X13720000Y-13260000D01*
X13720000Y-13420000D02*
X13760000Y-13460000D01*
X13760000Y-13420000D02*
X13720000Y-13460000D01*
X13720000Y-16020000D02*
X13760000Y-16060000D01*
X13760000Y-16020000D02*
X13720000Y-16060000D01*
X13790000Y-3220000D02*
X13830000Y-3260000D01*
X13830000Y-3220000D02*
X13790000Y-3260000D01*
X13790000Y-4040000D02*
X13830000Y-4080000D01*
X13830000Y-4040000D02*
X13790000Y-4080000D01*
X13790000Y-4240000D02*
X13830000Y-4280000D01*
X13830000Y-4240000D02*
X13790000Y-4280000D01*
X13790000Y-5060000D02*
X13830000Y-5100000D01*
X13830000Y-5060000D02*
X13790000Y-5100000D01*
X13790000Y-5260000D02*
X13830000Y-5300000D01*
X13830000Y-5260000D02*
X13790000Y-5300000D01*
X13790000Y-6080000D02*
X13830000Y-6120000D01*
X13830000Y-6080000D02*
X13790000Y-6120000D01*
X13790000Y-6280000D02*
X13830000Y-6320000D01*
X13830000Y-6280000D02*
X13790000Y-6320000D01*
X13790000Y-7100000D02*
X13830000Y-7140000D01*
X13830000Y-7100000D02*
X13790000Y-7140000D01*
X13790000Y-7300000D02*
X13830000Y-7340000D01*
X13830000Y-7300000D02*
X13790000Y-7340000D01*
X13790000Y-8120000D02*
X13830000Y-8160000D01*
X13830000Y-8120000D02*
X13790000Y-8160000D01*
X13790000Y-8320000D02*
X13830000Y-8360000D01*
X13830000Y-8320000D02*
X13790000Y-8360000D01*
X13790000Y-9140000D02*
X13830000Y-9180000D01*
X13830000Y-9140000D02*
X13790000Y-9180000D01*
X13790000Y-9340000D02*
X13830000Y-9380000D01*
X13830000Y-9340000D02*
X13790000Y-9380000D01*
X13790000Y-10160000D02*
X13830000Y-10200000D01*
X13830000Y-10160000D02*
X13790000Y-10200000D01*
X13790000Y-10360000D02*
X13830000Y-10400000D01*
X13830000Y-10360000D02*
X13790000Y-10400000D01*
X13790000Y-11180000D02*
X13830000Y-11220000D01*
X13830000Y-11180000D02*
X13790000Y-11220000D01*
X13790000Y-11380000D02*
X13830000Y-11420000D01*
X13830000Y-11380000D02*
X13790000Y-11420000D01*
X13790000Y-12200000D02*
X13830000Y-12240000D01*
X13830000Y-12200000D02*
X13790000Y-12240000D01*
X13790000Y-12400000D02*
X13830000Y-12440000D01*
X13830000Y-12400000D02*
X13790000Y-12440000D01*
X13790000Y-13220000D02*
X13830000Y-13260000D01*
X13830000Y-13220000D02*
X13790000Y-13260000D01*
X13790000Y-13420000D02*
X13830000Y-13460000D01*
X13830000Y-13420000D02*
X13790000Y-13460000D01*
X13790000Y-16020000D02*
X13830000Y-16060000D01*
X13830000Y-16020000D02*
X13790000Y-16060000D01*
X13860000Y-3220000D02*
X13900000Y-3260000D01*
X13900000Y-3220000D02*
X13860000Y-3260000D01*
X13860000Y-4040000D02*
X13900000Y-4080000D01*
X13900000Y-4040000D02*
X13860000Y-4080000D01*
X13860000Y-4240000D02*
X13900000Y-4280000D01*
X13900000Y-4240000D02*
X13860000Y-4280000D01*
X13860000Y-5060000D02*
X13900000Y-5100000D01*
X13900000Y-5060000D02*
X13860000Y-5100000D01*
X13860000Y-5260000D02*
X13900000Y-5300000D01*
X13900000Y-5260000D02*
X13860000Y-5300000D01*
X13860000Y-6080000D02*
X13900000Y-6120000D01*
X13900000Y-6080000D02*
X13860000Y-6120000D01*
X13860000Y-6280000D02*
X13900000Y-6320000D01*
X13900000Y-6280000D02*
X13860000Y-6320000D01*
X13860000Y-7100000D02*
X13900000Y-7140000D01*
X13900000Y-7100000D02*
X13860000Y-7140000D01*
X13860000Y-7300000D02*
X13900000Y-7340000D01*
X13900000Y-7300000D02*
X13860000Y-7340000D01*
X13860000Y-8120000D02*
X13900000Y-8160000D01*
X13900000Y-8120000D02*
X13860000Y-8160000D01*
X13860000Y-8320000D02*
X13900000Y-8360000D01*
X13900000Y-8320000D02*
X13860000Y-8360000D01*
X13860000Y-9140000D02*
X13900000Y-9180000D01*
X13900000Y-9140000D02*
X13860000Y-9180000D01*
X13860000Y-9340000D02*
X13900000Y-9380000D01*
X13900000Y-9340000D02*
X13860000Y-9380000D01*
X13860000Y-10160000D02*
X13900000Y-10200000D01*
X13900000Y-10160000D02*
X13860000Y-10200000D01*
X13860000Y-10360000D02*
X13900000Y-10400000D01*
X13900000Y-10360000D02*
X13860000Y-10400000D01*
X13860000Y-11180000D02*
X13900000Y-11220000D01*
X13900000Y-11180000D02*
X13860000Y-11220000D01*
X13860000Y-11380000D02*
X13900000Y-11420000D01*
X13900000Y-11380000D02*
X13860000Y-11420000D01*
X13860000Y-12200000D02*
X13900000Y-12240000D01*
X13900000Y-12200000D02*
X13860000Y-12240000D01*
X13860000Y-12400000D02*
X13900000Y-12440000D01*
X13900000Y-12400000D02*
X13860000Y-12440000D01*
X13860000Y-13220000D02*
X13900000Y-13260000D01*
X13900000Y-13220000D02*
X13860000Y-13260000D01*
X13860000Y-13420000D02*
X13900000Y-13460000D01*
X13900000Y-13420000D02*
X13860000Y-13460000D01*
X13860000Y-16020000D02*
X13900000Y-16060000D01*
X13900000Y-16020000D02*
X13860000Y-16060000D01*
X13930000Y-3220000D02*
X13970000Y-3260000D01*
X13970000Y-3220000D02*
X13930000Y-3260000D01*
X13930000Y-4040000D02*
X13970000Y-4080000D01*
X13970000Y-4040000D02*
X13930000Y-4080000D01*
X13930000Y-4240000D02*
X13970000Y-4280000D01*
X13970000Y-4240000D02*
X13930000Y-4280000D01*
X13930000Y-5060000D02*
X13970000Y-5100000D01*
X13970000Y-5060000D02*
X13930000Y-5100000D01*
X13930000Y-5260000D02*
X13970000Y-5300000D01*
X13970000Y-5260000D02*
X13930000Y-5300000D01*
X13930000Y-6080000D02*
X13970000Y-6120000D01*
X13970000Y-6080000D02*
X13930000Y-6120000D01*
X13930000Y-6280000D02*
X13970000Y-6320000D01*
X13970000Y-6280000D02*
X13930000Y-6320000D01*
X13930000Y-7100000D02*
X13970000Y-7140000D01*
X13970000Y-7100000D02*
X13930000Y-7140000D01*
X13930000Y-7300000D02*
X13970000Y-7340000D01*
X13970000Y-7300000D02*
X13930000Y-7340000D01*
X13930000Y-8120000D02*
X13970000Y-8160000D01*
X13970000Y-8120000D02*
X13930000Y-8160000D01*
X13930000Y-8320000D02*
X13970000Y-8360000D01*
X13970000Y-8320000D02*
X13930000Y-8360000D01*
X13930000Y-9140000D02*
X13970000Y-9180000D01*
X13970000Y-9140000D02*
X13930000Y-9180000D01*
X13930000Y-9340000D02*
X13970000Y-9380000D01*
X13970000Y-9340000D02*
X13930000Y-9380000D01*
X13930000Y-10160000D02*
X13970000Y-10200000D01*
X13970000Y-10160000D02*
X13930000Y-10200000D01*
X13930000Y-10360000D02*
X13970000Y-10400000D01*
X13970000Y-10360000D02*
X13930000Y-10400000D01*
X13930000Y-11180000D02*
X13970000Y-11220000D01*
X13970000Y-11180000D02*
X13930000Y-11220000D01*
X13930000Y-11380000D02*
X13970000Y-11420000D01*
X13970000Y-11380000D02*
X13930000Y-11420000D01*
X13930000Y-12200000D02*
X13970000Y-12240000D01*
X13970000Y-12200000D02*
X13930000Y-12240000D01*
X13930000Y-12400000D02*
X13970000Y-12440000D01*
X13970000Y-12400000D02*
X13930000Y-12440000D01*
X13930000Y-13220000D02*
X13970000Y-13260000D01*
X13970000Y-13220000D02*
X13930000Y-13260000D01*
X13930000Y-13420000D02*
X13970000Y-13460000D01*
X13970000Y-13420000D02*
X13930000Y-13460000D01*
X13930000Y-16020000D02*
X13970000Y-16060000D01*
X13970000Y-16020000D02*
X13930000Y-16060000D01*
X17720000Y-3220000D02*
X17760000Y-3260000D01*
X17760000Y-3220000D02*
X17720000Y-3260000D01*
X17720000Y-4040000D02*
X17760000Y-4080000D01*
X17760000Y-4040000D02*
X17720000Y-4080000D01*
X17720000Y-4240000D02*
X17760000Y-4280000D01*
X17760000Y-4240000D02*
X17720000Y-4280000D01*
X17720000Y-5060000D02*
X17760000Y-5100000D01*
X17760000Y-5060000D02*
X17720000Y-5100000D01*
X17720000Y-5260000D02*
X17760000Y-5300000D01*
X17760000Y-5260000D02*
X17720000Y-5300000D01*
X17720000Y-6080000D02*
X17760000Y-6120000D01*
X17760000Y-6080000D02*
X17720000Y-6120000D01*
X17720000Y-6280000D02*
X17760000Y-6320000D01*
X17760000Y-6280000D02*
X17720000Y-6320000D01*
X17720000Y-7100000D02*
X17760000Y-7140000D01*
X17760000Y-7100000D02*
X17720000Y-7140000D01*
X17720000Y-7300000D02*
X17760000Y-7340000D01*
X17760000Y-7300000D02*
X17720000Y-7340000D01*
X17720000Y-8120000D02*
X17760000Y-8160000D01*
X17760000Y-8120000D02*
X17720000Y-8160000D01*
X17720000Y-8320000D02*
X17760000Y-8360000D01*
X17760000Y-8320000D02*
X17720000Y-8360000D01*
X17720000Y-9140000D02*
X17760000Y-9180000D01*
X17760000Y-9140000D02*
X17720000Y-9180000D01*
X17720000Y-9340000D02*
X17760000Y-9380000D01*
X17760000Y-9340000D02*
X17720000Y-9380000D01*
X17720000Y-10160000D02*
X17760000Y-10200000D01*
X17760000Y-10160000D02*
X17720000Y-10200000D01*
X17720000Y-10360000D02*
X17760000Y-10400000D01*
X17760000Y-10360000D02*
X17720000Y-10400000D01*
X17720000Y-11180000D02*
X17760000Y-11220000D01*
X17760000Y-11180000D02*
X17720000Y-11220000D01*
X17720000Y-11380000D02*
X17760000Y-11420000D01*
X17760000Y-11380000D02*
X17720000Y-11420000D01*
X17720000Y-12200000D02*
X17760000Y-12240000D01*
X17760000Y-12200000D02*
X17720000Y-12240000D01*
X17720000Y-12400000D02*
X17760000Y-12440000D01*
X17760000Y-12400000D02*
X17720000Y-12440000D01*
X17720000Y-13220000D02*
X17760000Y-13260000D01*
X17760000Y-13220000D02*
X17720000Y-13260000D01*
X17720000Y-16220000D02*
X17760000Y-16260000D01*
X17760000Y-16220000D02*
X17720000Y-16260000D01*
X17790000Y-3220000D02*
X17830000Y-3260000D01*
X17830000Y-3220000D02*
X17790000Y-3260000D01*
X17790000Y-4040000D02*
X17830000Y-4080000D01*
X17830000Y-4040000D02*
X17790000Y-4080000D01*
X17790000Y-4240000D02*
X17830000Y-4280000D01*
X17830000Y-4240000D02*
X17790000Y-4280000D01*
X17790000Y-5060000D02*
X17830000Y-5100000D01*
X17830000Y-5060000D02*
X17790000Y-5100000D01*
X17790000Y-5260000D02*
X17830000Y-5300000D01*
X17830000Y-5260000D02*
X17790000Y-5300000D01*
X17790000Y-6080000D02*
X17830000Y-6120000D01*
X17830000Y-6080000D02*
X17790000Y-6120000D01*
X17790000Y-6280000D02*
X17830000Y-6320000D01*
X17830000Y-6280000D02*
X17790000Y-6320000D01*
X17790000Y-7100000D02*
X17830000Y-7140000D01*
X17830000Y-7100000D02*
X17790000Y-7140000D01*
X17790000Y-7300000D02*
X17830000Y-7340000D01*
X17830000Y-7300000D02*
X17790000Y-7340000D01*
X17790000Y-8120000D02*
X17830000Y-8160000D01*
X17830000Y-8120000D02*
X17790000Y-8160000D01*
X17790000Y-8320000D02*
X17830000Y-8360000D01*
X17830000Y-8320000D02*
X17790000Y-8360000D01*
X17790000Y-9140000D02*
X17830000Y-9180000D01*
X17830000Y-9140000D02*
X17790000Y-9180000D01*
X17790000Y-9340000D02*
X17830000Y-9380000D01*
X17830000Y-9340000D02*
X17790000Y-9380000D01*
X17790000Y-10160000D02*
X17830000Y-10200000D01*
X17830000Y-10160000D02*
X17790000Y-10200000D01*
X17790000Y-10360000D02*
X17830000Y-10400000D01*
X17830000Y-10360000D02*
X17790000Y-10400000D01*
X17790000Y-11180000D02*
X17830000Y-11220000D01*
X17830000Y-11180000D02*
X17790000Y-11220000D01*
X17790000Y-11380000D02*
X17830000Y-11420000D01*
X17830000Y-11380000D02*
X17790000Y-11420000D01*
X17790000Y-12200000D02*
X17830000Y-12240000D01*
X17830000Y-12200000D02*
X17790000Y-12240000D01*
X17790000Y-12400000D02*
X17830000Y-12440000D01*
X17830000Y-12400000D02*
X17790000Y-12440000D01*
X17790000Y-13220000D02*
X17830000Y-13260000D01*
X17830000Y-13220000D02*
X17790000Y-13260000D01*
X17790000Y-16220000D02*
X17830000Y-16260000D01*
X17830000Y-16220000D02*
X17790000Y-16260000D01*
X17860000Y-3220000D02*
X17900000Y-3260000D01*
X17900000Y-3220000D02*
X17860000Y-3260000D01*
X17860000Y-4040000D02*
X17900000Y-4080000D01*
X17900000Y-4040000D02*
X17860000Y-4080000D01*
X17860000Y-4240000D02*
X17900000Y-4280000D01*
X17900000Y-4240000D02*
X17860000Y-4280000D01*
X17860000Y-5060000D02*
X17900000Y-5100000D01*
X17900000Y-5060000D02*
X17860000Y-5100000D01*
X17860000Y-5260000D02*
X17900000Y-5300000D01*
X17900000Y-5260000D02*
X17860000Y-5300000D01*
X17860000Y-6080000D02*
X17900000Y-6120000D01*
X17900000Y-6080000D02*
X17860000Y-6120000D01*
X17860000Y-6280000D02*
X17900000Y-6320000D01*
X17900000Y-6280000D02*
X17860000Y-6320000D01*
X17860000Y-7100000D02*
X17900000Y-7140000D01*
X17900000Y-7100000D02*
X17860000Y-7140000D01*
X17860000Y-7300000D02*
X17900000Y-7340000D01*
X17900000Y-7300000D02*
X17860000Y-7340000D01*
X17860000Y-8120000D02*
X17900000Y-8160000D01*
X17900000Y-8120000D02*
X17860000Y-8160000D01*
X17860000Y-8320000D02*
X17900000Y-8360000D01*
X17900000Y-8320000D02*
X17860000Y-8360000D01*
X17860000Y-9140000D02*
X17900000Y-9180000D01*
X17900000Y-9140000D02*
X17860000Y-9180000D01*
X17860000Y-9340000D02*
X17900000Y-9380000D01*
X17900000Y-9340000D02*
X17860000Y-9380000D01*
X17860000Y-10160000D02*
X17900000Y-10200000D01*
X17900000Y-10160000D02*
X17860000Y-10200000D01*
X17860000Y-10360000D02*
X17900000Y-10400000D01*
X17900000Y-10360000D02*
X17860000Y-10400000D01*
X17860000Y-11180000D02*
X17900000Y-11220000D01*
X17900000Y-11180000D02*
X17860000Y-11220000D01*
X17860000Y-11380000D02*
X17900000Y-11420000D01*
X17900000Y-11380000D02*
X17860000Y-11420000D01*
X17860000Y-12200000D02*
X17900000Y-12240000D01*
X17900000Y-12200000D02*
X17860000Y-12240000D01*
X17860000Y-12400000D02*
X17900000Y-12440000D01*
X17900000Y-12400000D02*
X17860000Y-12440000D01*
X17860000Y-13220000D02*
X17900000Y-13260000D01*
X17900000Y-13220000D02*
X17860000Y-13260000D01*
X17860000Y-16220000D02*
X17900000Y-16260000D01*
X17900000Y-16220000D02*
X17860000Y-16260000D01*
X17930000Y-3220000D02*
X17970000Y-3260000D01*
X17970000Y-3220000D02*
X17930000Y-3260000D01*
X17930000Y-4040000D02*
X17970000Y-4080000D01*
X17970000Y-4040000D02*
X17930000Y-4080000D01*
X17930000Y-4240000D02*
X17970000Y-4280000D01*
X17970000Y-4240000D02*
X17930000Y-4280000D01*
X17930000Y-5060000D02*
X17970000Y-5100000D01*
X17970000Y-5060000D02*
X17930000Y-5100000D01*
X17930000Y-5260000D02*
X17970000Y-5300000D01*
X17970000Y-5260000D02*
X17930000Y-5300000D01*
X17930000Y-6080000D02*
X17970000Y-6120000D01*
X17970000Y-6080000D02*
X17930000Y-6120000D01*
X17930000Y-6280000D02*
X17970000Y-6320000D01*
X17970000Y-6280000D02*
X17930000Y-6320000D01*
X17930000Y-7100000D02*
X17970000Y-7140000D01*
X17970000Y-7100000D02*
X17930000Y-7140000D01*
X17930000Y-7300000D02*
X17970000Y-7340000D01*
X17970000Y-7300000D02*
X17930000Y-7340000D01*
X17930000Y-8120000D02*
X17970000Y-8160000D01*
X17970000Y-8120000D02*
X17930000Y-8160000D01*
X17930000Y-8320000D02*
X17970000Y-8360000D01*
X17970000Y-8320000D02*
X17930000Y-8360000D01*
X17930000Y-9140000D02*
X17970000Y-9180000D01*
X17970000Y-9140000D02*
X17930000Y-9180000D01*
X17930000Y-9340000D02*
X17970000Y-9380000D01*
X17970000Y-9340000D02*
X17930000Y-9380000D01*
X17930000Y-10160000D02*
X17970000Y-10200000D01*
X17970000Y-10160000D02*
X17930000Y-10200000D01*
X17930000Y-10360000D02*
X17970000Y-10400000D01*
X17970000Y-10360000D02*
X17930000Y-10400000D01*
X17930000Y-11180000D02*
X17970000Y-11220000D01*
X17970000Y-11180000D02*
X17930000Y-11220000D01*
X17930000Y-11380000D02*
X17970000Y-11420000D01*
X17970000Y-11380000D02*
X17930000Y-11420000D01*
X17930000Y-12200000D02*
X17970000Y-12240000D01*
X17970000Y-12200000D02*
X17930000Y-12240000D01*
X17930000Y-12400000D02*
X17970000Y-12440000D01*
X17970000Y-12400000D02*
X17930000Y-12440000D01*
X17930000Y-13220000D02*
X17970000Y-13260000D01*
X17970000Y-13220000D02*
X17930000Y-13260000D01*
X17930000Y-16220000D02*
X17970000Y-16260000D01*
X17970000Y-16220000D02*
X17930000Y-16260000D01*
X21720000Y-3220000D02*
X21760000Y-3260000D01*
X21760000Y-3220000D02*
X21720000Y-3260000D01*
X21720000Y-4040000D02*
X21760000Y-4080000D01*
X21760000Y-4040000D02*
X21720000Y-4080000D01*
X21720000Y-4240000D02*
X21760000Y-4280000D01*
X21760000Y-4240000D02*
X21720000Y-4280000D01*
X21720000Y-5060000D02*
X21760000Y-5100000D01*
X21760000Y-5060000D02*
X21720000Y-5100000D01*
X21720000Y-5260000D02*
X21760000Y-5300000D01*
X21760000Y-5260000D02*
X21720000Y-5300000D01*
X21720000Y-6080000D02*
X21760000Y-6120000D01*
X21760000Y-6080000D02*
X21720000Y-6120000D01*
X21720000Y-6280000D02*
X21760000Y-6320000D01*
X21760000Y-6280000D02*
X21720000Y-6320000D01*
X21720000Y-7100000D02*
X21760000Y-7140000D01*
X21760000Y-7100000D02*
X21720000Y-7140000D01*
X21720000Y-7300000D02*
X21760000Y-7340000D01*
X21760000Y-7300000D02*
X21720000Y-7340000D01*
X21720000Y-8120000D02*
X21760000Y-8160000D01*
X21760000Y-8120000D02*
X21720000Y-8160000D01*
X21720000Y-8320000D02*
X21760000Y-8360000D01*
X21760000Y-8320000D02*
X21720000Y-8360000D01*
X21720000Y-9140000D02*
X21760000Y-9180000D01*
X21760000Y-9140000D02*
X21720000Y-9180000D01*
X21720000Y-9340000D02*
X21760000Y-9380000D01*
X21760000Y-9340000D02*
X21720000Y-9380000D01*
X21720000Y-10160000D02*
X21760000Y-10200000D01*
X21760000Y-10160000D02*
X21720000Y-10200000D01*
X21720000Y-10360000D02*
X21760000Y-10400000D01*
X21760000Y-10360000D02*
X21720000Y-10400000D01*
X21720000Y-11180000D02*
X21760000Y-11220000D01*
X21760000Y-11180000D02*
X21720000Y-11220000D01*
X21720000Y-11380000D02*
X21760000Y-11420000D01*
X21760000Y-11380000D02*
X21720000Y-11420000D01*
X21720000Y-12200000D02*
X21760000Y-12240000D01*
X21760000Y-12200000D02*
X21720000Y-12240000D01*
X21720000Y-12400000D02*
X21760000Y-12440000D01*
X21760000Y-12400000D02*
X21720000Y-12440000D01*
X21720000Y-13220000D02*
X21760000Y-13260000D01*
X21760000Y-13220000D02*
X21720000Y-13260000D01*
X21720000Y-16220000D02*
X21760000Y-16260000D01*
X21760000Y-16220000D02*
X21720000Y-16260000D01*
X21790000Y-3220000D02*
X21830000Y-3260000D01*
X21830000Y-3220000D02*
X21790000Y-3260000D01*
X21790000Y-4040000D02*
X21830000Y-4080000D01*
X21830000Y-4040000D02*
X21790000Y-4080000D01*
X21790000Y-4240000D02*
X21830000Y-4280000D01*
X21830000Y-4240000D02*
X21790000Y-4280000D01*
X21790000Y-5060000D02*
X21830000Y-5100000D01*
X21830000Y-5060000D02*
X21790000Y-5100000D01*
X21790000Y-5260000D02*
X21830000Y-5300000D01*
X21830000Y-5260000D02*
X21790000Y-5300000D01*
X21790000Y-6080000D02*
X21830000Y-6120000D01*
X21830000Y-6080000D02*
X21790000Y-6120000D01*
X21790000Y-6280000D02*
X21830000Y-6320000D01*
X21830000Y-6280000D02*
X21790000Y-6320000D01*
X21790000Y-7100000D02*
X21830000Y-7140000D01*
X21830000Y-7100000D02*
X21790000Y-7140000D01*
X21790000Y-7300000D02*
X21830000Y-7340000D01*
X21830000Y-7300000D02*
X21790000Y-7340000D01*
X21790000Y-8120000D02*
X21830000Y-8160000D01*
X21830000Y-8120000D02*
X21790000Y-8160000D01*
X21790000Y-8320000D02*
X21830000Y-8360000D01*
X21830000Y-8320000D02*
X21790000Y-8360000D01*
X21790000Y-9140000D02*
X21830000Y-9180000D01*
X21830000Y-9140000D02*
X21790000Y-9180000D01*
X21790000Y-9340000D02*
X21830000Y-9380000D01*
X21830000Y-9340000D02*
X21790000Y-9380000D01*
X21790000Y-10160000D02*
X21830000Y-10200000D01*
X21830000Y-10160000D02*
X21790000Y-10200000D01*
X21790000Y-10360000D02*
X21830000Y-10400000D01*
X21830000Y-10360000D02*
X21790000Y-10400000D01*
X21790000Y-11180000D02*
X21830000Y-11220000D01*
X21830000Y-11180000D02*
X21790000Y-11220000D01*
X21790000Y-11380000D02*
X21830000Y-11420000D01*
X21830000Y-11380000D02*
X21790000Y-11420000D01*
X21790000Y-12200000D02*
X21830000Y-12240000D01*
X21830000Y-12200000D02*
X21790000Y-12240000D01*
X21790000Y-12400000D02*
X21830000Y-12440000D01*
X21830000Y-12400000D02*
X21790000Y-12440000D01*
X21790000Y-13220000D02*
X21830000Y-13260000D01*
X21830000Y-13220000D02*
X21790000Y-13260000D01*
X21790000Y-16220000D02*
X21830000Y-16260000D01*
X21830000Y-16220000D02*
X21790000Y-16260000D01*
X21860000Y-3220000D02*
X21900000Y-3260000D01*
X21900000Y-3220000D02*
X21860000Y-3260000D01*
X21860000Y-4040000D02*
X21900000Y-4080000D01*
X21900000Y-4040000D02*
X21860000Y-4080000D01*
X21860000Y-4240000D02*
X21900000Y-4280000D01*
X21900000Y-4240000D02*
X21860000Y-4280000D01*
X21860000Y-5060000D02*
X21900000Y-5100000D01*
X21900000Y-5060000D02*
X21860000Y-5100000D01*
X21860000Y-5260000D02*
X21900000Y-5300000D01*
X21900000Y-5260000D02*
X21860000Y-5300000D01*
X21860000Y-6080000D02*
X21900000Y-6120000D01*
X21900000Y-6080000D02*
X21860000Y-6120000D01*
X21860000Y-6280000D02*
X21900000Y-6320000D01*
X21900000Y-6280000D02*
X21860000Y-6320000D01*
X21860000Y-7100000D02*
X21900000Y-7140000D01*
X21900000Y-7100000D02*
X21860000Y-7140000D01*
X21860000Y-7300000D02*
X21900000Y-7340000D01*
X21900000Y-7300000D02*
X21860000Y-7340000D01*
X21860000Y-8120000D02*
X21900000Y-8160000D01*
X21900000Y-8120000D02*
X21860000Y-8160000D01*
X21860000Y-8320000D02*
X21900000Y-8360000D01*
X21900000Y-8320000D02*
X21860000Y-8360000D01*
X21860000Y-9140000D02*
X21900000Y-9180000D01*
X21900000Y-9140000D02*
X21860000Y-9180000D01*
X21860000Y-9340000D02*
X21900000Y-9380000D01*
X21900000Y-9340000D02*
X21860000Y-9380000D01*
X21860000Y-10160000D02*
X21900000Y-10200000D01*
X21900000Y-10160000D02*
X21860000Y-10200000D01*
X21860000Y-10360000D02*
X21900000Y-10400000D01*
X21900000Y-10360000D02*
X21860000Y-10400000D01*
X21860000Y-11180000D02*
X21900000Y-11220000D01*
X21900000Y-11180000D02*
X21860000Y-11220000D01*
X21860000Y-11380000D02*
X21900000Y-11420000D01*
X21900000Y-11380000D02*
X21860000Y-11420000D01*
X21860000Y-12200000D02*
X21900000Y-12240000D01*
X21900000Y-12200000D02*
X21860000Y-12240000D01*
X21860000Y-12400000D02*
X21900000Y-12440000D01*
X21900000Y-12400000D02*
X21860000Y-12440000D01*
X21860000Y-13220000D02*
X21900000Y-13260000D01*
X21900000Y-13220000D02*
X21860000Y-13260000D01*
X21860000Y-16220000D02*
X21900000Y-16260000D01*
X21900000Y-16220000D02*
X21860000Y-16260000D01*
X21930000Y-3220000D02*
X21970000Y-3260000D01*
X21970000Y-3220000D02*
X21930000Y-3260000D01*
X21930000Y-4040000D02*
X21970000Y-4080000D01*
X21970000Y-4040000D02*
X21930000Y-4080000D01*
X21930000Y-4240000D02*
X21970000Y-4280000D01*
X21970000Y-4240000D02*
X21930000Y-4280000D01*
X21930000Y-5060000D02*
X21970000Y-5100000D01*
X21970000Y-5060000D02*
X21930000Y-5100000D01*
X21930000Y-5260000D02*
X21970000Y-5300000D01*
X21970000Y-5260000D02*
X21930000Y-5300000D01*
X21930000Y-6080000D02*
X21970000Y-6120000D01*
X21970000Y-6080000D02*
X21930000Y-6120000D01*
X21930000Y-6280000D02*
X21970000Y-6320000D01*
X21970000Y-6280000D02*
X21930000Y-6320000D01*
X21930000Y-7100000D02*
X21970000Y-7140000D01*
X21970000Y-7100000D02*
X21930000Y-7140000D01*
X21930000Y-7300000D02*
X21970000Y-7340000D01*
X21970000Y-7300000D02*
X21930000Y-7340000D01*
X21930000Y-8120000D02*
X21970000Y-8160000D01*
X21970000Y-8120000D02*
X21930000Y-8160000D01*
X21930000Y-8320000D02*
X21970000Y-8360000D01*
X21970000Y-8320000D02*
X21930000Y-8360000D01*
X21930000Y-9140000D02*
X21970000Y-9180000D01*
X21970000Y-9140000D02*
X21930000Y-9180000D01*
X21930000Y-9340000D02*
X21970000Y-9380000D01*
X21970000Y-9340000D02*
X21930000Y-9380000D01*
X21930000Y-10160000D02*
X21970000Y-10200000D01*
X21970000Y-10160000D02*
X21930000Y-10200000D01*
X21930000Y-10360000D02*
X21970000Y-10400000D01*
X21970000Y-10360000D02*
X21930000Y-10400000D01*
X21930000Y-11180000D02*
X21970000Y-11220000D01*
X21970000Y-11180000D02*
X21930000Y-11220000D01*
X21930000Y-11380000D02*
X21970000Y-11420000D01*
X21970000Y-11380000D02*
X21930000Y-11420000D01*
X21930000Y-12200000D02*
X21970000Y-12240000D01*
X21970000Y-12200000D02*
X21930000Y-12240000D01*
X21930000Y-12400000D02*
X21970000Y-12440000D01*
X21970000Y-12400000D02*
X21930000Y-12440000D01*
X21930000Y-13220000D02*
X21970000Y-13260000D01*
X21970000Y-13220000D02*
X21930000Y-13260000D01*
X21930000Y-16220000D02*
X21970000Y-16260000D01*
X21970000Y-16220000D02*
X21930000Y-16260000D01*
X24135000Y-13220000D02*
X24175000Y-13260000D01*
X24175000Y-13220000D02*
X24135000Y-13260000D01*
X24135000Y-16220000D02*
X24175000Y-16260000D01*
X24175000Y-16220000D02*
X24135000Y-16260000D01*
X24137000Y-3220000D02*
X24177000Y-3260000D01*
X24177000Y-3220000D02*
X24137000Y-3260000D01*
X24205000Y-13220000D02*
X24245000Y-13260000D01*
X24245000Y-13220000D02*
X24205000Y-13260000D01*
X24205000Y-16220000D02*
X24245000Y-16260000D01*
X24245000Y-16220000D02*
X24205000Y-16260000D01*
X24207000Y-3220000D02*
X24247000Y-3260000D01*
X24247000Y-3220000D02*
X24207000Y-3260000D01*
X24275000Y-13220000D02*
X24315000Y-13260000D01*
X24315000Y-13220000D02*
X24275000Y-13260000D01*
X24275000Y-16220000D02*
X24315000Y-16260000D01*
X24315000Y-16220000D02*
X24275000Y-16260000D01*
X24277000Y-3220000D02*
X24317000Y-3260000D01*
X24317000Y-3220000D02*
X24277000Y-3260000D01*
X24345000Y-13220000D02*
X24385000Y-13260000D01*
X24385000Y-13220000D02*
X24345000Y-13260000D01*
X24345000Y-16220000D02*
X24385000Y-16260000D01*
X24385000Y-16220000D02*
X24345000Y-16260000D01*
X24347000Y-3220000D02*
X24387000Y-3260000D01*
X24387000Y-3220000D02*
X24347000Y-3260000D01*
D14*
X7286000Y-15407500D02*
G75*
G03*
X7286000Y-15407500I-30000J0D01*
G01*
X7864000Y-15407500D02*
G75*
G03*
X7864000Y-15407500I-30000J0D01*
G01*
D15*
X4250000Y-2442400D02*
X4250000Y-2557600D01*
X4192400Y-2500000D02*
X4307600Y-2500000D01*
X4250000Y-16692400D02*
X4250000Y-16807600D01*
X4192400Y-16750000D02*
X4307600Y-16750000D01*
X22250000Y-2442400D02*
X22250000Y-2557600D01*
X22192400Y-2500000D02*
X22307600Y-2500000D01*
X23500000Y-16692400D02*
X23500000Y-16807600D01*
X23442400Y-16750000D02*
X23557600Y-16750000D01*
D16*
X5208389Y-15853389D02*
X5208389Y-15676611D01*
X5031611Y-15676611D01*
X5031611Y-15853389D01*
X5208389Y-15853389D01*
X9368389Y-13963389D02*
X9368389Y-13786611D01*
X9191611Y-13786611D01*
X9191611Y-13963389D01*
X9368389Y-13963389D01*
X16393389Y-13803389D02*
X16393389Y-13626611D01*
X16216611Y-13626611D01*
X16216611Y-13803389D01*
X16393389Y-13803389D01*
X16393389Y-15853389D02*
X16393389Y-15676611D01*
X16216611Y-15676611D01*
X16216611Y-15853389D01*
X16393389Y-15853389D01*
D12*
X3478619Y-17552381D02*
X3478619Y-17352381D01*
X3526238Y-17352381D01*
X3554809Y-17361905D01*
X3573857Y-17380953D01*
X3583381Y-17400000D01*
X3592905Y-17438095D01*
X3592905Y-17466667D01*
X3583381Y-17504762D01*
X3573857Y-17523810D01*
X3554809Y-17542857D01*
X3526238Y-17552381D01*
X3478619Y-17552381D01*
X3678619Y-17552381D02*
X3678619Y-17419048D01*
X3678619Y-17457143D02*
X3688143Y-17438095D01*
X3697667Y-17428572D01*
X3716714Y-17419048D01*
X3735762Y-17419048D01*
X3802428Y-17552381D02*
X3802428Y-17419048D01*
X3802428Y-17352381D02*
X3792905Y-17361905D01*
X3802428Y-17371429D01*
X3811952Y-17361905D01*
X3802428Y-17352381D01*
X3802428Y-17371429D01*
X3926238Y-17552381D02*
X3907190Y-17542857D01*
X3897667Y-17523810D01*
X3897667Y-17352381D01*
X4031000Y-17552381D02*
X4011952Y-17542857D01*
X4002428Y-17523810D01*
X4002428Y-17352381D01*
X4259571Y-17552381D02*
X4259571Y-17352381D01*
X4326238Y-17495238D01*
X4392905Y-17352381D01*
X4392905Y-17552381D01*
X4573857Y-17552381D02*
X4573857Y-17447619D01*
X4564333Y-17428572D01*
X4545286Y-17419048D01*
X4507190Y-17419048D01*
X4488143Y-17428572D01*
X4573857Y-17542857D02*
X4554810Y-17552381D01*
X4507190Y-17552381D01*
X4488143Y-17542857D01*
X4478619Y-17523810D01*
X4478619Y-17504762D01*
X4488143Y-17485715D01*
X4507190Y-17476191D01*
X4554810Y-17476191D01*
X4573857Y-17466667D01*
X4669095Y-17419048D02*
X4669095Y-17619048D01*
X4669095Y-17428572D02*
X4688143Y-17419048D01*
X4726238Y-17419048D01*
X4745286Y-17428572D01*
X4754810Y-17438095D01*
X4764333Y-17457143D01*
X4764333Y-17514286D01*
X4754810Y-17533334D01*
X4745286Y-17542857D01*
X4726238Y-17552381D01*
X4688143Y-17552381D01*
X4669095Y-17542857D01*
X4850048Y-17533334D02*
X4859571Y-17542857D01*
X4850048Y-17552381D01*
X4840524Y-17542857D01*
X4850048Y-17533334D01*
X4850048Y-17552381D01*
X4850048Y-17428572D02*
X4859571Y-17438095D01*
X4850048Y-17447619D01*
X4840524Y-17438095D01*
X4850048Y-17428572D01*
X4850048Y-17447619D01*
D13*
X3181000Y-17861905D02*
X3221000Y-17901905D01*
X3221000Y-17861905D02*
X3181000Y-17901905D01*
D12*
X3516714Y-17772381D02*
X3535762Y-17772381D01*
X3554809Y-17781905D01*
X3564333Y-17791429D01*
X3573857Y-17810476D01*
X3583381Y-17848572D01*
X3583381Y-17896191D01*
X3573857Y-17934286D01*
X3564333Y-17953334D01*
X3554809Y-17962857D01*
X3535762Y-17972381D01*
X3516714Y-17972381D01*
X3497667Y-17962857D01*
X3488143Y-17953334D01*
X3478619Y-17934286D01*
X3469095Y-17896191D01*
X3469095Y-17848572D01*
X3478619Y-17810476D01*
X3488143Y-17791429D01*
X3497667Y-17781905D01*
X3516714Y-17772381D01*
X3669095Y-17953334D02*
X3678619Y-17962857D01*
X3669095Y-17972381D01*
X3659571Y-17962857D01*
X3669095Y-17953334D01*
X3669095Y-17972381D01*
X3850048Y-17839048D02*
X3850048Y-17972381D01*
X3802428Y-17762857D02*
X3754809Y-17905715D01*
X3878619Y-17905715D01*
X3992905Y-17772381D02*
X4011952Y-17772381D01*
X4031000Y-17781905D01*
X4040524Y-17791429D01*
X4050048Y-17810476D01*
X4059571Y-17848572D01*
X4059571Y-17896191D01*
X4050048Y-17934286D01*
X4040524Y-17953334D01*
X4031000Y-17962857D01*
X4011952Y-17972381D01*
X3992905Y-17972381D01*
X3973857Y-17962857D01*
X3964333Y-17953334D01*
X3954809Y-17934286D01*
X3945286Y-17896191D01*
X3945286Y-17848572D01*
X3954809Y-17810476D01*
X3964333Y-17791429D01*
X3973857Y-17781905D01*
X3992905Y-17772381D01*
X4183381Y-17772381D02*
X4202429Y-17772381D01*
X4221476Y-17781905D01*
X4231000Y-17791429D01*
X4240524Y-17810476D01*
X4250048Y-17848572D01*
X4250048Y-17896191D01*
X4240524Y-17934286D01*
X4231000Y-17953334D01*
X4221476Y-17962857D01*
X4202429Y-17972381D01*
X4183381Y-17972381D01*
X4164333Y-17962857D01*
X4154809Y-17953334D01*
X4145286Y-17934286D01*
X4135762Y-17896191D01*
X4135762Y-17848572D01*
X4145286Y-17810476D01*
X4154809Y-17791429D01*
X4164333Y-17781905D01*
X4183381Y-17772381D01*
X4335762Y-17972381D02*
X4335762Y-17839048D01*
X4335762Y-17858095D02*
X4345286Y-17848572D01*
X4364333Y-17839048D01*
X4392905Y-17839048D01*
X4411952Y-17848572D01*
X4421476Y-17867619D01*
X4421476Y-17972381D01*
X4421476Y-17867619D02*
X4431000Y-17848572D01*
X4450048Y-17839048D01*
X4478619Y-17839048D01*
X4497667Y-17848572D01*
X4507190Y-17867619D01*
X4507190Y-17972381D01*
X4602429Y-17972381D02*
X4602429Y-17839048D01*
X4602429Y-17858095D02*
X4611952Y-17848572D01*
X4631000Y-17839048D01*
X4659571Y-17839048D01*
X4678619Y-17848572D01*
X4688143Y-17867619D01*
X4688143Y-17972381D01*
X4688143Y-17867619D02*
X4697667Y-17848572D01*
X4716714Y-17839048D01*
X4745286Y-17839048D01*
X4764333Y-17848572D01*
X4773857Y-17867619D01*
X4773857Y-17972381D01*
X5164333Y-17762857D02*
X4992905Y-18020000D01*
X5421476Y-17772381D02*
X5440524Y-17772381D01*
X5459571Y-17781905D01*
X5469095Y-17791429D01*
X5478619Y-17810476D01*
X5488143Y-17848572D01*
X5488143Y-17896191D01*
X5478619Y-17934286D01*
X5469095Y-17953334D01*
X5459571Y-17962857D01*
X5440524Y-17972381D01*
X5421476Y-17972381D01*
X5402429Y-17962857D01*
X5392905Y-17953334D01*
X5383381Y-17934286D01*
X5373857Y-17896191D01*
X5373857Y-17848572D01*
X5383381Y-17810476D01*
X5392905Y-17791429D01*
X5402429Y-17781905D01*
X5421476Y-17772381D01*
X5573857Y-17953334D02*
X5583381Y-17962857D01*
X5573857Y-17972381D01*
X5564333Y-17962857D01*
X5573857Y-17953334D01*
X5573857Y-17972381D01*
X5707190Y-17772381D02*
X5726238Y-17772381D01*
X5745286Y-17781905D01*
X5754809Y-17791429D01*
X5764333Y-17810476D01*
X5773857Y-17848572D01*
X5773857Y-17896191D01*
X5764333Y-17934286D01*
X5754809Y-17953334D01*
X5745286Y-17962857D01*
X5726238Y-17972381D01*
X5707190Y-17972381D01*
X5688143Y-17962857D01*
X5678619Y-17953334D01*
X5669095Y-17934286D01*
X5659571Y-17896191D01*
X5659571Y-17848572D01*
X5669095Y-17810476D01*
X5678619Y-17791429D01*
X5688143Y-17781905D01*
X5707190Y-17772381D01*
X5964333Y-17972381D02*
X5850048Y-17972381D01*
X5907190Y-17972381D02*
X5907190Y-17772381D01*
X5888143Y-17800953D01*
X5869095Y-17820000D01*
X5850048Y-17829524D01*
X6145286Y-17772381D02*
X6050048Y-17772381D01*
X6040524Y-17867619D01*
X6050048Y-17858095D01*
X6069095Y-17848572D01*
X6116714Y-17848572D01*
X6135762Y-17858095D01*
X6145286Y-17867619D01*
X6154809Y-17886667D01*
X6154809Y-17934286D01*
X6145286Y-17953334D01*
X6135762Y-17962857D01*
X6116714Y-17972381D01*
X6069095Y-17972381D01*
X6050048Y-17962857D01*
X6040524Y-17953334D01*
X6221476Y-17772381D02*
X6354809Y-17772381D01*
X6269095Y-17972381D01*
X6421476Y-17772381D02*
X6421476Y-17810476D01*
X6497667Y-17772381D02*
X6497667Y-17810476D01*
X6792905Y-18048572D02*
X6783381Y-18039048D01*
X6764333Y-18010476D01*
X6754809Y-17991429D01*
X6745286Y-17962857D01*
X6735762Y-17915238D01*
X6735762Y-17877143D01*
X6745286Y-17829524D01*
X6754809Y-17800953D01*
X6764333Y-17781905D01*
X6783381Y-17753334D01*
X6792905Y-17743810D01*
X6954809Y-17839048D02*
X6954809Y-17972381D01*
X6907190Y-17762857D02*
X6859571Y-17905715D01*
X6983381Y-17905715D01*
X7154809Y-17772381D02*
X7059571Y-17772381D01*
X7050048Y-17867619D01*
X7059571Y-17858095D01*
X7078619Y-17848572D01*
X7126238Y-17848572D01*
X7145286Y-17858095D01*
X7154809Y-17867619D01*
X7164333Y-17886667D01*
X7164333Y-17934286D01*
X7154809Y-17953334D01*
X7145286Y-17962857D01*
X7126238Y-17972381D01*
X7078619Y-17972381D01*
X7059571Y-17962857D01*
X7050048Y-17953334D01*
X7240524Y-17791429D02*
X7250048Y-17781905D01*
X7269095Y-17772381D01*
X7316714Y-17772381D01*
X7335762Y-17781905D01*
X7345286Y-17791429D01*
X7354809Y-17810476D01*
X7354809Y-17829524D01*
X7345286Y-17858095D01*
X7231000Y-17972381D01*
X7354809Y-17972381D01*
X7592905Y-17972381D02*
X7592905Y-17772381D01*
X7678619Y-17972381D02*
X7678619Y-17867619D01*
X7669095Y-17848572D01*
X7650048Y-17839048D01*
X7621476Y-17839048D01*
X7602428Y-17848572D01*
X7592905Y-17858095D01*
X7802428Y-17972381D02*
X7783381Y-17962857D01*
X7773857Y-17953334D01*
X7764333Y-17934286D01*
X7764333Y-17877143D01*
X7773857Y-17858095D01*
X7783381Y-17848572D01*
X7802428Y-17839048D01*
X7831000Y-17839048D01*
X7850048Y-17848572D01*
X7859571Y-17858095D01*
X7869095Y-17877143D01*
X7869095Y-17934286D01*
X7859571Y-17953334D01*
X7850048Y-17962857D01*
X7831000Y-17972381D01*
X7802428Y-17972381D01*
X7983381Y-17972381D02*
X7964333Y-17962857D01*
X7954809Y-17943810D01*
X7954809Y-17772381D01*
X8135762Y-17962857D02*
X8116714Y-17972381D01*
X8078619Y-17972381D01*
X8059571Y-17962857D01*
X8050048Y-17943810D01*
X8050048Y-17867619D01*
X8059571Y-17848572D01*
X8078619Y-17839048D01*
X8116714Y-17839048D01*
X8135762Y-17848572D01*
X8145286Y-17867619D01*
X8145286Y-17886667D01*
X8050048Y-17905715D01*
X8221476Y-17962857D02*
X8240524Y-17972381D01*
X8278619Y-17972381D01*
X8297667Y-17962857D01*
X8307190Y-17943810D01*
X8307190Y-17934286D01*
X8297667Y-17915238D01*
X8278619Y-17905715D01*
X8250048Y-17905715D01*
X8231000Y-17896191D01*
X8221476Y-17877143D01*
X8221476Y-17867619D01*
X8231000Y-17848572D01*
X8250048Y-17839048D01*
X8278619Y-17839048D01*
X8297667Y-17848572D01*
X8373857Y-18048572D02*
X8383381Y-18039048D01*
X8402429Y-18010476D01*
X8411952Y-17991429D01*
X8421476Y-17962857D01*
X8431000Y-17915238D01*
X8431000Y-17877143D01*
X8421476Y-17829524D01*
X8411952Y-17800953D01*
X8402429Y-17781905D01*
X8383381Y-17753334D01*
X8373857Y-17743810D01*
X8735762Y-18048572D02*
X8726238Y-18039048D01*
X8707190Y-18010476D01*
X8697667Y-17991429D01*
X8688143Y-17962857D01*
X8678619Y-17915238D01*
X8678619Y-17877143D01*
X8688143Y-17829524D01*
X8697667Y-17800953D01*
X8707190Y-17781905D01*
X8726238Y-17753334D01*
X8735762Y-17743810D01*
X8811952Y-17839048D02*
X8811952Y-17972381D01*
X8811952Y-17858095D02*
X8821476Y-17848572D01*
X8840524Y-17839048D01*
X8869095Y-17839048D01*
X8888143Y-17848572D01*
X8897667Y-17867619D01*
X8897667Y-17972381D01*
X9021476Y-17972381D02*
X9002429Y-17962857D01*
X8992905Y-17953334D01*
X8983381Y-17934286D01*
X8983381Y-17877143D01*
X8992905Y-17858095D01*
X9002429Y-17848572D01*
X9021476Y-17839048D01*
X9050048Y-17839048D01*
X9069095Y-17848572D01*
X9078619Y-17858095D01*
X9088143Y-17877143D01*
X9088143Y-17934286D01*
X9078619Y-17953334D01*
X9069095Y-17962857D01*
X9050048Y-17972381D01*
X9021476Y-17972381D01*
X9145286Y-17839048D02*
X9221476Y-17839048D01*
X9173857Y-17772381D02*
X9173857Y-17943810D01*
X9183381Y-17962857D01*
X9202429Y-17972381D01*
X9221476Y-17972381D01*
X9440524Y-17839048D02*
X9440524Y-18039048D01*
X9440524Y-17848572D02*
X9459571Y-17839048D01*
X9497667Y-17839048D01*
X9516714Y-17848572D01*
X9526238Y-17858095D01*
X9535762Y-17877143D01*
X9535762Y-17934286D01*
X9526238Y-17953334D01*
X9516714Y-17962857D01*
X9497667Y-17972381D01*
X9459571Y-17972381D01*
X9440524Y-17962857D01*
X9650048Y-17972381D02*
X9631000Y-17962857D01*
X9621476Y-17943810D01*
X9621476Y-17772381D01*
X9811952Y-17972381D02*
X9811952Y-17867619D01*
X9802429Y-17848572D01*
X9783381Y-17839048D01*
X9745286Y-17839048D01*
X9726238Y-17848572D01*
X9811952Y-17962857D02*
X9792905Y-17972381D01*
X9745286Y-17972381D01*
X9726238Y-17962857D01*
X9716714Y-17943810D01*
X9716714Y-17924762D01*
X9726238Y-17905715D01*
X9745286Y-17896191D01*
X9792905Y-17896191D01*
X9811952Y-17886667D01*
X9878619Y-17839048D02*
X9954810Y-17839048D01*
X9907190Y-17772381D02*
X9907190Y-17943810D01*
X9916714Y-17962857D01*
X9935762Y-17972381D01*
X9954810Y-17972381D01*
X10097667Y-17962857D02*
X10078619Y-17972381D01*
X10040524Y-17972381D01*
X10021476Y-17962857D01*
X10011952Y-17943810D01*
X10011952Y-17867619D01*
X10021476Y-17848572D01*
X10040524Y-17839048D01*
X10078619Y-17839048D01*
X10097667Y-17848572D01*
X10107190Y-17867619D01*
X10107190Y-17886667D01*
X10011952Y-17905715D01*
X10278619Y-17972381D02*
X10278619Y-17772381D01*
X10278619Y-17962857D02*
X10259571Y-17972381D01*
X10221476Y-17972381D01*
X10202429Y-17962857D01*
X10192905Y-17953334D01*
X10183381Y-17934286D01*
X10183381Y-17877143D01*
X10192905Y-17858095D01*
X10202429Y-17848572D01*
X10221476Y-17839048D01*
X10259571Y-17839048D01*
X10278619Y-17848572D01*
X10354810Y-18048572D02*
X10364333Y-18039048D01*
X10383381Y-18010476D01*
X10392905Y-17991429D01*
X10402429Y-17962857D01*
X10411952Y-17915238D01*
X10411952Y-17877143D01*
X10402429Y-17829524D01*
X10392905Y-17800953D01*
X10383381Y-17781905D01*
X10364333Y-17753334D01*
X10354810Y-17743810D01*
D14*
X3221000Y-18145905D02*
G75*
G03*
X3221000Y-18145905I-30000J0D01*
G01*
D12*
X3516714Y-18036381D02*
X3535762Y-18036381D01*
X3554809Y-18045905D01*
X3564333Y-18055429D01*
X3573857Y-18074476D01*
X3583381Y-18112572D01*
X3583381Y-18160191D01*
X3573857Y-18198286D01*
X3564333Y-18217334D01*
X3554809Y-18226857D01*
X3535762Y-18236381D01*
X3516714Y-18236381D01*
X3497667Y-18226857D01*
X3488143Y-18217334D01*
X3478619Y-18198286D01*
X3469095Y-18160191D01*
X3469095Y-18112572D01*
X3478619Y-18074476D01*
X3488143Y-18055429D01*
X3497667Y-18045905D01*
X3516714Y-18036381D01*
X3669095Y-18217334D02*
X3678619Y-18226857D01*
X3669095Y-18236381D01*
X3659571Y-18226857D01*
X3669095Y-18217334D01*
X3669095Y-18236381D01*
X3850048Y-18036381D02*
X3811952Y-18036381D01*
X3792905Y-18045905D01*
X3783381Y-18055429D01*
X3764333Y-18084000D01*
X3754809Y-18122095D01*
X3754809Y-18198286D01*
X3764333Y-18217334D01*
X3773857Y-18226857D01*
X3792905Y-18236381D01*
X3831000Y-18236381D01*
X3850048Y-18226857D01*
X3859571Y-18217334D01*
X3869095Y-18198286D01*
X3869095Y-18150667D01*
X3859571Y-18131619D01*
X3850048Y-18122095D01*
X3831000Y-18112572D01*
X3792905Y-18112572D01*
X3773857Y-18122095D01*
X3764333Y-18131619D01*
X3754809Y-18150667D01*
X3992905Y-18036381D02*
X4011952Y-18036381D01*
X4031000Y-18045905D01*
X4040524Y-18055429D01*
X4050048Y-18074476D01*
X4059571Y-18112572D01*
X4059571Y-18160191D01*
X4050048Y-18198286D01*
X4040524Y-18217334D01*
X4031000Y-18226857D01*
X4011952Y-18236381D01*
X3992905Y-18236381D01*
X3973857Y-18226857D01*
X3964333Y-18217334D01*
X3954809Y-18198286D01*
X3945286Y-18160191D01*
X3945286Y-18112572D01*
X3954809Y-18074476D01*
X3964333Y-18055429D01*
X3973857Y-18045905D01*
X3992905Y-18036381D01*
X4183381Y-18036381D02*
X4202429Y-18036381D01*
X4221476Y-18045905D01*
X4231000Y-18055429D01*
X4240524Y-18074476D01*
X4250048Y-18112572D01*
X4250048Y-18160191D01*
X4240524Y-18198286D01*
X4231000Y-18217334D01*
X4221476Y-18226857D01*
X4202429Y-18236381D01*
X4183381Y-18236381D01*
X4164333Y-18226857D01*
X4154809Y-18217334D01*
X4145286Y-18198286D01*
X4135762Y-18160191D01*
X4135762Y-18112572D01*
X4145286Y-18074476D01*
X4154809Y-18055429D01*
X4164333Y-18045905D01*
X4183381Y-18036381D01*
X4335762Y-18236381D02*
X4335762Y-18103048D01*
X4335762Y-18122095D02*
X4345286Y-18112572D01*
X4364333Y-18103048D01*
X4392905Y-18103048D01*
X4411952Y-18112572D01*
X4421476Y-18131619D01*
X4421476Y-18236381D01*
X4421476Y-18131619D02*
X4431000Y-18112572D01*
X4450048Y-18103048D01*
X4478619Y-18103048D01*
X4497667Y-18112572D01*
X4507190Y-18131619D01*
X4507190Y-18236381D01*
X4602429Y-18236381D02*
X4602429Y-18103048D01*
X4602429Y-18122095D02*
X4611952Y-18112572D01*
X4631000Y-18103048D01*
X4659571Y-18103048D01*
X4678619Y-18112572D01*
X4688143Y-18131619D01*
X4688143Y-18236381D01*
X4688143Y-18131619D02*
X4697667Y-18112572D01*
X4716714Y-18103048D01*
X4745286Y-18103048D01*
X4764333Y-18112572D01*
X4773857Y-18131619D01*
X4773857Y-18236381D01*
X5164333Y-18026857D02*
X4992905Y-18284000D01*
X5421476Y-18036381D02*
X5440524Y-18036381D01*
X5459571Y-18045905D01*
X5469095Y-18055429D01*
X5478619Y-18074476D01*
X5488143Y-18112572D01*
X5488143Y-18160191D01*
X5478619Y-18198286D01*
X5469095Y-18217334D01*
X5459571Y-18226857D01*
X5440524Y-18236381D01*
X5421476Y-18236381D01*
X5402429Y-18226857D01*
X5392905Y-18217334D01*
X5383381Y-18198286D01*
X5373857Y-18160191D01*
X5373857Y-18112572D01*
X5383381Y-18074476D01*
X5392905Y-18055429D01*
X5402429Y-18045905D01*
X5421476Y-18036381D01*
X5573857Y-18217334D02*
X5583381Y-18226857D01*
X5573857Y-18236381D01*
X5564333Y-18226857D01*
X5573857Y-18217334D01*
X5573857Y-18236381D01*
X5707190Y-18036381D02*
X5726238Y-18036381D01*
X5745286Y-18045905D01*
X5754809Y-18055429D01*
X5764333Y-18074476D01*
X5773857Y-18112572D01*
X5773857Y-18160191D01*
X5764333Y-18198286D01*
X5754809Y-18217334D01*
X5745286Y-18226857D01*
X5726238Y-18236381D01*
X5707190Y-18236381D01*
X5688143Y-18226857D01*
X5678619Y-18217334D01*
X5669095Y-18198286D01*
X5659571Y-18160191D01*
X5659571Y-18112572D01*
X5669095Y-18074476D01*
X5678619Y-18055429D01*
X5688143Y-18045905D01*
X5707190Y-18036381D01*
X5850048Y-18055429D02*
X5859571Y-18045905D01*
X5878619Y-18036381D01*
X5926238Y-18036381D01*
X5945286Y-18045905D01*
X5954809Y-18055429D01*
X5964333Y-18074476D01*
X5964333Y-18093524D01*
X5954809Y-18122095D01*
X5840524Y-18236381D01*
X5964333Y-18236381D01*
X6031000Y-18036381D02*
X6154809Y-18036381D01*
X6088143Y-18112572D01*
X6116714Y-18112572D01*
X6135762Y-18122095D01*
X6145286Y-18131619D01*
X6154809Y-18150667D01*
X6154809Y-18198286D01*
X6145286Y-18217334D01*
X6135762Y-18226857D01*
X6116714Y-18236381D01*
X6059571Y-18236381D01*
X6040524Y-18226857D01*
X6031000Y-18217334D01*
X6326238Y-18036381D02*
X6288143Y-18036381D01*
X6269095Y-18045905D01*
X6259571Y-18055429D01*
X6240524Y-18084000D01*
X6231000Y-18122095D01*
X6231000Y-18198286D01*
X6240524Y-18217334D01*
X6250048Y-18226857D01*
X6269095Y-18236381D01*
X6307190Y-18236381D01*
X6326238Y-18226857D01*
X6335762Y-18217334D01*
X6345286Y-18198286D01*
X6345286Y-18150667D01*
X6335762Y-18131619D01*
X6326238Y-18122095D01*
X6307190Y-18112572D01*
X6269095Y-18112572D01*
X6250048Y-18122095D01*
X6240524Y-18131619D01*
X6231000Y-18150667D01*
X6421476Y-18036381D02*
X6421476Y-18074476D01*
X6497667Y-18036381D02*
X6497667Y-18074476D01*
X6792905Y-18312572D02*
X6783381Y-18303048D01*
X6764333Y-18274476D01*
X6754809Y-18255429D01*
X6745286Y-18226857D01*
X6735762Y-18179238D01*
X6735762Y-18141143D01*
X6745286Y-18093524D01*
X6754809Y-18064953D01*
X6764333Y-18045905D01*
X6783381Y-18017334D01*
X6792905Y-18007810D01*
X6859571Y-18055429D02*
X6869095Y-18045905D01*
X6888143Y-18036381D01*
X6935762Y-18036381D01*
X6954809Y-18045905D01*
X6964333Y-18055429D01*
X6973857Y-18074476D01*
X6973857Y-18093524D01*
X6964333Y-18122095D01*
X6850048Y-18236381D01*
X6973857Y-18236381D01*
X7211952Y-18236381D02*
X7211952Y-18036381D01*
X7297667Y-18236381D02*
X7297667Y-18131619D01*
X7288143Y-18112572D01*
X7269095Y-18103048D01*
X7240524Y-18103048D01*
X7221476Y-18112572D01*
X7211952Y-18122095D01*
X7421476Y-18236381D02*
X7402428Y-18226857D01*
X7392905Y-18217334D01*
X7383381Y-18198286D01*
X7383381Y-18141143D01*
X7392905Y-18122095D01*
X7402428Y-18112572D01*
X7421476Y-18103048D01*
X7450048Y-18103048D01*
X7469095Y-18112572D01*
X7478619Y-18122095D01*
X7488143Y-18141143D01*
X7488143Y-18198286D01*
X7478619Y-18217334D01*
X7469095Y-18226857D01*
X7450048Y-18236381D01*
X7421476Y-18236381D01*
X7602428Y-18236381D02*
X7583381Y-18226857D01*
X7573857Y-18207810D01*
X7573857Y-18036381D01*
X7754809Y-18226857D02*
X7735762Y-18236381D01*
X7697667Y-18236381D01*
X7678619Y-18226857D01*
X7669095Y-18207810D01*
X7669095Y-18131619D01*
X7678619Y-18112572D01*
X7697667Y-18103048D01*
X7735762Y-18103048D01*
X7754809Y-18112572D01*
X7764333Y-18131619D01*
X7764333Y-18150667D01*
X7669095Y-18169715D01*
X7840524Y-18226857D02*
X7859571Y-18236381D01*
X7897667Y-18236381D01*
X7916714Y-18226857D01*
X7926238Y-18207810D01*
X7926238Y-18198286D01*
X7916714Y-18179238D01*
X7897667Y-18169715D01*
X7869095Y-18169715D01*
X7850048Y-18160191D01*
X7840524Y-18141143D01*
X7840524Y-18131619D01*
X7850048Y-18112572D01*
X7869095Y-18103048D01*
X7897667Y-18103048D01*
X7916714Y-18112572D01*
X7992905Y-18312572D02*
X8002428Y-18303048D01*
X8021476Y-18274476D01*
X8031000Y-18255429D01*
X8040524Y-18226857D01*
X8050048Y-18179238D01*
X8050048Y-18141143D01*
X8040524Y-18093524D01*
X8031000Y-18064953D01*
X8021476Y-18045905D01*
X8002428Y-18017334D01*
X7992905Y-18007810D01*
X8354809Y-18312572D02*
X8345286Y-18303048D01*
X8326238Y-18274476D01*
X8316714Y-18255429D01*
X8307190Y-18226857D01*
X8297667Y-18179238D01*
X8297667Y-18141143D01*
X8307190Y-18093524D01*
X8316714Y-18064953D01*
X8326238Y-18045905D01*
X8345286Y-18017334D01*
X8354809Y-18007810D01*
X8431000Y-18103048D02*
X8431000Y-18236381D01*
X8431000Y-18122095D02*
X8440524Y-18112572D01*
X8459571Y-18103048D01*
X8488143Y-18103048D01*
X8507190Y-18112572D01*
X8516714Y-18131619D01*
X8516714Y-18236381D01*
X8640524Y-18236381D02*
X8621476Y-18226857D01*
X8611952Y-18217334D01*
X8602429Y-18198286D01*
X8602429Y-18141143D01*
X8611952Y-18122095D01*
X8621476Y-18112572D01*
X8640524Y-18103048D01*
X8669095Y-18103048D01*
X8688143Y-18112572D01*
X8697667Y-18122095D01*
X8707190Y-18141143D01*
X8707190Y-18198286D01*
X8697667Y-18217334D01*
X8688143Y-18226857D01*
X8669095Y-18236381D01*
X8640524Y-18236381D01*
X8764333Y-18103048D02*
X8840524Y-18103048D01*
X8792905Y-18036381D02*
X8792905Y-18207810D01*
X8802429Y-18226857D01*
X8821476Y-18236381D01*
X8840524Y-18236381D01*
X9059571Y-18103048D02*
X9059571Y-18303048D01*
X9059571Y-18112572D02*
X9078619Y-18103048D01*
X9116714Y-18103048D01*
X9135762Y-18112572D01*
X9145286Y-18122095D01*
X9154810Y-18141143D01*
X9154810Y-18198286D01*
X9145286Y-18217334D01*
X9135762Y-18226857D01*
X9116714Y-18236381D01*
X9078619Y-18236381D01*
X9059571Y-18226857D01*
X9269095Y-18236381D02*
X9250048Y-18226857D01*
X9240524Y-18207810D01*
X9240524Y-18036381D01*
X9431000Y-18236381D02*
X9431000Y-18131619D01*
X9421476Y-18112572D01*
X9402429Y-18103048D01*
X9364333Y-18103048D01*
X9345286Y-18112572D01*
X9431000Y-18226857D02*
X9411952Y-18236381D01*
X9364333Y-18236381D01*
X9345286Y-18226857D01*
X9335762Y-18207810D01*
X9335762Y-18188762D01*
X9345286Y-18169715D01*
X9364333Y-18160191D01*
X9411952Y-18160191D01*
X9431000Y-18150667D01*
X9497667Y-18103048D02*
X9573857Y-18103048D01*
X9526238Y-18036381D02*
X9526238Y-18207810D01*
X9535762Y-18226857D01*
X9554810Y-18236381D01*
X9573857Y-18236381D01*
X9716714Y-18226857D02*
X9697667Y-18236381D01*
X9659571Y-18236381D01*
X9640524Y-18226857D01*
X9631000Y-18207810D01*
X9631000Y-18131619D01*
X9640524Y-18112572D01*
X9659571Y-18103048D01*
X9697667Y-18103048D01*
X9716714Y-18112572D01*
X9726238Y-18131619D01*
X9726238Y-18150667D01*
X9631000Y-18169715D01*
X9897667Y-18236381D02*
X9897667Y-18036381D01*
X9897667Y-18226857D02*
X9878619Y-18236381D01*
X9840524Y-18236381D01*
X9821476Y-18226857D01*
X9811952Y-18217334D01*
X9802429Y-18198286D01*
X9802429Y-18141143D01*
X9811952Y-18122095D01*
X9821476Y-18112572D01*
X9840524Y-18103048D01*
X9878619Y-18103048D01*
X9897667Y-18112572D01*
X9973857Y-18312572D02*
X9983381Y-18303048D01*
X10002429Y-18274476D01*
X10011952Y-18255429D01*
X10021476Y-18226857D01*
X10031000Y-18179238D01*
X10031000Y-18141143D01*
X10021476Y-18093524D01*
X10011952Y-18064953D01*
X10002429Y-18045905D01*
X9983381Y-18017334D01*
X9973857Y-18007810D01*
D15*
X3163400Y-18352305D02*
X3163400Y-18467505D01*
X3105800Y-18409905D02*
X3221000Y-18409905D01*
D12*
X3583381Y-18500381D02*
X3469095Y-18500381D01*
X3526238Y-18500381D02*
X3526238Y-18300381D01*
X3507190Y-18328953D01*
X3488143Y-18348000D01*
X3469095Y-18357524D01*
X3669095Y-18481334D02*
X3678619Y-18490857D01*
X3669095Y-18500381D01*
X3659571Y-18490857D01*
X3669095Y-18481334D01*
X3669095Y-18500381D01*
X3869095Y-18500381D02*
X3754809Y-18500381D01*
X3811952Y-18500381D02*
X3811952Y-18300381D01*
X3792905Y-18328953D01*
X3773857Y-18348000D01*
X3754809Y-18357524D01*
X4050048Y-18300381D02*
X3954809Y-18300381D01*
X3945286Y-18395619D01*
X3954809Y-18386095D01*
X3973857Y-18376572D01*
X4021476Y-18376572D01*
X4040524Y-18386095D01*
X4050048Y-18395619D01*
X4059571Y-18414667D01*
X4059571Y-18462286D01*
X4050048Y-18481334D01*
X4040524Y-18490857D01*
X4021476Y-18500381D01*
X3973857Y-18500381D01*
X3954809Y-18490857D01*
X3945286Y-18481334D01*
X4135762Y-18319429D02*
X4145286Y-18309905D01*
X4164333Y-18300381D01*
X4211952Y-18300381D01*
X4231000Y-18309905D01*
X4240524Y-18319429D01*
X4250048Y-18338476D01*
X4250048Y-18357524D01*
X4240524Y-18386095D01*
X4126238Y-18500381D01*
X4250048Y-18500381D01*
X4335762Y-18500381D02*
X4335762Y-18367048D01*
X4335762Y-18386095D02*
X4345286Y-18376572D01*
X4364333Y-18367048D01*
X4392905Y-18367048D01*
X4411952Y-18376572D01*
X4421476Y-18395619D01*
X4421476Y-18500381D01*
X4421476Y-18395619D02*
X4431000Y-18376572D01*
X4450048Y-18367048D01*
X4478619Y-18367048D01*
X4497667Y-18376572D01*
X4507190Y-18395619D01*
X4507190Y-18500381D01*
X4602429Y-18500381D02*
X4602429Y-18367048D01*
X4602429Y-18386095D02*
X4611952Y-18376572D01*
X4631000Y-18367048D01*
X4659571Y-18367048D01*
X4678619Y-18376572D01*
X4688143Y-18395619D01*
X4688143Y-18500381D01*
X4688143Y-18395619D02*
X4697667Y-18376572D01*
X4716714Y-18367048D01*
X4745286Y-18367048D01*
X4764333Y-18376572D01*
X4773857Y-18395619D01*
X4773857Y-18500381D01*
X5164333Y-18290857D02*
X4992905Y-18548000D01*
X5421476Y-18300381D02*
X5440524Y-18300381D01*
X5459571Y-18309905D01*
X5469095Y-18319429D01*
X5478619Y-18338476D01*
X5488143Y-18376572D01*
X5488143Y-18424191D01*
X5478619Y-18462286D01*
X5469095Y-18481334D01*
X5459571Y-18490857D01*
X5440524Y-18500381D01*
X5421476Y-18500381D01*
X5402429Y-18490857D01*
X5392905Y-18481334D01*
X5383381Y-18462286D01*
X5373857Y-18424191D01*
X5373857Y-18376572D01*
X5383381Y-18338476D01*
X5392905Y-18319429D01*
X5402429Y-18309905D01*
X5421476Y-18300381D01*
X5573857Y-18481334D02*
X5583381Y-18490857D01*
X5573857Y-18500381D01*
X5564333Y-18490857D01*
X5573857Y-18481334D01*
X5573857Y-18500381D01*
X5707190Y-18300381D02*
X5726238Y-18300381D01*
X5745286Y-18309905D01*
X5754809Y-18319429D01*
X5764333Y-18338476D01*
X5773857Y-18376572D01*
X5773857Y-18424191D01*
X5764333Y-18462286D01*
X5754809Y-18481334D01*
X5745286Y-18490857D01*
X5726238Y-18500381D01*
X5707190Y-18500381D01*
X5688143Y-18490857D01*
X5678619Y-18481334D01*
X5669095Y-18462286D01*
X5659571Y-18424191D01*
X5659571Y-18376572D01*
X5669095Y-18338476D01*
X5678619Y-18319429D01*
X5688143Y-18309905D01*
X5707190Y-18300381D01*
X5945286Y-18367048D02*
X5945286Y-18500381D01*
X5897667Y-18290857D02*
X5850048Y-18433715D01*
X5973857Y-18433715D01*
X6145286Y-18300381D02*
X6050048Y-18300381D01*
X6040524Y-18395619D01*
X6050048Y-18386095D01*
X6069095Y-18376572D01*
X6116714Y-18376572D01*
X6135762Y-18386095D01*
X6145286Y-18395619D01*
X6154809Y-18414667D01*
X6154809Y-18462286D01*
X6145286Y-18481334D01*
X6135762Y-18490857D01*
X6116714Y-18500381D01*
X6069095Y-18500381D01*
X6050048Y-18490857D01*
X6040524Y-18481334D01*
X6326238Y-18367048D02*
X6326238Y-18500381D01*
X6278619Y-18290857D02*
X6231000Y-18433715D01*
X6354809Y-18433715D01*
X6421476Y-18300381D02*
X6421476Y-18338476D01*
X6497667Y-18300381D02*
X6497667Y-18338476D01*
X6792905Y-18576572D02*
X6783381Y-18567048D01*
X6764333Y-18538476D01*
X6754809Y-18519429D01*
X6745286Y-18490857D01*
X6735762Y-18443238D01*
X6735762Y-18405143D01*
X6745286Y-18357524D01*
X6754809Y-18328953D01*
X6764333Y-18309905D01*
X6783381Y-18281334D01*
X6792905Y-18271810D01*
X6954809Y-18367048D02*
X6954809Y-18500381D01*
X6907190Y-18290857D02*
X6859571Y-18433715D01*
X6983381Y-18433715D01*
X7211952Y-18500381D02*
X7211952Y-18300381D01*
X7297667Y-18500381D02*
X7297667Y-18395619D01*
X7288143Y-18376572D01*
X7269095Y-18367048D01*
X7240524Y-18367048D01*
X7221476Y-18376572D01*
X7211952Y-18386095D01*
X7421476Y-18500381D02*
X7402428Y-18490857D01*
X7392905Y-18481334D01*
X7383381Y-18462286D01*
X7383381Y-18405143D01*
X7392905Y-18386095D01*
X7402428Y-18376572D01*
X7421476Y-18367048D01*
X7450048Y-18367048D01*
X7469095Y-18376572D01*
X7478619Y-18386095D01*
X7488143Y-18405143D01*
X7488143Y-18462286D01*
X7478619Y-18481334D01*
X7469095Y-18490857D01*
X7450048Y-18500381D01*
X7421476Y-18500381D01*
X7602428Y-18500381D02*
X7583381Y-18490857D01*
X7573857Y-18471810D01*
X7573857Y-18300381D01*
X7754809Y-18490857D02*
X7735762Y-18500381D01*
X7697667Y-18500381D01*
X7678619Y-18490857D01*
X7669095Y-18471810D01*
X7669095Y-18395619D01*
X7678619Y-18376572D01*
X7697667Y-18367048D01*
X7735762Y-18367048D01*
X7754809Y-18376572D01*
X7764333Y-18395619D01*
X7764333Y-18414667D01*
X7669095Y-18433715D01*
X7840524Y-18490857D02*
X7859571Y-18500381D01*
X7897667Y-18500381D01*
X7916714Y-18490857D01*
X7926238Y-18471810D01*
X7926238Y-18462286D01*
X7916714Y-18443238D01*
X7897667Y-18433715D01*
X7869095Y-18433715D01*
X7850048Y-18424191D01*
X7840524Y-18405143D01*
X7840524Y-18395619D01*
X7850048Y-18376572D01*
X7869095Y-18367048D01*
X7897667Y-18367048D01*
X7916714Y-18376572D01*
X7992905Y-18576572D02*
X8002428Y-18567048D01*
X8021476Y-18538476D01*
X8031000Y-18519429D01*
X8040524Y-18490857D01*
X8050048Y-18443238D01*
X8050048Y-18405143D01*
X8040524Y-18357524D01*
X8031000Y-18328953D01*
X8021476Y-18309905D01*
X8002428Y-18281334D01*
X7992905Y-18271810D01*
X8354809Y-18576572D02*
X8345286Y-18567048D01*
X8326238Y-18538476D01*
X8316714Y-18519429D01*
X8307190Y-18490857D01*
X8297667Y-18443238D01*
X8297667Y-18405143D01*
X8307190Y-18357524D01*
X8316714Y-18328953D01*
X8326238Y-18309905D01*
X8345286Y-18281334D01*
X8354809Y-18271810D01*
X8431000Y-18367048D02*
X8431000Y-18500381D01*
X8431000Y-18386095D02*
X8440524Y-18376572D01*
X8459571Y-18367048D01*
X8488143Y-18367048D01*
X8507190Y-18376572D01*
X8516714Y-18395619D01*
X8516714Y-18500381D01*
X8640524Y-18500381D02*
X8621476Y-18490857D01*
X8611952Y-18481334D01*
X8602429Y-18462286D01*
X8602429Y-18405143D01*
X8611952Y-18386095D01*
X8621476Y-18376572D01*
X8640524Y-18367048D01*
X8669095Y-18367048D01*
X8688143Y-18376572D01*
X8697667Y-18386095D01*
X8707190Y-18405143D01*
X8707190Y-18462286D01*
X8697667Y-18481334D01*
X8688143Y-18490857D01*
X8669095Y-18500381D01*
X8640524Y-18500381D01*
X8764333Y-18367048D02*
X8840524Y-18367048D01*
X8792905Y-18300381D02*
X8792905Y-18471810D01*
X8802429Y-18490857D01*
X8821476Y-18500381D01*
X8840524Y-18500381D01*
X9059571Y-18367048D02*
X9059571Y-18567048D01*
X9059571Y-18376572D02*
X9078619Y-18367048D01*
X9116714Y-18367048D01*
X9135762Y-18376572D01*
X9145286Y-18386095D01*
X9154810Y-18405143D01*
X9154810Y-18462286D01*
X9145286Y-18481334D01*
X9135762Y-18490857D01*
X9116714Y-18500381D01*
X9078619Y-18500381D01*
X9059571Y-18490857D01*
X9269095Y-18500381D02*
X9250048Y-18490857D01*
X9240524Y-18471810D01*
X9240524Y-18300381D01*
X9431000Y-18500381D02*
X9431000Y-18395619D01*
X9421476Y-18376572D01*
X9402429Y-18367048D01*
X9364333Y-18367048D01*
X9345286Y-18376572D01*
X9431000Y-18490857D02*
X9411952Y-18500381D01*
X9364333Y-18500381D01*
X9345286Y-18490857D01*
X9335762Y-18471810D01*
X9335762Y-18452762D01*
X9345286Y-18433715D01*
X9364333Y-18424191D01*
X9411952Y-18424191D01*
X9431000Y-18414667D01*
X9497667Y-18367048D02*
X9573857Y-18367048D01*
X9526238Y-18300381D02*
X9526238Y-18471810D01*
X9535762Y-18490857D01*
X9554810Y-18500381D01*
X9573857Y-18500381D01*
X9716714Y-18490857D02*
X9697667Y-18500381D01*
X9659571Y-18500381D01*
X9640524Y-18490857D01*
X9631000Y-18471810D01*
X9631000Y-18395619D01*
X9640524Y-18376572D01*
X9659571Y-18367048D01*
X9697667Y-18367048D01*
X9716714Y-18376572D01*
X9726238Y-18395619D01*
X9726238Y-18414667D01*
X9631000Y-18433715D01*
X9897667Y-18500381D02*
X9897667Y-18300381D01*
X9897667Y-18490857D02*
X9878619Y-18500381D01*
X9840524Y-18500381D01*
X9821476Y-18490857D01*
X9811952Y-18481334D01*
X9802429Y-18462286D01*
X9802429Y-18405143D01*
X9811952Y-18386095D01*
X9821476Y-18376572D01*
X9840524Y-18367048D01*
X9878619Y-18367048D01*
X9897667Y-18376572D01*
X9973857Y-18576572D02*
X9983381Y-18567048D01*
X10002429Y-18538476D01*
X10011952Y-18519429D01*
X10021476Y-18490857D01*
X10031000Y-18443238D01*
X10031000Y-18405143D01*
X10021476Y-18357524D01*
X10011952Y-18328953D01*
X10002429Y-18309905D01*
X9983381Y-18281334D01*
X9973857Y-18271810D01*
X3191711Y-18744616D02*
X3191711Y-18603194D01*
X3050289Y-18603194D01*
X3050289Y-18744616D01*
X3191711Y-18744616D01*
X3469095Y-18583429D02*
X3478619Y-18573905D01*
X3497667Y-18564381D01*
X3545286Y-18564381D01*
X3564333Y-18573905D01*
X3573857Y-18583429D01*
X3583381Y-18602476D01*
X3583381Y-18621524D01*
X3573857Y-18650095D01*
X3459571Y-18764381D01*
X3583381Y-18764381D01*
X3669095Y-18745334D02*
X3678619Y-18754857D01*
X3669095Y-18764381D01*
X3659571Y-18754857D01*
X3669095Y-18745334D01*
X3669095Y-18764381D01*
X3859571Y-18564381D02*
X3764333Y-18564381D01*
X3754809Y-18659619D01*
X3764333Y-18650095D01*
X3783381Y-18640572D01*
X3831000Y-18640572D01*
X3850048Y-18650095D01*
X3859571Y-18659619D01*
X3869095Y-18678667D01*
X3869095Y-18726286D01*
X3859571Y-18745334D01*
X3850048Y-18754857D01*
X3831000Y-18764381D01*
X3783381Y-18764381D01*
X3764333Y-18754857D01*
X3754809Y-18745334D01*
X3992905Y-18564381D02*
X4011952Y-18564381D01*
X4031000Y-18573905D01*
X4040524Y-18583429D01*
X4050048Y-18602476D01*
X4059571Y-18640572D01*
X4059571Y-18688191D01*
X4050048Y-18726286D01*
X4040524Y-18745334D01*
X4031000Y-18754857D01*
X4011952Y-18764381D01*
X3992905Y-18764381D01*
X3973857Y-18754857D01*
X3964333Y-18745334D01*
X3954809Y-18726286D01*
X3945286Y-18688191D01*
X3945286Y-18640572D01*
X3954809Y-18602476D01*
X3964333Y-18583429D01*
X3973857Y-18573905D01*
X3992905Y-18564381D01*
X4183381Y-18564381D02*
X4202429Y-18564381D01*
X4221476Y-18573905D01*
X4231000Y-18583429D01*
X4240524Y-18602476D01*
X4250048Y-18640572D01*
X4250048Y-18688191D01*
X4240524Y-18726286D01*
X4231000Y-18745334D01*
X4221476Y-18754857D01*
X4202429Y-18764381D01*
X4183381Y-18764381D01*
X4164333Y-18754857D01*
X4154809Y-18745334D01*
X4145286Y-18726286D01*
X4135762Y-18688191D01*
X4135762Y-18640572D01*
X4145286Y-18602476D01*
X4154809Y-18583429D01*
X4164333Y-18573905D01*
X4183381Y-18564381D01*
X4335762Y-18764381D02*
X4335762Y-18631048D01*
X4335762Y-18650095D02*
X4345286Y-18640572D01*
X4364333Y-18631048D01*
X4392905Y-18631048D01*
X4411952Y-18640572D01*
X4421476Y-18659619D01*
X4421476Y-18764381D01*
X4421476Y-18659619D02*
X4431000Y-18640572D01*
X4450048Y-18631048D01*
X4478619Y-18631048D01*
X4497667Y-18640572D01*
X4507190Y-18659619D01*
X4507190Y-18764381D01*
X4602429Y-18764381D02*
X4602429Y-18631048D01*
X4602429Y-18650095D02*
X4611952Y-18640572D01*
X4631000Y-18631048D01*
X4659571Y-18631048D01*
X4678619Y-18640572D01*
X4688143Y-18659619D01*
X4688143Y-18764381D01*
X4688143Y-18659619D02*
X4697667Y-18640572D01*
X4716714Y-18631048D01*
X4745286Y-18631048D01*
X4764333Y-18640572D01*
X4773857Y-18659619D01*
X4773857Y-18764381D01*
X5164333Y-18554857D02*
X4992905Y-18812000D01*
X5421476Y-18564381D02*
X5440524Y-18564381D01*
X5459571Y-18573905D01*
X5469095Y-18583429D01*
X5478619Y-18602476D01*
X5488143Y-18640572D01*
X5488143Y-18688191D01*
X5478619Y-18726286D01*
X5469095Y-18745334D01*
X5459571Y-18754857D01*
X5440524Y-18764381D01*
X5421476Y-18764381D01*
X5402429Y-18754857D01*
X5392905Y-18745334D01*
X5383381Y-18726286D01*
X5373857Y-18688191D01*
X5373857Y-18640572D01*
X5383381Y-18602476D01*
X5392905Y-18583429D01*
X5402429Y-18573905D01*
X5421476Y-18564381D01*
X5573857Y-18745334D02*
X5583381Y-18754857D01*
X5573857Y-18764381D01*
X5564333Y-18754857D01*
X5573857Y-18745334D01*
X5573857Y-18764381D01*
X5707190Y-18564381D02*
X5726238Y-18564381D01*
X5745286Y-18573905D01*
X5754809Y-18583429D01*
X5764333Y-18602476D01*
X5773857Y-18640572D01*
X5773857Y-18688191D01*
X5764333Y-18726286D01*
X5754809Y-18745334D01*
X5745286Y-18754857D01*
X5726238Y-18764381D01*
X5707190Y-18764381D01*
X5688143Y-18754857D01*
X5678619Y-18745334D01*
X5669095Y-18726286D01*
X5659571Y-18688191D01*
X5659571Y-18640572D01*
X5669095Y-18602476D01*
X5678619Y-18583429D01*
X5688143Y-18573905D01*
X5707190Y-18564381D01*
X5869095Y-18764381D02*
X5907190Y-18764381D01*
X5926238Y-18754857D01*
X5935762Y-18745334D01*
X5954809Y-18716762D01*
X5964333Y-18678667D01*
X5964333Y-18602476D01*
X5954809Y-18583429D01*
X5945286Y-18573905D01*
X5926238Y-18564381D01*
X5888143Y-18564381D01*
X5869095Y-18573905D01*
X5859571Y-18583429D01*
X5850048Y-18602476D01*
X5850048Y-18650095D01*
X5859571Y-18669143D01*
X5869095Y-18678667D01*
X5888143Y-18688191D01*
X5926238Y-18688191D01*
X5945286Y-18678667D01*
X5954809Y-18669143D01*
X5964333Y-18650095D01*
X6078619Y-18650095D02*
X6059571Y-18640572D01*
X6050048Y-18631048D01*
X6040524Y-18612000D01*
X6040524Y-18602476D01*
X6050048Y-18583429D01*
X6059571Y-18573905D01*
X6078619Y-18564381D01*
X6116714Y-18564381D01*
X6135762Y-18573905D01*
X6145286Y-18583429D01*
X6154809Y-18602476D01*
X6154809Y-18612000D01*
X6145286Y-18631048D01*
X6135762Y-18640572D01*
X6116714Y-18650095D01*
X6078619Y-18650095D01*
X6059571Y-18659619D01*
X6050048Y-18669143D01*
X6040524Y-18688191D01*
X6040524Y-18726286D01*
X6050048Y-18745334D01*
X6059571Y-18754857D01*
X6078619Y-18764381D01*
X6116714Y-18764381D01*
X6135762Y-18754857D01*
X6145286Y-18745334D01*
X6154809Y-18726286D01*
X6154809Y-18688191D01*
X6145286Y-18669143D01*
X6135762Y-18659619D01*
X6116714Y-18650095D01*
X6326238Y-18631048D02*
X6326238Y-18764381D01*
X6278619Y-18554857D02*
X6231000Y-18697715D01*
X6354809Y-18697715D01*
X6421476Y-18564381D02*
X6421476Y-18602476D01*
X6497667Y-18564381D02*
X6497667Y-18602476D01*
X6792905Y-18840572D02*
X6783381Y-18831048D01*
X6764333Y-18802476D01*
X6754809Y-18783429D01*
X6745286Y-18754857D01*
X6735762Y-18707238D01*
X6735762Y-18669143D01*
X6745286Y-18621524D01*
X6754809Y-18592953D01*
X6764333Y-18573905D01*
X6783381Y-18545334D01*
X6792905Y-18535810D01*
X6954809Y-18631048D02*
X6954809Y-18764381D01*
X6907190Y-18554857D02*
X6859571Y-18697715D01*
X6983381Y-18697715D01*
X7211952Y-18764381D02*
X7211952Y-18564381D01*
X7297667Y-18764381D02*
X7297667Y-18659619D01*
X7288143Y-18640572D01*
X7269095Y-18631048D01*
X7240524Y-18631048D01*
X7221476Y-18640572D01*
X7211952Y-18650095D01*
X7421476Y-18764381D02*
X7402428Y-18754857D01*
X7392905Y-18745334D01*
X7383381Y-18726286D01*
X7383381Y-18669143D01*
X7392905Y-18650095D01*
X7402428Y-18640572D01*
X7421476Y-18631048D01*
X7450048Y-18631048D01*
X7469095Y-18640572D01*
X7478619Y-18650095D01*
X7488143Y-18669143D01*
X7488143Y-18726286D01*
X7478619Y-18745334D01*
X7469095Y-18754857D01*
X7450048Y-18764381D01*
X7421476Y-18764381D01*
X7602428Y-18764381D02*
X7583381Y-18754857D01*
X7573857Y-18735810D01*
X7573857Y-18564381D01*
X7754809Y-18754857D02*
X7735762Y-18764381D01*
X7697667Y-18764381D01*
X7678619Y-18754857D01*
X7669095Y-18735810D01*
X7669095Y-18659619D01*
X7678619Y-18640572D01*
X7697667Y-18631048D01*
X7735762Y-18631048D01*
X7754809Y-18640572D01*
X7764333Y-18659619D01*
X7764333Y-18678667D01*
X7669095Y-18697715D01*
X7840524Y-18754857D02*
X7859571Y-18764381D01*
X7897667Y-18764381D01*
X7916714Y-18754857D01*
X7926238Y-18735810D01*
X7926238Y-18726286D01*
X7916714Y-18707238D01*
X7897667Y-18697715D01*
X7869095Y-18697715D01*
X7850048Y-18688191D01*
X7840524Y-18669143D01*
X7840524Y-18659619D01*
X7850048Y-18640572D01*
X7869095Y-18631048D01*
X7897667Y-18631048D01*
X7916714Y-18640572D01*
X7992905Y-18840572D02*
X8002428Y-18831048D01*
X8021476Y-18802476D01*
X8031000Y-18783429D01*
X8040524Y-18754857D01*
X8050048Y-18707238D01*
X8050048Y-18669143D01*
X8040524Y-18621524D01*
X8031000Y-18592953D01*
X8021476Y-18573905D01*
X8002428Y-18545334D01*
X7992905Y-18535810D01*
X8354809Y-18840572D02*
X8345286Y-18831048D01*
X8326238Y-18802476D01*
X8316714Y-18783429D01*
X8307190Y-18754857D01*
X8297667Y-18707238D01*
X8297667Y-18669143D01*
X8307190Y-18621524D01*
X8316714Y-18592953D01*
X8326238Y-18573905D01*
X8345286Y-18545334D01*
X8354809Y-18535810D01*
X8431000Y-18631048D02*
X8431000Y-18764381D01*
X8431000Y-18650095D02*
X8440524Y-18640572D01*
X8459571Y-18631048D01*
X8488143Y-18631048D01*
X8507190Y-18640572D01*
X8516714Y-18659619D01*
X8516714Y-18764381D01*
X8640524Y-18764381D02*
X8621476Y-18754857D01*
X8611952Y-18745334D01*
X8602429Y-18726286D01*
X8602429Y-18669143D01*
X8611952Y-18650095D01*
X8621476Y-18640572D01*
X8640524Y-18631048D01*
X8669095Y-18631048D01*
X8688143Y-18640572D01*
X8697667Y-18650095D01*
X8707190Y-18669143D01*
X8707190Y-18726286D01*
X8697667Y-18745334D01*
X8688143Y-18754857D01*
X8669095Y-18764381D01*
X8640524Y-18764381D01*
X8764333Y-18631048D02*
X8840524Y-18631048D01*
X8792905Y-18564381D02*
X8792905Y-18735810D01*
X8802429Y-18754857D01*
X8821476Y-18764381D01*
X8840524Y-18764381D01*
X9059571Y-18631048D02*
X9059571Y-18831048D01*
X9059571Y-18640572D02*
X9078619Y-18631048D01*
X9116714Y-18631048D01*
X9135762Y-18640572D01*
X9145286Y-18650095D01*
X9154810Y-18669143D01*
X9154810Y-18726286D01*
X9145286Y-18745334D01*
X9135762Y-18754857D01*
X9116714Y-18764381D01*
X9078619Y-18764381D01*
X9059571Y-18754857D01*
X9269095Y-18764381D02*
X9250048Y-18754857D01*
X9240524Y-18735810D01*
X9240524Y-18564381D01*
X9431000Y-18764381D02*
X9431000Y-18659619D01*
X9421476Y-18640572D01*
X9402429Y-18631048D01*
X9364333Y-18631048D01*
X9345286Y-18640572D01*
X9431000Y-18754857D02*
X9411952Y-18764381D01*
X9364333Y-18764381D01*
X9345286Y-18754857D01*
X9335762Y-18735810D01*
X9335762Y-18716762D01*
X9345286Y-18697715D01*
X9364333Y-18688191D01*
X9411952Y-18688191D01*
X9431000Y-18678667D01*
X9497667Y-18631048D02*
X9573857Y-18631048D01*
X9526238Y-18564381D02*
X9526238Y-18735810D01*
X9535762Y-18754857D01*
X9554810Y-18764381D01*
X9573857Y-18764381D01*
X9716714Y-18754857D02*
X9697667Y-18764381D01*
X9659571Y-18764381D01*
X9640524Y-18754857D01*
X9631000Y-18735810D01*
X9631000Y-18659619D01*
X9640524Y-18640572D01*
X9659571Y-18631048D01*
X9697667Y-18631048D01*
X9716714Y-18640572D01*
X9726238Y-18659619D01*
X9726238Y-18678667D01*
X9631000Y-18697715D01*
X9897667Y-18764381D02*
X9897667Y-18564381D01*
X9897667Y-18754857D02*
X9878619Y-18764381D01*
X9840524Y-18764381D01*
X9821476Y-18754857D01*
X9811952Y-18745334D01*
X9802429Y-18726286D01*
X9802429Y-18669143D01*
X9811952Y-18650095D01*
X9821476Y-18640572D01*
X9840524Y-18631048D01*
X9878619Y-18631048D01*
X9897667Y-18640572D01*
X9973857Y-18840572D02*
X9983381Y-18831048D01*
X10002429Y-18802476D01*
X10011952Y-18783429D01*
X10021476Y-18754857D01*
X10031000Y-18707238D01*
X10031000Y-18669143D01*
X10021476Y-18621524D01*
X10011952Y-18592953D01*
X10002429Y-18573905D01*
X9983381Y-18545334D01*
X9973857Y-18535810D01*
M02*
